<svg width="150" height="150" viewBox="0 0 150 150" fill="none" xmlns="http://www.w3.org/2000/svg">
<path d="M31.4517 21.7743V7.25814C31.4517 4.59685 33.6291 2.41943 36.2904 2.41943H142.742C145.403 2.41943 147.581 4.59685 147.581 7.25814V21.7743H31.4517Z" fill="#CDCEF1"/>
<path d="M142.742 108.871H31.4517V21.7744H147.581V104.032C147.581 106.706 145.415 108.871 142.742 108.871Z" fill="#E6E9ED"/>
<path d="M104.032 60.4839H137.903V99.1936H104.032V60.4839Z" fill="#CDCEF1"/>
<path d="M87.0968 142.742V147.581H19.3549V142.742C19.3549 140.081 21.5323 137.903 24.1936 137.903H33.871H72.5807H82.2581C84.9194 137.903 87.0968 140.081 87.0968 142.742Z" fill="#969FAA"/>
<path d="M67.7419 123.387L72.5807 137.903H33.871L38.7097 123.387H67.7419Z" fill="#969FAA"/>
<path d="M104.032 108.871V113.71C104.032 119.056 99.7016 123.387 94.3548 123.387H67.7419H38.7096H12.0967C6.74996 123.387 2.41931 119.056 2.41931 113.71V104.032H104.032V108.871Z" fill="#AAB2BD"/>
<path d="M104.032 104.032H2.41931V55.6452C2.41931 50.2984 6.74996 45.9678 12.0967 45.9678H31.4516H94.3548C99.7016 45.9678 104.032 50.2984 104.032 55.6452V60.4839V99.1936V104.032Z" fill="#711AFF"/>
<path d="M65.3226 55.645H45.9678H16.9355C14.2742 55.645 12.0968 57.8224 12.0968 60.4837V89.516C12.0968 92.1773 14.2742 94.3547 16.9355 94.3547H36.2904H65.3226C67.9839 94.3547 70.1613 92.1773 70.1613 89.516V60.4837C70.1613 57.8224 67.9839 55.645 65.3226 55.645Z" fill="#CDCEF1"/>
<path d="M142.742 0H36.2903C32.2887 0 29.0323 3.25645 29.0323 7.25806V43.5484H12.0968C5.42661 43.5484 0 48.975 0 55.6452V113.71C0 120.38 5.42661 125.806 12.0968 125.806H35.3516L32.1266 135.484H24.1936C20.1919 135.484 16.9355 138.74 16.9355 142.742V150H89.5161V142.742C89.5161 138.74 86.2597 135.484 82.2581 135.484H74.325L71.1 125.806H94.3548C101.025 125.806 106.452 120.38 106.452 113.71V111.29H142.742C146.744 111.29 150 108.034 150 104.032V7.25806C150 3.25645 146.744 0 142.742 0ZM36.2903 4.83871H142.742C144.075 4.83871 145.161 5.925 145.161 7.25806V19.3548H33.871V7.25806C33.871 5.925 34.9573 4.83871 36.2903 4.83871ZM12.0968 48.3871H94.3548C98.3565 48.3871 101.613 51.6436 101.613 55.6452V101.613H4.83871V55.6452C4.83871 51.6436 8.09516 48.3871 12.0968 48.3871ZM106.452 62.9032H135.484V96.7742H106.452V62.9032ZM84.6774 142.742V145.161H21.7742V142.742C21.7742 141.409 22.8605 140.323 24.1936 140.323H82.2581C83.5911 140.323 84.6774 141.409 84.6774 142.742ZM69.2226 135.484H37.229L40.454 125.806H65.9976L69.2226 135.484ZM94.3548 120.968H12.0968C8.09516 120.968 4.83871 117.711 4.83871 113.71V106.452H101.613V113.71C101.613 117.711 98.3565 120.968 94.3548 120.968ZM142.742 106.452H106.452V101.613H140.323V58.0645H106.452V55.6452C106.452 48.975 101.025 43.5484 94.3548 43.5484H33.871V24.1936H145.161V104.032C145.161 105.365 144.075 106.452 142.742 106.452Z" fill="black"/>
<path d="M60.4839 111.291H65.3226V116.129H60.4839V111.291Z" fill="black"/>
<path d="M50.8064 111.291H55.6451V116.129H50.8064V111.291Z" fill="black"/>
<path d="M41.129 111.291H45.9677V116.129H41.129V111.291Z" fill="black"/>
<path d="M38.7097 9.67725H43.5484V14.516H38.7097V9.67725Z" fill="black"/>
<path d="M48.3871 9.67725H53.2258V14.516H48.3871V9.67725Z" fill="black"/>
<path d="M58.0646 9.67725H62.9033V14.516H58.0646V9.67725Z" fill="black"/>
<path d="M38.7097 29.0322H43.5484V33.8709H38.7097V29.0322Z" fill="black"/>
<path d="M48.3871 29.0322H140.323V33.8709H48.3871V29.0322Z" fill="black"/>
<path d="M111.29 38.7095H140.323V43.5482H111.29V38.7095Z" fill="black"/>
<path d="M111.29 48.3872H140.323V53.2259H111.29V48.3872Z" fill="black"/>
<path d="M16.9354 97.774H65.3225C69.3241 97.774 72.5806 94.5175 72.5806 90.5159V61.4836C72.5806 57.482 69.3241 54.2256 65.3225 54.2256H16.9354C12.9338 54.2256 9.67737 57.482 9.67737 61.4836V90.5159C9.67737 94.5175 12.9338 97.774 16.9354 97.774ZM14.5161 61.4836C14.5161 60.1506 15.6024 59.0643 16.9354 59.0643H65.3225C66.6556 59.0643 67.7419 60.1506 67.7419 61.4836V90.5159C67.7419 91.849 66.6556 92.9353 65.3225 92.9353H16.9354C15.6024 92.9353 14.5161 91.849 14.5161 90.5159V61.4836Z" fill="black"/>
<path d="M34.0096 88.7114L43.68 59.6697L48.2719 61.1988L38.6016 90.2405L34.0096 88.7114Z" fill="black"/>
<path d="M52.5169 86.3876L63.9048 74.9997L52.5169 63.6118L49.0959 67.0328L57.0629 74.9997L49.0959 82.9667L52.5169 86.3876Z" fill="black"/>
<path d="M33.1621 82.9667L25.1952 74.9997L33.1621 67.0328L29.7412 63.6118L18.3533 74.9997L29.7412 86.3876L33.1621 82.9667Z" fill="black"/>
<path d="M77.4193 53.2256H96.7742V58.0643H77.4193V53.2256Z" fill="black"/>
<path d="M77.4193 62.9033H96.7742V67.742H77.4193V62.9033Z" fill="black"/>
<path d="M77.4193 72.5806H96.7742V77.4193H77.4193V72.5806Z" fill="black"/>
<path d="M77.4193 82.2583H96.7742V87.097H77.4193V82.2583Z" fill="black"/>
<path d="M82.2581 91.9355H87.0968V96.7743H82.2581V91.9355Z" fill="black"/>
<path d="M91.9355 91.9355H96.7743V96.7743H91.9355V91.9355Z" fill="black"/>
</svg>
