<svg width="150" height="150" viewBox="0 0 150 150" fill="none" xmlns="http://www.w3.org/2000/svg">
<path d="M123.307 21.0125H0V4.08983C0 1.83106 1.79087 0 4.00006 0H119.307C121.517 0 123.307 1.83106 123.307 4.08983V21.0125Z" fill="#3A556A"/>
<path d="M119.307 121.873H4.00006C1.79087 121.873 0 120.041 0 117.783V21.0127H123.307V117.783C123.307 120.041 121.517 121.873 119.307 121.873Z" fill="#E1E6E9"/>
<path d="M13.358 15.7598C16.1957 15.7598 18.4961 13.4078 18.4961 10.5064C18.4961 7.60498 16.1957 5.25293 13.358 5.25293C10.5203 5.25293 8.21985 7.60498 8.21985 10.5064C8.21985 13.4078 10.5203 15.7598 13.358 15.7598Z" fill="#FCD462"/>
<path d="M29.7999 15.7598C32.6376 15.7598 34.9381 13.4078 34.9381 10.5064C34.9381 7.60498 32.6376 5.25293 29.7999 5.25293C26.9622 5.25293 24.6618 7.60498 24.6618 10.5064C24.6618 13.4078 26.9622 15.7598 29.7999 15.7598Z" fill="#27A2DB"/>
<path d="M46.2399 15.7598C49.0776 15.7598 51.3781 13.4078 51.3781 10.5064C51.3781 7.60498 49.0776 5.25293 46.2399 5.25293C43.4022 5.25293 41.1018 7.60498 41.1018 10.5064C41.1018 13.4078 43.4022 15.7598 46.2399 15.7598Z" fill="#44C4A1"/>
<path d="M140.894 111.928L150 109.637V97.9079L140.894 95.6167C139.948 91.222 138.248 87.1243 135.951 83.4491L140.813 75.2318L132.702 66.9378L124.664 71.9099C121.07 69.5608 117.062 67.824 112.764 66.8569L110.523 57.5454H99.0511L96.8099 66.8569C92.5113 67.824 88.5039 69.5614 84.909 71.9106L76.8714 66.9388L68.7595 75.2331L73.6225 83.4507C71.3252 87.126 69.626 91.223 68.6804 95.6174L59.5736 97.9089V109.638L68.6804 111.929C69.6263 116.324 71.3252 120.421 73.6228 124.097L68.7605 132.314L76.8724 140.608L84.909 135.636C88.5039 137.986 92.5116 139.723 96.8102 140.69L99.0511 150H110.523L112.764 140.69C117.063 139.723 121.071 137.986 124.666 135.636L132.702 140.607L140.813 132.313L135.951 124.097C138.249 120.421 139.948 116.323 140.894 111.928Z" fill="#27A2DB"/>
<path d="M104.788 133.19C120.678 133.19 133.56 120.019 133.56 103.772C133.56 87.5248 120.678 74.354 104.788 74.354C88.8976 74.354 76.0159 87.5248 76.0159 103.772C76.0159 120.019 88.8976 133.19 104.788 133.19Z" fill="#E1E6E9"/>
<path d="M104.788 120.581C113.868 120.581 121.228 113.055 121.228 103.772C121.228 94.4885 113.868 86.9629 104.788 86.9629C95.7084 86.9629 88.3479 94.4885 88.3479 103.772C88.3479 113.055 95.7084 120.581 104.788 120.581Z" fill="#1C75A1"/>
<path d="M22.1858 54.8169L20.0842 59.6986H16.3004L25.5481 38.2397H29.3319L38.5797 59.6986H34.7971L32.6946 54.8169H22.1858ZM31.2538 51.4718L27.4405 42.6299L23.6272 51.4718H31.2538Z" fill="#3A556A"/>
<path d="M55.6652 40.1121C57.1264 41.3612 57.8571 43.2849 57.8571 45.8833C57.8571 48.484 57.1104 50.3881 55.62 51.5946C54.1283 52.8014 51.8409 53.406 48.7586 53.406H45.0359V59.6996H41.4926V38.2407H48.6987C51.8813 38.2407 54.2039 38.8653 55.6652 40.1121ZM53.1581 48.969C53.8679 48.202 54.2234 47.0777 54.2234 45.5938C54.2234 44.1099 53.7724 43.0602 52.872 42.4458C51.9716 41.8311 50.5603 41.5265 48.6385 41.5265H45.0353V50.1211H49.149C51.1103 50.1205 52.447 49.7383 53.1581 48.969Z" fill="#3A556A"/>
<path d="M62.0304 38.2407H65.5737V59.6996H62.0304V38.2407Z" fill="#3A556A"/>
<path d="M111.308 14.5962H63.9398C61.7306 14.5962 59.9398 12.7651 59.9398 10.5063C59.9398 8.24756 61.7306 6.4165 63.9398 6.4165H111.307C113.516 6.4165 115.307 8.24756 115.307 10.5063C115.307 12.7651 113.516 14.5962 111.308 14.5962Z" fill="#E1E6E9"/>
</svg>
