<svg width="150" height="150" viewBox="0 0 150 150" fill="none" xmlns="http://www.w3.org/2000/svg">
<path d="M47.5 112.5H72.5V135.577H47.5V112.5Z" fill="#CAD8ED"/>
<path d="M117.5 20.1922H2.5V8.65375C2.5 7.12366 3.02678 5.65623 3.96447 4.57429C4.90215 3.49235 6.17392 2.88452 7.5 2.88452H112.5C113.826 2.88452 115.098 3.49235 116.036 4.57429C116.973 5.65623 117.5 7.12366 117.5 8.65375V20.1922Z" fill="#89A8F5"/>
<path d="M117.5 20.1924V112.5H7.5C6.17392 112.5 4.90215 111.892 3.96447 110.81C3.02678 109.728 2.5 108.261 2.5 106.731V20.1924H117.5Z" fill="#5771E5"/>
<path d="M35 135.577H85V147.115H35V135.577Z" fill="#E4E9F2"/>
<path d="M97.5 77.8845H147.5V147.115H97.5V77.8845Z" fill="#51A37E"/>
<path d="M12.5 60.5769V75H30V63.4615H22.5L20 60.5769H12.5Z" fill="#F7C04A"/>
<path d="M40 60.5769V75H57.5V63.4615H50L47.5 60.5769H40Z" fill="#F7C04A"/>
<path d="M12.5 34.6155V49.0386H30V37.5001H22.5L20 34.6155H12.5Z" fill="#F7C04A"/>
<path d="M40 34.6155V49.0386H57.5V37.5001H50L47.5 34.6155H40Z" fill="#F7C04A"/>
<path d="M12.5 86.5386V100.962H30V89.4232H22.5L20 86.5386H12.5Z" fill="#F7C04A"/>
<path d="M40 86.5386V100.962H57.5V89.4232H50L47.5 86.5386H40Z" fill="#F7C04A"/>
<path d="M67.5 60.5769V75H85V63.4615H77.5L75 60.5769H67.5Z" fill="#F7C04A"/>
<path d="M67.5 86.5386V100.962H85V89.4232H77.5L75 86.5386H67.5Z" fill="#F7C04A"/>
<path d="M82.5 43.2692C85.2614 43.2692 87.5 40.6862 87.5 37.4999C87.5 34.3137 85.2614 31.7307 82.5 31.7307C79.7386 31.7307 77.5 34.3137 77.5 37.4999C77.5 40.6862 79.7386 43.2692 82.5 43.2692Z" fill="#F7C04A"/>
<path d="M7.5 115.385H45V132.692H35C34.337 132.692 33.7011 132.996 33.2323 133.537C32.7634 134.078 32.5 134.812 32.5 135.577V147.115C32.5 147.88 32.7634 148.614 33.2323 149.155C33.7011 149.696 34.337 150 35 150H85C85.663 150 86.2989 149.696 86.7677 149.155C87.2366 148.614 87.5 147.88 87.5 147.115V135.577C87.5 134.812 87.2366 134.078 86.7677 133.537C86.2989 132.996 85.663 132.692 85 132.692H75V115.385H90V109.615H7.5C6.83719 109.615 6.20175 109.31 5.73307 108.77C5.26439 108.229 5.00076 107.496 5 106.731V23.0769H115V28.8462H120V8.65385C119.998 6.35951 119.207 4.15989 117.801 2.53755C116.395 0.915209 114.488 0.00262442 112.5 0H7.5C5.51157 0.00262442 3.60524 0.915209 2.19921 2.53755C0.793181 4.15989 0.0022745 6.35951 0 8.65385V106.731C0.0022745 109.025 0.793181 111.225 2.19921 112.847C3.60524 114.469 5.51157 115.382 7.5 115.385ZM82.5 144.231H37.5V138.462H82.5V144.231ZM57.5 115.385V121.154C57.5 121.919 57.7634 122.653 58.2322 123.194C58.7011 123.735 59.337 124.038 60 124.038C60.663 124.038 61.2989 123.735 61.7678 123.194C62.2366 122.653 62.5 121.919 62.5 121.154V115.385H70V132.692H50V115.385H57.5ZM7.5 5.76923H112.5C113.163 5.77011 113.798 6.0743 114.267 6.61508C114.736 7.15586 114.999 7.88907 115 8.65385V17.3077H5V8.65385C5.00076 7.88907 5.26439 7.15586 5.73307 6.61508C6.20175 6.0743 6.83719 5.77011 7.5 5.76923V5.76923Z" fill="black"/>
<path d="M147.5 75.0001H135V37.5001C135 36.735 134.737 36.0013 134.268 35.4604C133.799 34.9194 133.163 34.6155 132.5 34.6154H89.57C88.9802 32.6908 87.8198 31.0686 86.2938 30.0357C84.7677 29.0028 82.9744 28.6256 81.2306 28.9708C79.4869 29.316 77.9051 30.3614 76.7647 31.9222C75.6244 33.483 74.9989 35.4586 74.9989 37.5001C74.9989 39.5415 75.6244 41.5171 76.7647 43.0779C77.9051 44.6387 79.4869 45.6841 81.2306 46.0293C82.9744 46.3745 84.7677 45.9973 86.2938 44.9644C87.8198 43.9315 88.9802 42.3093 89.57 40.3847H115V69.2308H120V40.3847H130V75.0001H97.5C96.8369 75.0001 96.2011 75.304 95.7322 75.845C95.2634 76.3859 95 77.1196 95 77.8847V147.115C95 147.88 95.2634 148.614 95.7322 149.155C96.2011 149.696 96.8369 150 97.5 150H147.5C148.163 150 148.799 149.696 149.268 149.155C149.737 148.614 150 147.88 150 147.115V77.8847C150 77.1196 149.737 76.3859 149.268 75.845C148.799 75.304 148.163 75.0001 147.5 75.0001ZM82.5 40.3847C82.0055 40.3847 81.5222 40.2155 81.111 39.8985C80.6999 39.5816 80.3795 39.131 80.1903 38.6039C80.0011 38.0769 79.9515 37.4968 80.048 36.9373C80.1445 36.3777 80.3826 35.8637 80.7322 35.4603C81.0818 35.0569 81.5273 34.7822 82.0122 34.6709C82.4972 34.5596 82.9999 34.6167 83.4567 34.835C83.9135 35.0533 84.3039 35.4231 84.5786 35.8974C84.8533 36.3718 85 36.9295 85 37.5001C84.9992 38.2648 84.7356 38.998 84.2669 39.5388C83.7982 40.0796 83.1628 40.3838 82.5 40.3847V40.3847ZM100 103.846H145V121.154H100V103.846ZM100 80.7693H145V98.077H100V80.7693ZM145 144.231H100V126.923H145V144.231Z" fill="black"/>
<path d="M32.5 63.4616C32.5 62.6966 32.2366 61.9629 31.7677 61.4219C31.2989 60.881 30.663 60.577 30 60.577H23.5355L21.7679 58.5371C21.2989 57.9963 20.663 57.6924 20 57.6924H12.5C11.837 57.6924 11.2011 57.9963 10.7323 58.5373C10.2634 59.0783 10 59.812 10 60.577V75.0001C10 75.7651 10.2634 76.4988 10.7323 77.0398C11.2011 77.5807 11.837 77.8847 12.5 77.8847H30C30.663 77.8847 31.2989 77.5807 31.7677 77.0398C32.2366 76.4988 32.5 75.7651 32.5 75.0001V63.4616ZM27.5 72.1155H15V63.4616H18.9645L20.7321 65.5015C21.2011 66.0424 21.837 66.3462 22.5 66.3462H27.5V72.1155Z" fill="black"/>
<path d="M60 63.4616C60 62.6966 59.7366 61.9629 59.2677 61.4219C58.7989 60.881 58.163 60.577 57.5 60.577H51.0355L49.2679 58.5371C48.7989 57.9963 48.163 57.6924 47.5 57.6924H40C39.337 57.6924 38.7011 57.9963 38.2323 58.5373C37.7634 59.0783 37.5 59.812 37.5 60.577V75.0001C37.5 75.7651 37.7634 76.4988 38.2323 77.0398C38.7011 77.5807 39.337 77.8847 40 77.8847H57.5C58.163 77.8847 58.7989 77.5807 59.2677 77.0398C59.7366 76.4988 60 75.7651 60 75.0001V63.4616ZM55 72.1155H42.5V63.4616H46.4645L48.2321 65.5015C48.7011 66.0424 49.337 66.3462 50 66.3462H55V72.1155Z" fill="black"/>
<path d="M32.5 37.4999C32.5 36.7349 32.2366 36.0012 31.7677 35.4603C31.2989 34.9193 30.663 34.6154 30 34.6153H23.5355L21.7679 32.5755C21.2989 32.0346 20.663 31.7307 20 31.7307H12.5C11.837 31.7308 11.2011 32.0347 10.7323 32.5756C10.2634 33.1166 10 33.8503 10 34.6153V49.0384C10 49.8034 10.2634 50.5371 10.7323 51.0781C11.2011 51.6191 11.837 51.923 12.5 51.923H30C30.663 51.923 31.2989 51.6191 31.7677 51.0781C32.2366 50.5371 32.5 49.8034 32.5 49.0384V37.4999ZM27.5 46.1538H15V37.4999H18.9645L20.7321 39.5398C21.2011 40.0807 21.837 40.3845 22.5 40.3846H27.5V46.1538Z" fill="black"/>
<path d="M60 37.4999C60 36.7349 59.7366 36.0012 59.2677 35.4603C58.7989 34.9193 58.163 34.6154 57.5 34.6153H51.0355L49.2679 32.5755C48.7989 32.0346 48.163 31.7307 47.5 31.7307H40C39.337 31.7308 38.7011 32.0347 38.2323 32.5756C37.7634 33.1166 37.5 33.8503 37.5 34.6153V49.0384C37.5 49.8034 37.7634 50.5371 38.2323 51.0781C38.7011 51.6191 39.337 51.923 40 51.923H57.5C58.163 51.923 58.7989 51.6191 59.2677 51.0781C59.7366 50.5371 60 49.8034 60 49.0384V37.4999ZM55 46.1538H42.5V37.4999H46.4645L48.2321 39.5398C48.7011 40.0807 49.337 40.3845 50 40.3846H55V46.1538Z" fill="black"/>
<path d="M30 86.5384H23.5355L21.7679 84.4986C21.2989 83.9577 20.663 83.6538 20 83.6538H12.5C11.837 83.6538 11.2011 83.9578 10.7323 84.4987C10.2634 85.0397 10 85.7734 10 86.5384V100.961C10 101.727 10.2634 102.46 10.7323 103.001C11.2011 103.542 11.837 103.846 12.5 103.846H30C30.663 103.846 31.2989 103.542 31.7677 103.001C32.2366 102.46 32.5 101.727 32.5 100.961V89.423C32.5 88.658 32.2366 87.9243 31.7677 87.3833C31.2989 86.8424 30.663 86.5385 30 86.5384ZM27.5 98.0769H15V89.423H18.9645L20.7321 91.4629C21.2011 92.0038 21.837 92.3076 22.5 92.3077H27.5V98.0769Z" fill="black"/>
<path d="M57.5 86.5384H51.0355L49.2679 84.4986C48.7989 83.9577 48.163 83.6538 47.5 83.6538H40C39.337 83.6538 38.7011 83.9578 38.2323 84.4987C37.7634 85.0397 37.5 85.7734 37.5 86.5384V100.961C37.5 101.727 37.7634 102.46 38.2323 103.001C38.7011 103.542 39.337 103.846 40 103.846H57.5C58.163 103.846 58.7989 103.542 59.2677 103.001C59.7366 102.46 60 101.727 60 100.961V89.423C60 88.658 59.7366 87.9243 59.2677 87.3833C58.7989 86.8424 58.163 86.5385 57.5 86.5384ZM55 98.0769H42.5V89.423H46.4645L48.2321 91.4629C48.7011 92.0038 49.337 92.3076 50 92.3077H55V98.0769Z" fill="black"/>
<path d="M87.5 63.4616C87.5 62.6966 87.2366 61.9629 86.7677 61.4219C86.2989 60.881 85.663 60.577 85 60.577H78.5355L76.7679 58.5371C76.2989 57.9963 75.663 57.6924 75 57.6924H67.5C66.837 57.6924 66.2011 57.9963 65.7323 58.5373C65.2634 59.0783 65 59.812 65 60.577V75.0001C65 75.7651 65.2634 76.4988 65.7323 77.0398C66.2011 77.5807 66.837 77.8847 67.5 77.8847H85C85.663 77.8847 86.2989 77.5807 86.7677 77.0398C87.2366 76.4988 87.5 75.7651 87.5 75.0001V63.4616ZM82.5 72.1155H70V63.4616H73.9645L75.7321 65.5015C76.2011 66.0424 76.837 66.3462 77.5 66.3462H82.5V72.1155Z" fill="black"/>
<path d="M85 86.5384H78.5355L76.7679 84.4986C76.2989 83.9577 75.663 83.6538 75 83.6538H67.5C66.837 83.6538 66.2011 83.9578 65.7323 84.4987C65.2634 85.0397 65 85.7734 65 86.5384V100.961C65 101.727 65.2634 102.46 65.7323 103.001C66.2011 103.542 66.837 103.846 67.5 103.846H85C85.663 103.846 86.2989 103.542 86.7677 103.001C87.2366 102.46 87.5 101.727 87.5 100.961V89.423C87.5 88.658 87.2366 87.9243 86.7677 87.3833C86.2989 86.8424 85.663 86.5385 85 86.5384V86.5384ZM82.5 98.0769H70V89.423H73.9645L75.7321 91.4629C76.2011 92.0038 76.837 92.3076 77.5 92.3077H82.5V98.0769Z" fill="black"/>
<path d="M10 14.423C11.3807 14.423 12.5 13.1316 12.5 11.5384C12.5 9.94529 11.3807 8.65381 10 8.65381C8.61929 8.65381 7.5 9.94529 7.5 11.5384C7.5 13.1316 8.61929 14.423 10 14.423Z" fill="black"/>
<path d="M17.5 14.423C18.8807 14.423 20 13.1316 20 11.5384C20 9.94529 18.8807 8.65381 17.5 8.65381C16.1193 8.65381 15 9.94529 15 11.5384C15 13.1316 16.1193 14.423 17.5 14.423Z" fill="black"/>
<path d="M25 14.423C26.3807 14.423 27.5 13.1316 27.5 11.5384C27.5 9.94529 26.3807 8.65381 25 8.65381C23.6193 8.65381 22.5 9.94529 22.5 11.5384C22.5 13.1316 23.6193 14.423 25 14.423Z" fill="black"/>
<path d="M107.5 92.3078C108.881 92.3078 110 91.0163 110 89.4232C110 87.8301 108.881 86.5386 107.5 86.5386C106.119 86.5386 105 87.8301 105 89.4232C105 91.0163 106.119 92.3078 107.5 92.3078Z" fill="black"/>
<path d="M115 83.6538H120V95.1923H115V83.6538Z" fill="black"/>
<path d="M122.5 83.6538H127.5V95.1923H122.5V83.6538Z" fill="black"/>
<path d="M107.5 115.385C108.881 115.385 110 114.093 110 112.5C110 110.907 108.881 109.615 107.5 109.615C106.119 109.615 105 110.907 105 112.5C105 114.093 106.119 115.385 107.5 115.385Z" fill="black"/>
<path d="M115 106.731H120V118.269H115V106.731Z" fill="black"/>
<path d="M122.5 106.731H127.5V118.269H122.5V106.731Z" fill="black"/>
<path d="M107.5 138.462C108.881 138.462 110 137.17 110 135.577C110 133.984 108.881 132.692 107.5 132.692C106.119 132.692 105 133.984 105 135.577C105 137.17 106.119 138.462 107.5 138.462Z" fill="black"/>
<path d="M115 129.808H120V141.346H115V129.808Z" fill="black"/>
<path d="M122.5 129.808H127.5V141.346H122.5V129.808Z" fill="black"/>
</svg>
