<svg width="150" height="150" viewBox="0 0 150 150" fill="none" xmlns="http://www.w3.org/2000/svg">
<path d="M93.259 26.1757C86.018 10.7481 68.5159 -0.108842 48.1019 0.000823294C22.0586 0.141822 0.647 18.3659 0.0149904 40.9531C-0.301015 52.0999 4.39843 62.2909 12.285 69.9519C18.569 76.0618 21.7245 84.1105 21.4085 92.2962C21.3679 93.3851 21.3589 94.4817 21.3905 95.5862C22.2211 125.29 51.4742 150.02 85.7246 150C121.225 149.98 150 125.008 150 94.2036C150 71.6203 134.538 52.1743 112.301 43.3932C103.633 39.974 96.848 33.8288 93.259 26.1757Z" fill="url(#paint0_linear)"/>
<path d="M96.383 19.5722C95.9406 19.5722 95.5072 19.4155 95.1912 19.1414L91.4714 15.9141C90.8123 15.3422 90.8123 14.414 91.4714 13.8422L95.1912 10.6149C95.5072 10.3407 95.9406 10.184 96.383 10.184C96.8344 10.184 97.2633 10.3407 97.5793 10.6149L101.299 13.8422C101.615 14.1163 101.796 14.4884 101.796 14.8761C101.796 15.2678 101.615 15.636 101.299 15.9141L97.5793 19.1414C97.2633 19.4155 96.8344 19.5722 96.383 19.5722ZM95.0512 14.8761L96.383 16.0316L97.7192 14.8761L96.383 13.7207L95.0512 14.8761Z" fill="#6583FE"/>
<path d="M117.564 127.875C117.113 127.875 116.684 127.718 116.368 127.444L112.648 124.217C111.989 123.645 111.989 122.717 112.648 122.149L116.368 118.918C117.027 118.346 118.093 118.346 118.756 118.918L122.476 122.149C122.796 122.423 122.973 122.791 122.973 123.183C122.973 123.571 122.796 123.947 122.476 124.217L118.756 127.444C118.44 127.718 118.011 127.875 117.564 127.875ZM116.233 123.183L117.564 124.338L118.896 123.183L117.564 122.027L116.233 123.183Z" fill="#6583FE"/>
<path d="M24.5776 139.817C23.6431 139.817 22.8892 139.159 22.8892 138.352C22.8892 137.377 21.9773 136.589 20.8578 136.589C19.9233 136.589 19.1694 135.931 19.1694 135.125C19.1694 134.318 19.9233 133.66 20.8578 133.66C21.9773 133.66 22.8892 132.869 22.8892 131.893C22.8892 131.087 23.6431 130.429 24.5776 130.429C25.5076 130.429 26.266 131.087 26.266 131.893C26.266 132.869 27.1779 133.66 28.302 133.66C29.2319 133.66 29.9903 134.318 29.9903 135.125C29.9903 135.931 29.2319 136.589 28.302 136.589C27.1779 136.589 26.266 137.377 26.266 138.352C26.266 139.159 25.5076 139.817 24.5776 139.817Z" fill="#6583FE"/>
<path d="M39.2086 126.222C38.2787 126.222 37.5203 125.568 37.5203 124.757C37.5203 123.786 36.6129 122.995 35.4888 122.995C34.5589 122.995 33.8004 122.341 33.8004 121.53C33.8004 120.723 34.5589 120.065 35.4888 120.065C36.6129 120.065 37.5203 119.274 37.5203 118.299C37.5203 117.492 38.2787 116.834 39.2086 116.834C40.1431 116.834 40.897 117.492 40.897 118.299C40.897 119.274 41.8134 120.065 42.933 120.065C43.8629 120.065 44.6214 120.723 44.6214 121.53C44.6214 122.341 43.8629 122.995 42.933 122.995C41.8134 122.995 40.897 123.786 40.897 124.757C40.897 125.568 40.1431 126.222 39.2086 126.222Z" fill="#6583FE"/>
<path d="M94.1484 132.211H55.8486L60.8369 115.04L63.5094 105.871H86.4875L89.16 115.04L94.1484 132.211Z" fill="white"/>
<path d="M94.1529 133.672H55.844C55.3294 133.672 54.8373 133.464 54.5168 133.108C54.1963 132.751 54.0834 132.289 54.2099 131.846L60.241 111.123C60.4713 110.34 61.3832 109.862 62.286 110.062C63.1934 110.258 63.7442 111.053 63.5139 111.84L58.0155 130.742H91.9815L86.4333 111.672C86.2076 110.888 86.7539 110.089 87.6567 109.89C88.5641 109.694 89.4805 110.172 89.7062 110.951L95.7871 131.846C95.918 132.285 95.8006 132.751 95.4801 133.108C95.1596 133.464 94.6675 133.672 94.1529 133.672Z" fill="#2626BC"/>
<path d="M142.533 32.0271V106.514C142.533 108.942 140.263 110.908 137.468 110.908H12.5288C9.72989 110.908 7.46368 108.942 7.46368 106.514V32.0271C7.46368 29.6027 9.72989 27.6326 12.5288 27.6326H137.468C140.263 27.6326 142.533 29.6027 142.533 32.0271Z" fill="white"/>
<path d="M137.468 27.6326H108.427V110.908H137.468C140.263 110.908 142.533 108.942 142.533 106.514V32.0271C142.533 29.6027 140.263 27.6326 137.468 27.6326Z" fill="white"/>
<path d="M136.285 55.5073L133.857 48.1088C133.654 47.4821 132.99 47.0435 132.231 47.0435H123.993C123.239 47.0435 122.58 47.4821 122.372 48.1088L119.939 55.5073C116.54 56.2319 113.334 57.3951 110.418 58.9304L102.671 55.1861C102.012 54.8728 101.186 54.9707 100.654 55.4329L94.83 60.4893C94.2973 60.9514 94.1845 61.6642 94.5456 62.24L98.8614 68.957C97.0917 71.4872 95.751 74.268 94.9158 77.2172L86.3882 79.3283C85.6659 79.5084 85.1648 80.0802 85.1648 80.7382V87.8861C85.1648 88.5402 85.6659 89.112 86.3882 89.2961L94.9158 91.4032C95.4846 93.4242 96.2972 95.3669 97.3265 97.2077H121.925C116.111 95.1005 112.016 90.1264 112.016 84.3141C112.016 76.5984 119.226 70.3474 128.119 70.3474C134.434 70.3474 139.897 73.5042 142.533 78.0984V57.4147C140.547 56.6079 138.457 55.9734 136.29 55.5073H136.285Z" fill="#2906FF"/>
<path d="M130.367 98.6725H96.2656L95.8097 97.8421C94.8616 96.1541 94.0987 94.3877 93.5254 92.5821L85.9232 90.7021C84.4786 90.3418 83.4719 89.1825 83.4719 87.8861V80.7382C83.4719 79.434 84.4831 78.2747 85.9232 77.9222L93.5254 76.0383C94.3109 73.559 95.4485 71.1777 96.9157 68.9374L93.0694 62.9489C92.3471 61.8052 92.5819 60.3717 93.6337 59.4552L99.4573 54.395C100.523 53.4745 102.184 53.2748 103.493 53.9093L110.396 57.2423C112.973 55.9694 115.718 54.9864 118.585 54.301L120.747 47.7132C121.158 46.4559 122.494 45.5786 123.993 45.5786H132.231C133.735 45.5786 135.071 46.4559 135.482 47.7132L137.644 54.301C139.576 54.7631 141.454 55.3584 143.247 56.0869L144.222 56.4825V84.3258L141.021 78.7486C138.565 74.4677 133.617 71.8122 128.114 71.8122C120.169 71.8122 113.705 77.4169 113.705 84.3141C113.705 89.3744 117.19 93.9059 122.58 95.8564L130.367 98.6725ZM98.4009 95.7428H116.156C112.504 92.8719 110.328 88.7595 110.328 84.3141C110.328 75.8033 118.305 68.8826 128.119 68.8826C133.017 68.8826 137.558 70.5902 140.845 73.5199V58.3625C139.251 57.775 137.586 57.2933 135.884 56.929L134.936 56.7253L132.236 48.5122L123.997 48.5083L121.302 56.7253L120.345 56.929C117.145 57.6105 114.102 58.7032 111.289 60.1837L110.454 60.6263L101.85 56.4708L96.0263 61.5232L100.816 68.9883L100.306 69.7207C98.5995 72.1608 97.34 74.8006 96.5545 77.5697L96.3198 78.3961L86.8532 80.7382V87.8861L96.3198 90.2282L96.5545 91.0546C97.006 92.6526 97.6289 94.2271 98.4009 95.7428Z" fill="#2626BC"/>
<path d="M142.533 41.7482V32.0271C142.533 29.6027 140.263 27.6326 137.468 27.6326H12.5288C9.72989 27.6326 7.46368 29.6027 7.46368 32.0271V41.7482H142.533Z" fill="#E1C9C9"/>
<path d="M142.533 43.213H7.46368C6.52921 43.213 5.77531 42.555 5.77531 41.7481C5.77531 40.9374 6.52921 40.2833 7.46368 40.2833H142.533C143.463 40.2833 144.222 40.9374 144.222 41.7481C144.222 42.555 143.463 43.213 142.533 43.213Z" fill="#2626BC"/>
<path d="M7.46368 96.1464V106.514C7.46368 108.942 9.72989 110.908 12.5288 110.908H137.468C140.263 110.908 142.533 108.942 142.533 106.514V96.1464H7.46368Z" fill="#E1C9C9"/>
<path d="M142.348 97.6112H18.253C17.323 97.6112 16.5646 96.9532 16.5646 96.1463C16.5646 95.3356 17.323 94.6815 18.253 94.6815H142.344C143.283 94.6815 144.032 95.3356 144.032 96.1463C144.037 96.9532 143.283 97.6112 142.348 97.6112Z" fill="#2626BC"/>
<path d="M100.64 133.672H49.3569C48.427 133.672 47.6685 133.014 47.6685 132.207C47.6685 131.4 48.427 130.742 49.3569 130.742H100.64C101.57 130.742 102.328 131.4 102.328 132.207C102.328 133.014 101.57 133.672 100.64 133.672Z" fill="#2626BC"/>
<path d="M20.3206 36.1748C19.3906 36.1748 18.6322 35.5207 18.6322 34.71V34.6669C18.6322 33.8601 19.3906 33.2021 20.3206 33.2021C21.255 33.2021 22.0089 33.8601 22.0089 34.6669V34.71C22.0089 35.5207 21.255 36.1748 20.3206 36.1748Z" fill="#2626BC"/>
<path d="M26.8483 36.1748C25.9139 36.1748 25.16 35.5207 25.16 34.71V34.6669C25.16 33.8601 25.9139 33.2021 26.8483 33.2021C27.7828 33.2021 28.5367 33.8601 28.5367 34.6669V34.71C28.5367 35.5207 27.7828 36.1748 26.8483 36.1748Z" fill="#2626BC"/>
<path d="M33.3761 36.1748C32.4416 36.1748 31.6877 35.5207 31.6877 34.71V34.6669C31.6877 33.8601 32.4416 33.2021 33.3761 33.2021C34.306 33.2021 35.0645 33.8601 35.0645 34.6669V34.71C35.0645 35.5207 34.306 36.1748 33.3761 36.1748Z" fill="#2626BC"/>
<path d="M137.468 112.373H12.5288C8.80444 112.373 5.77531 109.745 5.77531 106.514V32.0271C5.77531 28.7958 8.80444 26.1678 12.5288 26.1678H137.468C141.192 26.1678 144.222 28.7958 144.222 32.0271V41.7481C144.222 42.555 143.463 43.213 142.533 43.213C141.603 43.213 140.845 42.555 140.845 41.7481V32.0271C140.845 30.4095 139.333 29.0974 137.468 29.0974H12.5288C10.6644 29.0974 9.15205 30.4095 9.15205 32.0271V106.514C9.15205 108.127 10.6644 109.443 12.5288 109.443H137.468C139.333 109.443 140.845 108.127 140.845 106.514V49.8125C140.845 49.0057 141.603 48.3477 142.533 48.3477C143.463 48.3477 144.222 49.0057 144.222 49.8125V106.514C144.222 109.745 141.192 112.373 137.468 112.373Z" fill="#2626BC"/>
<path d="M76.2489 80.3505H19.9459C19.0114 80.3505 18.253 79.6965 18.253 78.8857C18.253 78.075 19.0114 77.417 19.9459 77.417H76.2489C77.1879 77.417 77.9418 78.075 77.9418 78.8857C77.9418 79.6965 77.1879 80.3505 76.2489 80.3505Z" fill="#2626BC"/>
<path d="M55.9885 68.0523H19.9459C19.0114 68.0523 18.253 67.3943 18.253 66.5836C18.253 65.7729 19.0114 65.1188 19.9459 65.1188H55.9885C56.9275 65.1188 57.6814 65.7729 57.6814 66.5836C57.6814 67.3943 56.9275 68.0523 55.9885 68.0523Z" fill="#2626BC"/>
<path d="M76.2489 86.1707H19.9459C19.0114 86.1707 18.253 85.5166 18.253 84.7059C18.253 83.8951 19.0114 83.2371 19.9459 83.2371H76.2489C77.1879 83.2371 77.9418 83.8951 77.9418 84.7059C77.9418 85.5166 77.1879 86.1707 76.2489 86.1707Z" fill="#2626BC"/>
<path d="M24.388 59.3182C23.9546 59.3182 23.5212 59.1733 23.1962 58.8874L19.1288 55.3585C18.4697 54.7906 18.4697 53.8584 19.1288 53.2905L23.1962 49.7616C23.8508 49.1937 24.9252 49.1937 25.5798 49.7616C26.2389 50.3374 26.2389 51.2617 25.5798 51.8374L22.7087 54.3245L25.5798 56.8155C26.2389 57.3873 26.2389 58.3156 25.5798 58.8874C25.2502 59.1733 24.8214 59.3182 24.388 59.3182Z" fill="#2626BC"/>
<path d="M40.1792 59.3182C39.7459 59.3182 39.3125 59.1733 38.9829 58.8874C38.3238 58.3116 38.3238 57.3873 38.9829 56.8155L41.8541 54.3245L38.9829 51.8374C38.3238 51.2617 38.3238 50.3374 38.9829 49.7616C39.642 49.1937 40.7119 49.1937 41.371 49.7616L45.4339 53.2905C46.093 53.8584 46.093 54.7906 45.4339 55.3585L41.371 58.8874C41.0415 59.1733 40.6081 59.3182 40.1792 59.3182Z" fill="#2626BC"/>
<path d="M29.9858 59.3182C29.7059 59.3182 29.417 59.2555 29.1552 59.1263C28.3426 58.7268 28.0582 57.8377 28.5141 57.1288L33.1097 50.0789C33.5612 49.3739 34.595 49.1271 35.403 49.5227C36.2201 49.9222 36.5045 50.8113 36.0486 51.5202L31.4575 58.5701C31.146 59.048 30.5727 59.3182 29.9858 59.3182Z" fill="#2626BC"/>
<path d="M116.549 86.1707H111.149C110.585 86.1707 110.134 85.7829 110.134 85.2934V67.4609C110.134 66.9753 110.585 66.5836 111.149 66.5836H116.549C117.108 66.5836 117.564 66.9753 117.564 67.4609V85.2934C117.564 85.7829 117.108 86.1707 116.549 86.1707Z" fill="#6583FE"/>
<path d="M105.502 86.1707H100.098C99.5385 86.1707 99.0871 85.7829 99.0871 85.2934V74.2602C99.0871 73.7785 99.5385 73.3829 100.098 73.3829H105.502C106.066 73.3829 106.513 73.7785 106.513 74.2602V85.2934C106.513 85.7829 106.066 86.1707 105.502 86.1707Z" fill="#6583FE"/>
<path d="M127.595 86.1706H122.192C121.632 86.1706 121.18 85.7828 121.18 85.2933V62.3457C121.18 61.8561 121.632 61.4645 122.192 61.4645H127.595C128.155 61.4645 128.606 61.8561 128.606 62.3457V85.2933C128.606 85.7828 128.155 86.1706 127.595 86.1706Z" fill="#6583FE"/>
<path d="M94.6946 50.9718C94.6946 51.8766 93.8504 52.609 92.8076 52.609C91.7648 52.609 90.9206 51.8766 90.9206 50.9718C90.9206 50.0671 91.7648 49.3307 92.8076 49.3307C93.8504 49.3307 94.6946 50.0671 94.6946 50.9718Z" fill="#2626BC"/>
<path d="M88.9839 50.9718C88.9839 51.8766 88.1398 52.609 87.0969 52.609C86.0541 52.609 85.2099 51.8766 85.2099 50.9718C85.2099 50.0671 86.0541 49.3307 87.0969 49.3307C88.1398 49.3307 88.9839 50.0671 88.9839 50.9718Z" fill="#2626BC"/>
<path d="M83.2733 50.9718C83.2733 51.8766 82.4336 52.609 81.3863 52.609C80.3435 52.609 79.4993 51.8766 79.4993 50.9718C79.4993 50.0671 80.3435 49.3307 81.3863 49.3307C82.4336 49.3307 83.2733 50.0671 83.2733 50.9718Z" fill="#2626BC"/>
<defs>
<linearGradient id="paint0_linear" x1="11.7227" y1="-1.81586" x2="106.273" y2="160.876" gradientUnits="userSpaceOnUse">
<stop stop-color="#D2DEFF" stop-opacity="0"/>
<stop offset="1" stop-color="#B7C5FF"/>
</linearGradient>
</defs>
</svg>
