<svg width="150" height="150" viewBox="0 0 150 150" fill="none" xmlns="http://www.w3.org/2000/svg">
<path d="M75 150C114.642 150 146.777 116.421 146.777 75C146.777 33.5786 114.642 0 75 0C35.3585 0 3.22266 33.5786 3.22266 75C3.22266 116.421 35.3585 150 75 150Z" fill="#8F13F1"/>
<path d="M82.8018 112.907H51.1611V127.041H82.8018V112.907Z" fill="#445EA0"/>
<path d="M56.9742 112.907H51.1611V127.041H56.9742V112.907Z" fill="#2E4C89"/>
<path d="M97.5979 134.388C97.5979 135.23 96.9387 135.918 96.133 135.918H37.8314C37.0257 135.918 36.3665 135.23 36.3665 134.388V128.265C36.3665 127.424 37.0257 126.735 37.8314 126.735H96.133C96.9387 126.735 97.5979 127.424 97.5979 128.265V134.388Z" fill="#293D7C"/>
<path d="M42.1796 134.388V128.265C42.1796 127.424 42.8388 126.735 43.6445 126.735H37.8314C37.0257 126.735 36.3665 127.424 36.3665 128.265V134.388C36.3665 135.23 37.0257 135.918 37.8314 135.918H43.6445C42.8388 135.918 42.1796 135.23 42.1796 134.388Z" fill="#1A2B63"/>
<path d="M0 110.153C0 111.837 1.31836 113.214 2.92969 113.214H90.8716V92.7192H0V110.153Z" fill="#293D7C"/>
<path d="M90.8716 84.4858C90.8716 83.8105 91.3972 83.2613 92.0435 83.2613H133.964V16.979C133.964 15.1282 132.515 13.6141 130.744 13.6141H3.22031C1.44902 13.6141 0 15.1282 0 16.979V93.0254H90.8716V84.4858Z" fill="#445EA0"/>
<path d="M90.8716 84.4858C90.8716 83.8105 91.3971 83.2613 92.0434 83.2613H127.524V21.8746C127.524 21.0328 126.865 20.344 126.059 20.344H7.90546C7.09979 20.344 6.44061 21.0328 6.44061 21.8746V84.7647C6.44061 85.6065 7.09979 86.2953 7.90546 86.2953H90.8713L90.8716 84.4858Z" fill="#EEF6FF"/>
<path d="M66.9814 107.486C69.2323 107.486 71.0569 105.579 71.0569 103.227C71.0569 100.876 69.2323 98.969 66.9814 98.969C64.7306 98.969 62.9059 100.876 62.9059 103.227C62.9059 105.579 64.7306 107.486 66.9814 107.486Z" fill="#445EA0"/>
<path d="M121.981 59.8089C121.981 60.6508 121.322 61.3395 120.516 61.3395H74.093C73.2873 61.3395 72.6281 60.6508 72.6281 59.8089V37.5483C72.6281 36.7065 73.2873 36.0177 74.093 36.0177H120.516C121.322 36.0177 121.981 36.7065 121.981 37.5483V59.8089Z" fill="#FFAF10"/>
<path d="M78.4415 59.8089V37.5483C78.4415 36.7065 79.1007 36.0177 79.9063 36.0177H74.0933C73.2876 36.0177 72.6284 36.7065 72.6284 37.5483V59.8089C72.6284 60.6508 73.2876 61.3395 74.0933 61.3395H79.9063C79.1007 61.3395 78.4415 60.6508 78.4415 59.8089Z" fill="#FF9518"/>
<path d="M87.6756 70.1392H75.0451C73.8316 70.1392 72.8478 69.1115 72.8478 67.8433C72.8478 66.575 73.8316 65.5474 75.0451 65.5474H87.6756C88.889 65.5474 89.8728 66.575 89.8728 67.8433C89.8728 69.1115 88.889 70.1392 87.6756 70.1392Z" fill="#C3DDF4"/>
<path d="M87.6756 77.1172H75.0451C73.8316 77.1172 72.8478 76.0896 72.8478 74.8213C72.8478 73.553 73.8316 72.5254 75.0451 72.5254H87.6756C88.889 72.5254 89.8728 73.553 89.8728 74.8213C89.8728 76.0896 88.889 77.1172 87.6756 77.1172Z" fill="#C3DDF4"/>
<path d="M102.914 70.1392H93.5215C92.308 70.1392 91.3242 69.1115 91.3242 67.8433C91.3242 66.575 92.308 65.5474 93.5215 65.5474H102.914C104.128 65.5474 105.111 66.575 105.111 67.8433C105.111 69.1115 104.128 70.1392 102.914 70.1392Z" fill="#C3DDF4"/>
<path d="M102.914 77.1172H93.5215C92.308 77.1172 91.3242 76.0896 91.3242 74.8213C91.3242 73.553 92.308 72.5254 93.5215 72.5254H102.914C104.128 72.5254 105.111 73.553 105.111 74.8213C105.111 76.0896 104.128 77.1172 102.914 77.1172Z" fill="#C3DDF4"/>
<path d="M120.636 70.1392H108.673C107.459 70.1392 106.475 69.1115 106.475 67.8433C106.475 66.575 107.459 65.5474 108.673 65.5474H120.636C121.85 65.5474 122.834 66.575 122.834 67.8433C122.834 69.1115 121.85 70.1392 120.636 70.1392Z" fill="#C3DDF4"/>
<path d="M120.636 77.1172H108.673C107.459 77.1172 106.475 76.0896 106.475 74.8213C106.475 73.553 107.459 72.5254 108.673 72.5254H120.636C121.85 72.5254 122.834 73.553 122.834 74.8213C122.834 76.0896 121.85 77.1172 120.636 77.1172Z" fill="#C3DDF4"/>
<path d="M105.283 30.638C105.283 31.4798 104.624 32.1686 103.818 32.1686H100.596C99.7899 32.1686 99.1307 31.4798 99.1307 30.638V27.271C99.1307 26.4291 99.7899 25.7404 100.596 25.7404H103.818C104.624 25.7404 105.283 26.4291 105.283 27.271V30.638Z" fill="#EF8318"/>
<path d="M113.485 30.638C113.485 31.4798 112.826 32.1686 112.02 32.1686H108.798C107.992 32.1686 107.333 31.4798 107.333 30.638V27.271C107.333 26.4291 107.992 25.7404 108.798 25.7404H112.02C112.826 25.7404 113.485 26.4291 113.485 27.271V30.638Z" fill="#EF8318"/>
<path d="M121.688 30.638C121.688 31.4798 121.029 32.1686 120.223 32.1686H117.001C116.195 32.1686 115.536 31.4798 115.536 30.638V27.271C115.536 26.4291 116.195 25.7404 117.001 25.7404H120.223C121.029 25.7404 121.688 26.4291 121.688 27.271V30.638Z" fill="#EF8318"/>
<path d="M55.9272 75.3077H53.2905C52.077 75.3077 51.0932 74.28 51.0932 73.0117C51.0932 71.7435 52.077 70.7158 53.2905 70.7158H55.9272C57.1407 70.7158 58.1245 71.7435 58.1245 73.0117C58.1245 74.28 57.1407 75.3077 55.9272 75.3077Z" fill="#69CDFF"/>
<path d="M45.9662 75.3077H43.3295C42.1161 75.3077 41.1323 74.28 41.1323 73.0117C41.1323 71.7435 42.1161 70.7158 43.3295 70.7158H45.9662C47.1797 70.7158 48.1635 71.7435 48.1635 73.0117C48.1635 74.28 47.1797 75.3077 45.9662 75.3077Z" fill="#69CDFF"/>
<path d="M36.005 75.3077H33.3683C32.1548 75.3077 31.171 74.28 31.171 73.0117C31.171 71.7435 32.1548 70.7158 33.3683 70.7158H36.005C37.2185 70.7158 38.2023 71.7435 38.2023 73.0117C38.2026 74.28 37.2188 75.3077 36.005 75.3077Z" fill="#69CDFF"/>
<path d="M26.0441 75.3077H23.4073C22.1939 75.3077 21.2101 74.28 21.2101 73.0117C21.2101 71.7435 22.1939 70.7158 23.4073 70.7158H26.0441C27.2575 70.7158 28.2413 71.7435 28.2413 73.0117C28.2413 74.28 27.2578 75.3077 26.0441 75.3077Z" fill="#69CDFF"/>
<path d="M64.4965 65.8489C63.283 65.8489 62.2993 64.8212 62.2993 63.553V60.7979C62.2993 59.5299 63.283 58.502 64.4965 58.502C65.71 58.502 66.6938 59.5299 66.6938 60.7979V63.553C66.6938 64.8212 65.71 65.8489 64.4965 65.8489Z" fill="#69CDFF"/>
<path d="M64.4965 55.4407C63.283 55.4407 62.2993 54.413 62.2993 53.1448V50.3897C62.2993 49.1217 63.283 48.0938 64.4965 48.0938C65.71 48.0938 66.6938 49.1217 66.6938 50.3897V53.1448C66.6938 54.413 65.71 55.4407 64.4965 55.4407Z" fill="#69CDFF"/>
<path d="M64.4965 45.0325C63.283 45.0325 62.2993 44.0048 62.2993 42.7366V39.9815C62.2993 38.7135 63.283 37.6855 64.4965 37.6855C65.71 37.6855 66.6938 38.7135 66.6938 39.9815V42.7366C66.6938 44.0048 65.71 45.0325 64.4965 45.0325Z" fill="#69CDFF"/>
<path d="M14.6915 65.8489C13.4781 65.8489 12.4943 64.8212 12.4943 63.553V60.7979C12.4943 59.5299 13.4781 58.502 14.6915 58.502C15.905 58.502 16.8888 59.5299 16.8888 60.7979V63.553C16.8888 64.8212 15.9053 65.8489 14.6915 65.8489Z" fill="#69CDFF"/>
<path d="M14.6915 55.4407C13.4781 55.4407 12.4943 54.413 12.4943 53.1448V50.3897C12.4943 49.1217 13.4781 48.0938 14.6915 48.0938C15.905 48.0938 16.8888 49.1217 16.8888 50.3897V53.1448C16.8888 54.413 15.9053 55.4407 14.6915 55.4407Z" fill="#69CDFF"/>
<path d="M14.6915 45.0325C13.4781 45.0325 12.4943 44.0048 12.4943 42.7366V39.9815C12.4943 38.7135 13.4781 37.6855 14.6915 37.6855C15.905 37.6855 16.8888 38.7135 16.8888 39.9815V42.7366C16.8888 44.0048 15.9053 45.0325 14.6915 45.0325Z" fill="#69CDFF"/>
<path d="M55.9272 33.675H53.2905C52.077 33.675 51.0932 32.6473 51.0932 31.379C51.0932 30.1108 52.077 29.0831 53.2905 29.0831H55.9272C57.1407 29.0831 58.1245 30.1108 58.1245 31.379C58.1245 32.6473 57.1407 33.675 55.9272 33.675Z" fill="#69CDFF"/>
<path d="M45.9662 33.675H43.3295C42.1161 33.675 41.1323 32.6473 41.1323 31.379C41.1323 30.1108 42.1161 29.0831 43.3295 29.0831H45.9662C47.1797 29.0831 48.1635 30.1108 48.1635 31.379C48.1635 32.6473 47.1797 33.675 45.9662 33.675Z" fill="#69CDFF"/>
<path d="M36.005 33.675H33.3683C32.1548 33.675 31.171 32.6473 31.171 31.379C31.171 30.1108 32.1548 29.0831 33.3683 29.0831H36.005C37.2185 29.0831 38.2023 30.1108 38.2023 31.379C38.2023 32.6473 37.2188 33.675 36.005 33.675Z" fill="#69CDFF"/>
<path d="M26.0441 33.675H23.4073C22.1939 33.675 21.2101 32.6473 21.2101 31.379C21.2101 30.1108 22.1939 29.0831 23.4073 29.0831H26.0441C27.2575 29.0831 28.2413 30.1108 28.2413 31.379C28.2413 32.6473 27.2578 33.675 26.0441 33.675Z" fill="#69CDFF"/>
<path d="M58.6371 65.3587C58.6371 66.2006 57.9779 66.8893 57.1722 66.8893H22.016C21.2103 66.8893 20.5511 66.2006 20.5511 65.3587V39.0322C20.5511 38.1904 21.2103 37.5016 22.016 37.5016H57.1722C57.9779 37.5016 58.6371 38.1904 58.6371 39.0322V65.3587Z" fill="#5DC1D8"/>
<path d="M26.3643 65.3587V39.0322C26.3643 38.1904 27.0235 37.5016 27.8291 37.5016H22.0157C21.2101 37.5016 20.5509 38.1904 20.5509 39.0322V65.3587C20.5509 66.2006 21.2101 66.8893 22.0157 66.8893H27.8291C27.0235 66.8893 26.3643 66.2006 26.3643 65.3587Z" fill="#28A5A5"/>
<path d="M68.5972 33.6761C68.5972 34.5179 67.938 35.2067 67.1323 35.2067H60.98C60.1743 35.2067 59.5151 34.5179 59.5151 33.6761V27.2475C59.5151 26.4057 60.1743 25.7169 60.98 25.7169H67.1323C67.938 25.7169 68.5972 26.4057 68.5972 27.2475V33.6761Z" fill="#52BBEF"/>
<path d="M19.9644 34.2884C19.9644 35.1302 19.3052 35.819 18.4995 35.819H12.3472C11.5415 35.819 10.8823 35.1302 10.8823 34.2884V27.8598C10.8823 27.018 11.5415 26.3292 12.3472 26.3292H18.4995C19.3052 26.3292 19.9644 27.018 19.9644 27.8598V34.2884Z" fill="#52BBEF"/>
<path d="M68.5972 76.4946C68.5972 77.3364 67.938 78.0252 67.1323 78.0252H60.98C60.1743 78.0252 59.5151 77.3364 59.5151 76.4946V70.066C59.5151 69.2242 60.1743 68.5354 60.98 68.5354H67.1323C67.938 68.5354 68.5972 69.2242 68.5972 70.066V76.4946Z" fill="#52BBEF"/>
<path d="M19.9644 76.4946C19.9644 77.3364 19.3052 78.0252 18.4995 78.0252H12.3472C11.5415 78.0252 10.8823 77.3364 10.8823 76.4946V70.066C10.8823 69.2242 11.5415 68.5354 12.3472 68.5354H18.4995C19.3052 68.5354 19.9644 69.2242 19.9644 70.066V76.4946Z" fill="#52BBEF"/>
<path d="M62.7442 33.6761V27.2475C62.7442 26.4057 63.4034 25.7169 64.2091 25.7169H60.98C60.1743 25.7169 59.5151 26.4057 59.5151 27.2475V33.6761C59.5151 34.5179 60.1743 35.2067 60.98 35.2067H64.2091C63.4034 35.2067 62.7442 34.5179 62.7442 33.6761Z" fill="#1E99D6"/>
<path d="M14.1114 34.2884V27.8598C14.1114 27.018 14.7706 26.3292 15.5763 26.3292H12.3472C11.5415 26.3292 10.8823 27.018 10.8823 27.8598V34.2884C10.8823 35.1302 11.5415 35.819 12.3472 35.819H15.5763C14.7706 35.819 14.1114 35.1302 14.1114 34.2884Z" fill="#1E99D6"/>
<path d="M62.7442 76.4946V70.066C62.7442 69.2242 63.4034 68.5354 64.2091 68.5354H60.98C60.1743 68.5354 59.5151 69.2242 59.5151 70.066V76.4946C59.5151 77.3364 60.1743 78.0252 60.98 78.0252H64.2091C63.4034 78.0252 62.7442 77.3364 62.7442 76.4946Z" fill="#1E99D6"/>
<path d="M14.1114 76.4946V70.066C14.1114 69.2242 14.7706 68.5354 15.5763 68.5354H12.3472C11.5415 68.5354 10.8823 69.2242 10.8823 70.066V76.4946C10.8823 77.3364 11.5415 78.0252 12.3472 78.0252H15.5763C14.7706 78.0252 14.1114 77.3364 14.1114 76.4946Z" fill="#1E99D6"/>
<path d="M127.576 108.91C127.53 108.781 127.534 108.707 127.54 108.683C127.54 108.683 127.558 108.682 127.575 108.682C127.608 108.682 127.667 108.689 127.755 108.723L140.09 113.457V84.4861C140.09 83.6442 139.431 82.9554 138.625 82.9554H92.0432C91.2375 82.9554 90.5783 83.6442 90.5783 84.4861V119.629C90.5783 120.471 91.2375 121.16 92.0432 121.16H131.881L127.576 108.91Z" fill="#5DC1D8"/>
<path d="M96.3917 119.629V84.4857C96.3917 83.6439 97.0509 82.9551 97.8565 82.9551H92.0435C91.2378 82.9551 90.5786 83.6439 90.5786 84.4857V119.629C90.5786 120.47 91.2378 121.159 92.0435 121.159H97.8565C97.0509 121.159 96.3917 120.47 96.3917 119.629Z" fill="#28A5A5"/>
<path d="M127.856 108.435C127.373 108.25 127.123 108.511 127.3 109.016L135.025 130.99C135.202 131.494 135.645 131.596 136.008 131.216L140.109 126.931C140.472 126.551 141.067 126.551 141.432 126.931L146.157 131.869C146.52 132.249 147.115 132.249 147.479 131.869L149.727 129.52C150.091 129.14 150.091 128.518 149.727 128.138L145.002 123.2C144.638 122.821 144.638 122.199 145.002 121.819L149.102 117.534C149.466 117.154 149.369 116.692 148.886 116.506L127.856 108.435Z" fill="#293D7C"/>
</svg>
