<svg width="50" height="50" viewBox="0 0 50 50" fill="none" xmlns="http://www.w3.org/2000/svg">
<path d="M49.4135 17.9694L25.8784 0.293941C25.6181 0.0979477 25.3091 0 25.0001 0C24.6911 0 24.3821 0.0979477 24.1218 0.293941L0.586669 17.9694C0.402099 18.1075 0.255517 18.2853 0.155029 18.486L2.97543 23.5355L21.1581 39.3297H25.0001H28.8421L47.0248 23.5355L49.8452 18.486C49.7447 18.2853 49.598 18.1075 49.4135 17.9694V17.9694Z" fill="#FABE2C"/>
<path d="M47.0247 23.5355L49.8451 18.486C49.7446 18.2853 49.5979 18.1075 49.4134 17.9694L25.8783 0.293941C25.618 0.0979477 25.309 0 25 0V39.3298H28.842L47.0247 23.5355Z" fill="#FF9100"/>
<path d="M39.6484 5.95752H25H10.3516C9.54189 5.95752 8.88672 6.61269 8.88672 7.42234V41.1132H25H41.1132V7.42234C41.1132 6.61269 40.458 5.95752 39.6484 5.95752V5.95752Z" fill="#EDF5FF"/>
<path d="M41.1132 7.42234C41.1132 6.61269 40.4581 5.95752 39.6484 5.95752H25V41.1132H41.1132V7.42234Z" fill="#D5E8FE"/>
<path d="M49.8451 18.4858L25.9124 36.3999C25.6454 36.6123 25.3226 36.7188 25 36.7188C24.6773 36.7188 24.3547 36.6124 24.0877 36.3999L0.154883 18.4858C0.0543944 18.6866 0 18.9105 0 19.1408V48.5349C0 49.3445 0.655174 49.9997 1.46484 49.9997H24.9999H48.5351C49.3447 49.9997 49.9999 49.3445 49.9999 48.5349V19.1408C50 18.9105 49.9456 18.6866 49.8451 18.4858V18.4858Z" fill="#FFDE46"/>
<path d="M50 48.5349V19.1408C50 18.9105 49.9456 18.6866 49.8451 18.4858L25.9123 36.3999C25.6453 36.6123 25.3226 36.7188 25 36.7188V49.9998H48.5351C49.3448 49.9997 50 49.3445 50 48.5349Z" fill="#FABE2C"/>
<path d="M9.37606 44.0432C8.92977 44.0432 8.49061 43.8416 8.20301 43.4567C7.71669 42.8101 7.84823 41.8918 8.49628 41.4068L15.3327 36.28C15.9764 35.7922 16.8963 35.9238 17.3826 36.5732C17.8689 37.2198 17.7374 38.1381 17.0893 38.6231L10.2529 43.75C9.98983 43.9474 9.68221 44.0432 9.37606 44.0432V44.0432Z" fill="#FABE2C"/>
<path d="M40.6241 44.0429C40.3179 44.0429 40.0104 43.9471 39.7472 43.7497L32.9108 38.6228C32.2628 38.1378 32.1312 37.2195 32.6176 36.5729C33.1025 35.9249 34.0209 35.7962 34.6675 36.2797L41.5039 41.4065C42.1519 41.8915 42.2835 42.8098 41.7971 43.4564C41.5095 43.8413 41.0704 44.0429 40.6241 44.0429V44.0429Z" fill="#FF9100"/>
<path d="M32.3242 16.2114C32.3242 17.0318 31.6798 17.6762 30.8593 17.6762H19.1406C18.3202 17.6762 17.6758 17.0318 17.6758 16.2114C17.6758 15.391 18.3202 14.7466 19.1406 14.7466H30.8593C31.6798 14.7466 32.3242 15.391 32.3242 16.2114Z" fill="#D5E8FE"/>
<path d="M32.3242 22.0708C32.3242 22.8912 31.6798 23.5356 30.8593 23.5356H19.1406C18.3202 23.5356 17.6758 22.8912 17.6758 22.0708C17.6758 21.2504 18.3202 20.606 19.1406 20.606H30.8593C31.6798 20.606 32.3242 21.2504 32.3242 22.0708Z" fill="#D5E8FE"/>
<path d="M32.3242 22.0708C32.3242 22.8912 31.6798 23.5356 30.8594 23.5356H25V20.606H30.8594C31.6798 20.606 32.3242 21.2504 32.3242 22.0708Z" fill="#B5DBFF"/>
<path d="M30.8594 17.6762H25V14.7466H30.8594C31.6798 14.7466 32.3242 15.391 32.3242 16.2114C32.3242 17.0318 31.6798 17.6762 30.8594 17.6762Z" fill="#B5DBFF"/>
</svg>
