<svg width="150" height="151" viewBox="0 0 150 151" fill="none" xmlns="http://www.w3.org/2000/svg">
<path d="M145.563 58.2151C128.911 29.0811 83.7457 39.4576 74.5204 25.2855C69.7964 18.0289 64.5121 9.61783 56.847 5.24387C49.54 1.0741 41.0676 -0.41379 33.6811 0.138713C7.30484 2.11139 -3.87902 26.2216 1.1896 52.6984C7.95127 88.0168 38.5963 124.094 75.0028 124.347C94.0436 124.479 112.222 117.525 126.482 107.695C126.589 107.621 126.695 107.548 126.802 107.474C141.047 97.5668 158.277 80.459 145.563 58.2151" fill="#73CD91"/>
<path d="M75.5362 124.349C75.3596 124.349 75.1795 124.348 75.0029 124.347C64.3503 124.273 54.1907 121.132 44.9787 115.84C45.1304 115.701 45.2766 115.557 45.417 115.406C45.4888 115.329 45.486 115.207 45.4105 115.134C45.374 115.098 45.3272 115.081 45.2807 115.081C45.2308 115.081 45.1813 115.101 45.1441 115.14C44.9815 115.315 44.8103 115.482 44.6316 115.639C42.05 114.137 39.5465 112.468 37.1254 110.649H47.1334C47.1183 110.823 47.0975 110.997 47.0712 111.167C47.0548 111.272 47.1248 111.371 47.2277 111.387C47.2379 111.389 47.2478 111.39 47.2574 111.39C47.3486 111.39 47.4285 111.322 47.4432 111.227C47.4729 111.037 47.4955 110.844 47.5115 110.649H58.9697V110.457V110.649C61.5473 110.649 63.6367 108.515 63.6367 105.881V102.62H73.3672C73.1913 103.702 73.0471 104.619 72.9436 105.254C72.3857 108.676 71.395 111.757 71.8999 112.935C72.4011 114.109 79.6101 119.78 83.7557 121.243C85.6405 121.91 89.7096 122.185 93.5864 122.286C87.7305 123.614 81.681 124.349 75.5362 124.349V124.349ZM46.8734 112.491C46.7972 112.491 46.7255 112.539 46.6968 112.616C46.5232 113.088 46.3042 113.537 46.0453 113.958C45.9899 114.048 46.0163 114.167 46.1044 114.223C46.1358 114.243 46.1703 114.253 46.2045 114.253C46.2673 114.253 46.3285 114.221 46.3644 114.163C46.6366 113.72 46.8672 113.248 47.0497 112.751C47.0862 112.652 47.037 112.541 46.9397 112.503C46.9178 112.495 46.8953 112.491 46.8734 112.491ZM116.45 113.765C117.481 112.636 118.44 111.375 119.27 109.97C119.27 109.97 118.305 106.739 116.683 102.62H129.095C133.386 102.62 136.866 99.0645 136.866 94.6808V47.9588C140.221 50.6951 143.184 54.0524 145.563 58.2152C148.683 63.6728 149.999 68.8216 150 73.6305C150.002 88.4207 137.552 99.9978 126.802 107.474C126.695 107.548 126.589 107.621 126.482 107.695C123.319 109.875 119.965 111.913 116.45 113.765ZM106.826 113.072C106.8 113.072 106.789 113.037 106.789 112.973C106.789 112.506 107.398 110.504 107.399 109.265C107.399 108.907 107.348 108.613 107.218 108.438C106.668 107.692 105.202 107.631 104.732 107.631C104.638 107.631 104.584 107.633 104.584 107.633L104.754 106.559C104.767 106.488 105.175 104.353 105.505 102.62H107.795C109.021 104.885 110.629 107.995 111.059 109.477C111.059 109.477 106.841 112.927 106.844 113.062C106.844 113.064 106.845 113.066 106.849 113.066C106.84 113.07 106.833 113.072 106.826 113.072V113.072ZM80.4768 110.563L79.1803 109.397L81.8781 102.62H82.7411L83.8196 107.498C83.8196 107.498 83.4933 107.473 83.0482 107.473C82.3298 107.473 81.3011 107.538 80.8311 107.876C80.4631 108.142 80.3682 108.778 80.3682 109.366C80.3682 109.993 80.4768 110.563 80.4768 110.563V110.563ZM13.1345 83.5347C10.7548 79.5457 8.65189 75.4007 6.86194 71.1737C6.89077 71.1919 6.92479 71.2023 6.96125 71.2023C7.06534 71.2023 7.14965 71.1161 7.14965 71.01V69.4701C7.14965 69.3637 7.06534 69.2775 6.96125 69.2775C6.85715 69.2775 6.77281 69.3637 6.77281 69.4701V70.9625C4.25598 64.9792 2.36316 58.827 1.18975 52.6985C0.395337 48.5483 0.000198364 44.4567 0.000198364 40.4991C0.000198364 19.2073 11.4392 1.80224 33.6812 0.138795C34.6613 0.0655 35.6592 0.0281573 36.6724 0.0281573C43.2942 0.0281573 50.5097 1.62738 56.8472 5.24396C64.0261 9.34079 69.1174 16.9792 73.6149 23.893H20.9052C16.7998 23.8933 13.4364 27.1511 13.1576 31.2748C13.1423 31.4601 13.1345 31.6462 13.1345 31.8357V60.258C12.6649 60.3411 12.2099 60.4674 11.7736 60.6336C11.6761 60.6706 11.6266 60.7815 11.6629 60.881C11.6912 60.9585 11.7629 61.0067 11.8394 61.0067C11.8613 61.0067 11.8835 61.0025 11.9052 60.9944C12.2999 60.8444 12.7109 60.7278 13.1345 60.6489V83.5347V83.5347ZM7.12243 66.2092C7.03531 66.2092 6.95698 66.2717 6.93829 66.3621C6.83379 66.8682 6.77708 67.392 6.77308 67.9285C6.77226 68.0346 6.85596 68.1215 6.96005 68.1225C6.96043 68.1225 6.96097 68.1225 6.96152 68.1225C7.06493 68.1225 7.14914 68.037 7.14993 67.9313C7.15368 67.4207 7.20773 66.9226 7.30701 66.4416C7.32849 66.3376 7.26335 66.2354 7.16154 66.2134C7.14846 66.2106 7.13537 66.2092 7.12243 66.2092V66.2092ZM8.31679 63.4051C8.25741 63.4051 8.1991 63.4334 8.1624 63.4868C7.86803 63.9154 7.61461 64.3754 7.40762 64.8609C7.36611 64.9587 7.40977 65.0721 7.50532 65.1143C7.52971 65.1251 7.5552 65.1304 7.58031 65.1304C7.65304 65.1304 7.72229 65.0871 7.75324 65.0145C7.94981 64.5531 8.19096 64.1158 8.47079 63.7081C8.53058 63.6212 8.51004 63.5011 8.42488 63.44C8.39194 63.4163 8.35416 63.4051 8.31679 63.4051V63.4051ZM10.4893 61.3005C10.4553 61.3005 10.4207 61.31 10.3898 61.3299C9.95167 61.6094 9.54305 61.933 9.17007 62.2942C9.09453 62.3675 9.09132 62.4893 9.16299 62.5665C9.19996 62.6062 9.24987 62.6265 9.29978 62.6265C9.34621 62.6265 9.39291 62.609 9.42936 62.5734C9.78421 62.23 10.1728 61.9222 10.5894 61.6562C10.6776 61.6 10.7046 61.4813 10.6495 61.3909C10.6137 61.3326 10.5522 61.3005 10.4893 61.3005Z" fill="#D9F1DD"/>
<path d="M16.3049 60.1424H14.7974C14.6933 60.1424 14.609 60.2286 14.609 60.3351C14.609 60.4415 14.6933 60.5274 14.7974 60.5274H16.3049C16.4088 60.5274 16.4931 60.4415 16.4931 60.3351C16.4931 60.2286 16.4088 60.1424 16.3049 60.1424ZM13.2661 60.2356C12.7498 60.3176 12.2504 60.452 11.7735 60.6335C11.6759 60.6705 11.6264 60.7815 11.6627 60.8809C11.699 60.9808 11.8075 61.0314 11.9051 60.9944C12.3584 60.822 12.8331 60.6939 13.3239 60.616C13.4268 60.6 13.4972 60.5015 13.4812 60.3965C13.4652 60.2914 13.369 60.2195 13.2661 60.2356ZM10.3896 61.3298C9.95153 61.6093 9.54291 61.9329 9.16992 62.2941C9.09439 62.3674 9.09118 62.4892 9.16285 62.5664C9.23439 62.6435 9.35368 62.6466 9.42921 62.5734C9.78406 62.2299 10.1727 61.9221 10.5893 61.6561C10.6775 61.5999 10.7044 61.4813 10.6493 61.3909C10.5941 61.3008 10.4778 61.2732 10.3896 61.3298V61.3298ZM8.16226 63.4867C7.86788 63.9153 7.61446 64.3754 7.40747 64.8609C7.36596 64.9586 7.40962 65.072 7.50517 65.1142C7.60056 65.1568 7.71159 65.1121 7.75309 65.0144C7.94967 64.553 8.19082 64.1157 8.47065 63.708C8.53043 63.6211 8.5099 63.5011 8.42473 63.44C8.33946 63.3789 8.22204 63.3998 8.16226 63.4867V63.4867ZM6.93814 66.362C6.83364 66.8681 6.77693 67.392 6.77293 67.9284C6.77211 68.0345 6.85581 68.1214 6.9599 68.1225C7.06396 68.1232 7.149 68.0377 7.14978 67.9312C7.15354 67.4206 7.20758 66.9225 7.30686 66.4416C7.32835 66.3376 7.2632 66.2353 7.1614 66.2133C7.05959 66.1917 6.95963 66.258 6.93814 66.362V66.362ZM6.77266 69.47V71.0099C6.77266 71.116 6.85701 71.2023 6.9611 71.2023C7.06519 71.2023 7.14951 71.116 7.14951 71.0099V69.47C7.14951 69.3636 7.06519 69.2774 6.9611 69.2774C6.85701 69.2774 6.77266 69.3636 6.77266 69.47ZM6.77266 72.5498V74.0901C6.77266 74.1962 6.85701 74.2824 6.9611 74.2824C7.06519 74.2824 7.14951 74.1962 7.14951 74.0901V72.5498C7.14951 72.4437 7.06519 72.3575 6.9611 72.3575C6.85701 72.3575 6.77266 72.4437 6.77266 72.5498ZM6.77266 75.63V77.1702C6.77266 77.2763 6.85701 77.3625 6.9611 77.3625C7.06519 77.3625 7.14951 77.2763 7.14951 77.1702V75.63C7.14951 75.5235 7.06519 75.4376 6.9611 75.4376C6.85701 75.4376 6.77266 75.5235 6.77266 75.63ZM6.77266 78.7101V80.25C6.77266 80.3564 6.85701 80.4426 6.9611 80.4426C7.06519 80.4426 7.14951 80.3564 7.14951 80.25V78.7101C7.14951 78.6036 7.06519 78.5174 6.9611 78.5174C6.85701 78.5174 6.77266 78.6036 6.77266 78.7101ZM6.77266 81.7902V83.3301C6.77266 83.4366 6.85701 83.5228 6.9611 83.5228C7.06519 83.5228 7.14951 83.4366 7.14951 83.3301V81.7902C7.14951 81.6838 7.06519 81.5976 6.9611 81.5976C6.85701 81.5976 6.77266 81.6838 6.77266 81.7902ZM6.77266 84.8703V86.4102C6.77266 86.5167 6.85701 86.6029 6.9611 86.6029C7.06519 86.6029 7.14951 86.5167 7.14951 86.4102V84.8703C7.14951 84.7639 7.06519 84.6777 6.9611 84.6777C6.85701 84.6777 6.77266 84.7639 6.77266 84.8703ZM6.77266 87.9505V89.4904C6.77266 89.5968 6.85701 89.6827 6.9611 89.6827C7.06519 89.6827 7.14951 89.5968 7.14951 89.4904V87.9505C7.14951 87.844 7.06519 87.7578 6.9611 87.7578C6.85701 87.7578 6.77266 87.844 6.77266 87.9505ZM6.77266 91.0303V92.5705C6.77266 92.6766 6.85701 92.7628 6.9611 92.7628C7.06519 92.7628 7.14951 92.6766 7.14951 92.5705V91.0303C7.14951 90.9241 7.06519 90.8379 6.9611 90.8379C6.85701 90.8379 6.77266 90.9241 6.77266 91.0303ZM6.77266 94.1104V95.6506C6.77266 95.7567 6.85701 95.8429 6.9611 95.8429C7.06519 95.8429 7.14951 95.7567 7.14951 95.6506V94.1104C7.14951 94.0043 7.06519 93.9181 6.9611 93.9181C6.85701 93.9181 6.77266 94.0043 6.77266 94.1104ZM6.77266 97.1905V98.7304C6.77266 98.8368 6.85701 98.9231 6.9611 98.9231C7.06519 98.9231 7.14951 98.8368 7.14951 98.7304V97.1905C7.14951 97.0841 7.06519 96.9978 6.9611 96.9978C6.85701 96.9978 6.77266 97.0841 6.77266 97.1905ZM6.77266 100.271V101.811C6.77266 101.917 6.85701 102.003 6.9611 102.003C7.06519 102.003 7.14951 101.917 7.14951 101.811V100.271C7.14951 100.164 7.06519 100.078 6.9611 100.078C6.85701 100.078 6.77266 100.164 6.77266 100.271ZM6.77266 103.351V104.891C6.77266 104.997 6.85701 105.083 6.9611 105.083C7.06519 105.083 7.14951 104.997 7.14951 104.891V103.351C7.14951 103.244 7.06519 103.158 6.9611 103.158C6.85701 103.158 6.77266 103.244 6.77266 103.351ZM6.77266 106.431V107.971C6.77266 108.077 6.85701 108.163 6.9611 108.163C7.06519 108.163 7.14951 108.077 7.14951 107.971V106.431C7.14951 106.324 7.06519 106.238 6.9611 106.238C6.85701 106.238 6.77266 106.324 6.77266 106.431V106.431ZM6.77266 109.511V109.992C6.77266 110.359 6.79736 110.72 6.84498 111.074C6.85926 111.179 6.9544 111.252 7.05744 111.238C7.16047 111.223 7.23266 111.126 7.21838 111.021C7.17301 110.684 7.14951 110.341 7.14951 109.992V109.511C7.14951 109.405 7.06519 109.318 6.9611 109.318C6.85701 109.318 6.77266 109.405 6.77266 109.511V109.511ZM7.20878 112.605C7.38171 113.105 7.60298 113.582 7.86668 114.031C7.92032 114.122 8.03603 114.151 8.12529 114.096C8.21443 114.041 8.24326 113.923 8.18962 113.832C7.93887 113.406 7.72856 112.952 7.56414 112.477C7.52957 112.376 7.42189 112.324 7.32381 112.359C7.22572 112.395 7.17421 112.505 7.20878 112.605V112.605ZM8.78986 115.293C9.13764 115.68 9.52316 116.032 9.94019 116.342C10.0244 116.405 10.1422 116.386 10.2035 116.299C10.2647 116.214 10.246 116.093 10.1618 116.031C9.7651 115.736 9.3985 115.401 9.06771 115.033C8.99736 114.954 8.87821 114.949 8.80148 115.021C8.72488 115.093 8.71966 115.214 8.78986 115.293V115.293ZM11.2721 117.136C11.7363 117.353 12.2252 117.523 12.7333 117.641C12.8348 117.665 12.9358 117.6 12.959 117.497C12.9823 117.393 12.9189 117.29 12.8175 117.266C12.3344 117.153 11.8697 116.991 11.4284 116.786C11.3338 116.742 11.2219 116.785 11.1789 116.881C11.1357 116.978 11.1775 117.092 11.2721 117.136ZM14.2635 117.837C14.3266 117.838 14.39 117.839 14.4535 117.839H15.7754C15.8795 117.839 15.9639 117.753 15.9639 117.646C15.9639 117.54 15.8795 117.454 15.7754 117.454H14.4535C14.3931 117.454 14.3328 117.453 14.2726 117.452C14.1686 117.449 14.0823 117.533 14.0796 117.64C14.0771 117.746 14.1594 117.834 14.2635 117.837V117.837ZM17.2829 117.839H18.7902C18.8942 117.839 18.9786 117.753 18.9786 117.646C18.9786 117.54 18.8942 117.454 18.7902 117.454H17.2829C17.1788 117.454 17.0943 117.54 17.0943 117.646C17.0943 117.753 17.1788 117.839 17.2829 117.839V117.839ZM20.2976 117.839H21.805C21.9091 117.839 21.9934 117.753 21.9934 117.646C21.9934 117.54 21.9091 117.454 21.805 117.454H20.2976C20.1935 117.454 20.1092 117.54 20.1092 117.646C20.1092 117.753 20.1935 117.839 20.2976 117.839ZM23.3125 117.839H24.8199C24.9239 117.839 25.0082 117.753 25.0082 117.646C25.0082 117.54 24.9239 117.454 24.8199 117.454H23.3125C23.2084 117.454 23.124 117.54 23.124 117.646C23.124 117.753 23.2084 117.839 23.3125 117.839ZM26.3272 117.839H27.8346C27.9387 117.839 28.023 117.753 28.023 117.646C28.023 117.54 27.9387 117.454 27.8346 117.454H26.3272C26.2232 117.454 26.1387 117.54 26.1387 117.646C26.1387 117.753 26.2232 117.839 26.3272 117.839ZM29.342 117.839H30.8495C30.9534 117.839 31.0379 117.753 31.0379 117.646C31.0379 117.54 30.9534 117.454 30.8495 117.454H29.342C29.2379 117.454 29.1536 117.54 29.1536 117.646C29.1536 117.753 29.2379 117.839 29.342 117.839ZM32.3569 117.839H33.8642C33.9683 117.839 34.0526 117.753 34.0526 117.646C34.0526 117.54 33.9683 117.454 33.8642 117.454H32.3569C32.2528 117.454 32.1683 117.54 32.1683 117.646C32.1683 117.753 32.2528 117.839 32.3569 117.839ZM35.3717 117.839H36.879C36.9832 117.839 37.0675 117.753 37.0675 117.646C37.0675 117.54 36.9832 117.454 36.879 117.454H35.3717C35.2675 117.454 35.1831 117.54 35.1831 117.646C35.1831 117.753 35.2675 117.839 35.3717 117.839ZM38.3866 117.839H39.8569H39.8948C39.9987 117.838 40.0827 117.752 40.0824 117.646C40.0817 117.539 39.997 117.453 39.8928 117.454H39.8569H38.3866C38.2824 117.454 38.198 117.54 38.198 117.646C38.198 117.753 38.2824 117.839 38.3866 117.839ZM41.4284 117.675C41.9388 117.566 42.4311 117.406 42.8991 117.199C42.9948 117.157 43.0385 117.044 42.9975 116.946C42.9562 116.849 42.8451 116.804 42.7498 116.846C42.3047 117.042 41.837 117.194 41.3515 117.298C41.2497 117.319 41.1841 117.421 41.2053 117.525C41.2265 117.63 41.3263 117.696 41.4284 117.675ZM44.2465 116.432C44.6698 116.131 45.0619 115.786 45.4169 115.406C45.4886 115.329 45.4859 115.207 45.4104 115.134C45.3352 115.06 45.216 115.063 45.1439 115.14C44.8064 115.502 44.4334 115.829 44.0309 116.116C43.9455 116.177 43.9247 116.297 43.9841 116.384C44.0436 116.472 44.1611 116.493 44.2465 116.432V116.432ZM46.3642 114.163C46.6365 113.72 46.8671 113.248 47.0495 112.751C47.0861 112.652 47.0369 112.541 46.9395 112.503C46.8422 112.466 46.7335 112.516 46.6966 112.616C46.5231 113.087 46.3041 113.537 46.0451 113.958C45.9898 114.048 46.0161 114.167 46.1043 114.223C46.1924 114.28 46.3089 114.253 46.3642 114.163ZM47.4431 111.227C47.5056 110.825 47.5377 110.412 47.5377 109.992C47.5377 109.886 47.4533 109.799 47.3495 109.799C47.2453 109.799 47.1609 109.886 47.1609 109.992C47.1609 110.392 47.1302 110.784 47.0711 111.167C47.0547 111.272 47.1247 111.371 47.2275 111.387C47.3303 111.404 47.427 111.332 47.4431 111.227" fill="#1D2A30"/>
<path d="M45.4548 20.7032V19.1633C45.4548 19.0572 45.3704 18.971 45.2662 18.971C45.1624 18.971 45.078 19.0572 45.078 19.1633V20.7032C45.078 20.8097 45.1624 20.8959 45.2662 20.8959C45.3704 20.8959 45.4548 20.8097 45.4548 20.7032ZM45.4548 17.6234V16.0832C45.4548 15.9771 45.3704 15.8909 45.2662 15.8909C45.1624 15.8909 45.078 15.9771 45.078 16.0832V17.6234C45.078 17.7295 45.1624 17.8157 45.2662 17.8157C45.3704 17.8157 45.4548 17.7295 45.4548 17.6234ZM45.4548 14.5433V13.0031C45.4548 12.897 45.3704 12.8108 45.2662 12.8108C45.1624 12.8108 45.078 12.897 45.078 13.0031V14.5433C45.078 14.6494 45.1624 14.7356 45.2662 14.7356C45.3704 14.7356 45.4548 14.6494 45.4548 14.5433ZM45.5426 11.5082C45.6403 11.0168 45.8163 10.5547 46.0568 10.1355C46.1094 10.0437 46.0793 9.92574 45.9895 9.87199C45.8996 9.81824 45.7841 9.84895 45.7315 9.94074C45.4705 10.3955 45.2792 10.8978 45.1733 11.4318C45.1525 11.5358 45.2184 11.6373 45.3206 11.6586C45.4224 11.6796 45.5218 11.6122 45.5426 11.5082V11.5082ZM46.9774 9.00571C47.3396 8.68566 47.7533 8.42494 48.2039 8.23821C48.3006 8.19842 48.347 8.08604 48.3077 7.98761C48.2688 7.88919 48.1588 7.84137 48.0625 7.88151C47.5729 8.08394 47.1237 8.36699 46.7308 8.71427C46.6522 8.78408 46.6433 8.90554 46.7117 8.98616C46.7796 9.06644 46.8985 9.07517 46.9774 9.00571V9.00571ZM49.6076 7.91816C49.6896 7.91362 49.7719 7.91117 49.855 7.91117H51.1046C51.2085 7.91117 51.2929 7.82496 51.2929 7.71886C51.2929 7.61241 51.2085 7.52621 51.1046 7.52621H49.855C49.7651 7.52621 49.6756 7.52865 49.5868 7.53388C49.4829 7.53947 49.4033 7.63056 49.4091 7.73666C49.415 7.84276 49.5038 7.92409 49.6076 7.91816V7.91816ZM52.6119 7.91117H54.1191C54.2233 7.91117 54.3077 7.82496 54.3077 7.71886C54.3077 7.61241 54.2233 7.52621 54.1191 7.52621H52.6119C52.5077 7.52621 52.4233 7.61241 52.4233 7.71886C52.4233 7.82496 52.5077 7.91117 52.6119 7.91117ZM55.6267 7.91117H57.134C57.2382 7.91117 57.3226 7.82496 57.3226 7.71886C57.3226 7.61241 57.2382 7.52621 57.134 7.52621H55.6267C55.5225 7.52621 55.4382 7.61241 55.4382 7.71886C55.4382 7.82496 55.5225 7.91117 55.6267 7.91117ZM58.6416 7.91117H60.1489C60.253 7.91117 60.3374 7.82496 60.3374 7.71886C60.3374 7.61241 60.253 7.52621 60.1489 7.52621H58.6416C58.5374 7.52621 58.453 7.61241 58.453 7.71886C58.453 7.82496 58.5374 7.91117 58.6416 7.91117ZM61.6565 7.91117H63.1637C63.2679 7.91117 63.3523 7.82496 63.3523 7.71886C63.3523 7.61241 63.2679 7.52621 63.1637 7.52621H61.6565C61.5523 7.52621 61.4679 7.61241 61.4679 7.71886C61.4679 7.82496 61.5523 7.91117 61.6565 7.91117ZM64.671 7.91117H66.1786C66.2824 7.91117 66.3668 7.82496 66.3668 7.71886C66.3668 7.61241 66.2824 7.52621 66.1786 7.52621H64.671C64.5671 7.52621 64.4827 7.61241 64.4827 7.71886C64.4827 7.82496 64.5671 7.91117 64.671 7.91117ZM67.6858 7.91117H69.1934C69.2973 7.91117 69.3816 7.82496 69.3816 7.71886C69.3816 7.61241 69.2973 7.52621 69.1934 7.52621H67.6858C67.582 7.52621 67.4976 7.61241 67.4976 7.71886C67.4976 7.82496 67.582 7.91117 67.6858 7.91117ZM70.7007 7.91117H72.2083C72.3121 7.91117 72.3965 7.82496 72.3965 7.71886C72.3965 7.61241 72.3121 7.52621 72.2083 7.52621H70.7007C70.5965 7.52621 70.5124 7.61241 70.5124 7.71886C70.5124 7.82496 70.5965 7.91117 70.7007 7.91117ZM73.7155 7.91117H75.2228C75.327 7.91117 75.4114 7.82496 75.4114 7.71886C75.4114 7.61241 75.327 7.52621 75.2228 7.52621H73.7155C73.6113 7.52621 73.5269 7.61241 73.5269 7.71886C73.5269 7.82496 73.6113 7.91117 73.7155 7.91117ZM76.7304 7.91117H78.2376C78.3418 7.91117 78.4262 7.82496 78.4262 7.71886C78.4262 7.61241 78.3418 7.52621 78.2376 7.52621H76.7304C76.6262 7.52621 76.5418 7.61241 76.5418 7.71886C76.5418 7.82496 76.6262 7.91117 76.7304 7.91117ZM79.7452 7.91117H81.2525C81.3567 7.91117 81.4411 7.82496 81.4411 7.71886C81.4411 7.61241 81.3567 7.52621 81.2525 7.52621H79.7452C79.641 7.52621 79.5566 7.61241 79.5566 7.71886C79.5566 7.82496 79.641 7.91117 79.7452 7.91117ZM82.7597 7.91117H82.8906C83.3436 7.91117 83.7802 7.98098 84.1908 8.11047C84.2902 8.14188 84.3958 8.08499 84.4265 7.98342C84.4573 7.88185 84.4016 7.77401 84.3022 7.7426C83.8557 7.60194 83.3815 7.52621 82.8906 7.52621H82.7597C82.6559 7.52621 82.5715 7.61241 82.5715 7.71886C82.5715 7.82496 82.6559 7.91117 82.7597 7.91117V7.91117ZM85.477 8.76907C85.8672 9.05911 86.2088 9.41337 86.4872 9.81614C86.5473 9.9027 86.6649 9.92364 86.7499 9.86221C86.835 9.80079 86.8552 9.68072 86.795 9.59382C86.4927 9.15684 86.122 8.77256 85.6988 8.45775C85.6144 8.39527 85.4965 8.41447 85.4354 8.50033C85.3742 8.58619 85.3927 8.7066 85.477 8.76907V8.76907ZM87.1138 11.1389C87.2289 11.5407 87.2911 11.9661 87.2911 12.4066C87.2911 12.513 87.3754 12.5992 87.4793 12.5992C87.5835 12.5992 87.6679 12.513 87.6679 12.4066C87.6679 11.9291 87.6006 11.4674 87.4752 11.0307C87.4458 10.9288 87.3413 10.8702 87.2415 10.9002C87.1414 10.9299 87.0844 11.037 87.1138 11.1389" fill="#1D2A30"/>
<path d="M140.429 140.687C140.429 145.846 111.135 150.028 75 150.028C38.8645 150.028 9.57105 145.846 9.57105 140.687C9.57105 135.528 38.8645 131.346 75 131.346C111.135 131.346 140.429 135.528 140.429 140.687" fill="#73CD91"/>
<path d="M75 150.028C38.8645 150.028 9.57105 145.846 9.57105 140.687C9.57105 135.528 38.8645 131.346 75 131.346C111.135 131.346 140.429 135.528 140.429 140.687C140.429 145.846 111.135 150.028 75 150.028Z" fill="#BDE7C5"/>
<path d="M136.677 31.8356V94.6807C136.677 98.9583 133.281 102.427 129.095 102.427H20.9051C16.7181 102.427 13.3227 98.9583 13.3227 94.6807V31.8356C13.3227 31.6506 13.3304 31.4698 13.3455 31.289C13.6168 27.2655 16.8991 24.0855 20.9051 24.0855H129.095C133.101 24.0855 136.383 27.2655 136.654 31.289C136.669 31.4698 136.677 31.6506 136.677 31.8356Z" fill="white"/>
<path d="M136.677 31.8356H136.489V94.6806C136.489 96.7668 135.661 98.6539 134.323 100.022C132.984 101.389 131.137 102.235 129.095 102.235H20.9051C18.863 102.235 17.0157 101.389 15.6771 100.022C14.3386 98.6543 13.5112 96.7668 13.5111 94.6806V31.8356C13.5111 31.6562 13.5186 31.4806 13.5331 31.305L13.5334 31.3023C13.7979 27.3792 16.9989 24.2775 20.9051 24.2778H129.095C133.001 24.2775 136.202 27.3792 136.466 31.3023L136.467 31.305C136.482 31.4806 136.489 31.6562 136.489 31.8356H136.677H136.865C136.865 31.6453 136.858 31.4586 136.842 31.2726L136.654 31.289L136.843 31.2757C136.564 27.1513 133.201 23.8932 129.095 23.8928H20.9051C16.7993 23.8932 13.4357 27.1513 13.1575 31.2757L13.3455 31.289L13.1576 31.2726C13.1422 31.4586 13.1344 31.6453 13.1344 31.8356V94.6806C13.1345 99.0644 16.614 102.62 20.9051 102.62H129.095C133.386 102.62 136.865 99.0644 136.865 94.6806V31.8356H136.677" fill="#1D2A30"/>
<path d="M126.268 99.5052H24.1182C20.1938 99.5052 17.0123 96.2548 17.0123 92.2456V34.1922H133.374V92.2456C133.374 96.2548 130.193 99.5052 126.268 99.5052Z" fill="#1D2A30"/>
<path d="M126.267 99.3147H115.31C114.637 97.7821 113.895 96.2161 113.096 94.7125L115.981 92.6019L114.04 87.939C114.658 87.1652 115.182 86.3143 115.596 85.4096L120.544 85.1325L121.298 80.4929L116.7 78.6026C116.595 77.6131 116.372 76.6429 116.041 75.7075L119.35 71.9422L116.67 68.1152L112.106 70.0938C111.349 69.4739 110.524 68.9504 109.642 68.5309L109.374 63.4718L104.829 62.7057L102.968 67.3836C102.003 67.4992 101.057 67.7264 100.145 68.0611L99.3976 67.3777C99.3734 66.4563 99.6651 65.449 99.6651 65.449L99.0768 64.9188C101.12 64.114 102.832 62.1588 102.585 59.7847C102.484 58.806 101.78 58.1024 100.866 57.87C100.65 57.8152 100.438 57.7914 100.229 57.7914C99.2712 57.7914 98.3799 58.2961 97.4825 58.6416C97.0414 58.8116 96.6021 58.8793 96.1641 58.8793C94.6234 58.8797 93.0946 58.042 91.5272 57.87C91.2085 57.8351 90.8768 57.8138 90.5416 57.8138C89.0651 57.8138 87.5264 58.2225 86.7957 59.6479C86.7957 59.6479 83.703 60.0189 82.3488 62.6139C80.9939 65.2089 83.569 68.8014 83.569 68.8014C83.569 68.8014 83.7166 68.6188 83.9718 68.5309L83.9103 68.5975C83.9103 68.5975 83.1738 69.2628 83.4662 70.9433C83.5263 71.2875 83.6025 71.6218 83.6903 71.9366L81.6751 72.033C81.3027 71.3988 80.8569 70.8107 80.3523 70.2865L81.4431 66.688L78.4699 64.9478L75.9825 67.7208C75.2822 67.5456 74.5638 67.4538 73.8405 67.4419L72.1184 64.1067L68.8135 65.0253L68.9881 68.7919C68.3674 69.1727 67.7921 69.6278 67.2752 70.1423L63.7516 69.031L63.6365 69.2355V64.3688H66.3569L67.7022 58.2319C68.8631 57.8968 69.9785 57.4194 71.03 56.819L76.2268 60.1951L80.2703 56.0645L76.988 50.7551C77.5718 49.677 78.0357 48.5374 78.3637 47.3515L84.378 45.9808V40.1364L78.3637 38.7735C78.0357 37.5875 77.5759 36.4403 76.988 35.3625L77.5943 34.3866H133.185V92.2459C133.185 94.1973 132.412 95.9634 131.16 97.2436C129.907 98.5235 128.179 99.3147 126.267 99.3147ZM73.9266 99.3147H63.6365V81.8548L65.8256 81.7491C66.1932 82.3853 66.6353 82.9724 67.1436 83.498L66.0474 87.078L69.0205 88.8182L71.4953 86.0689C72.1977 86.249 72.9161 86.3408 73.6421 86.3454L75.3594 89.6827L76.5237 89.3592C75.5982 90.7102 74.643 95.2779 73.9266 99.3147ZM18.5761 96.473C18.0327 95.7295 17.6293 94.8734 17.4054 93.945L18.5761 95.2723V96.473ZM17.2025 90.9601V85.4239L18.0127 85.6585C18.152 86.2909 18.3406 86.9104 18.5761 87.5107V88.9965L17.2025 90.9601ZM78.6329 88.0706L78.5191 85.5468L78.4945 84.9957C79.1221 84.6177 79.7015 84.1636 80.2242 83.6436L83.745 84.7618L85.2 82.1634L85.4487 81.7239L82.7208 79.1858C82.8974 78.4683 82.9886 77.7308 82.9965 76.9905L86.2583 75.2384L86.0052 74.289C86.12 74.2925 86.1924 74.2929 86.1924 74.2929C86.1924 74.2929 87.0219 76.1298 87.769 77.2903L87.4076 79.5115L88.154 79.8193L88.2678 79.8661C88.2794 80.1115 88.29 80.3645 88.2989 80.6151C87.7338 80.7432 87.124 81.0367 86.7154 81.6719C86.71 81.6803 86.7045 81.6883 86.6994 81.6971C86.6983 81.6985 86.6973 81.7002 86.6963 81.7019C86.6881 81.7149 86.6802 81.7278 86.6724 81.741C86.3895 82.4893 86.3318 83.4544 86.3318 84.1186C86.3318 84.5786 86.3594 84.8945 86.3594 84.8945C86.3594 84.8945 86.2918 84.9213 86.1637 84.9678C85.2321 85.3227 81.1732 86.8825 78.6329 88.0706V88.0706ZM104.346 86.0598C102.492 86.0598 100.665 85.1772 99.5045 83.5193C97.5904 80.7934 98.2081 76.9975 100.877 75.0454C101.925 74.2772 103.136 73.9083 104.334 73.9083C106.188 73.9083 108.014 74.7909 109.175 76.4464C111.089 79.1764 110.471 82.9727 107.803 84.9248C106.754 85.6909 105.544 86.0598 104.346 86.0598V86.0598ZM73.7411 81.3997C71.7922 81.3997 70.0075 80.0751 69.4725 78.0648C68.8299 75.6523 70.2238 73.1666 72.5803 72.5125C72.9697 72.4043 73.3612 72.3527 73.7463 72.3527C75.6956 72.3527 77.4799 73.6772 78.0149 75.6876C78.6575 78.1 77.2636 80.5854 74.9071 81.2398C74.5176 81.348 74.1261 81.3997 73.7411 81.3997ZM17.2025 79.0584V34.3866H49.4467L50.0282 35.3315C49.4365 36.4057 48.9766 37.5491 48.6562 38.7386L42.6419 40.1057V45.9501L48.6562 47.3207C48.9592 48.4523 49.3862 49.5465 49.9318 50.5764H23.2432C20.6655 50.5764 18.5763 52.7107 18.5761 55.3444V70.6142L17.2212 71.8595L18.5761 74.3058V78.3356C18.5102 78.5084 18.448 78.6829 18.3896 78.8592L17.2025 79.0584V79.0584ZM63.6365 77.2554V73.5414L64.7748 74.5986C64.5985 75.3159 64.5087 76.0499 64.5056 76.7881L63.6365 77.2554V77.2554ZM63.5381 50.6085C59.4567 50.6085 56.1481 47.2282 56.1481 43.0585C56.1481 38.889 59.4567 35.5088 63.5381 35.5088C67.6192 35.5088 70.9282 38.889 70.9282 43.0585C70.9282 47.2282 67.6192 50.6085 63.5381 50.6085Z" fill="#45555C"/>
<path d="M136.654 31.2891H13.3454C13.6168 27.2655 16.8991 24.0856 20.9051 24.0856H129.095C133.101 24.0856 136.383 27.2655 136.654 31.2891Z" fill="#73CD91"/>
<path d="M136.654 31.289V31.0963H13.3454V31.289L13.5334 31.3023C13.7979 27.3793 16.9989 24.2775 20.9051 24.2778H129.095C133.001 24.2775 136.202 27.3793 136.466 31.3023L136.654 31.289V31.0963V31.289L136.843 31.2758C136.564 27.1513 133.201 23.8932 129.095 23.8929H20.9051C16.7993 23.8932 13.4357 27.1513 13.1575 31.2758L13.1436 31.4813H136.856L136.843 31.2758L136.654 31.289" fill="#1D2A30"/>
<path d="M28.4982 27.6871C28.4982 28.4448 27.8969 29.0591 27.1553 29.0591C26.4135 29.0591 25.8121 28.4448 25.8121 27.6871C25.8121 26.9293 26.4135 26.3151 27.1553 26.3151C27.8969 26.3151 28.4982 26.9293 28.4982 27.6871Z" fill="#1D2A30"/>
<path d="M34.1767 27.6871C34.1767 28.4448 33.5756 29.0591 32.8338 29.0591C32.092 29.0591 31.4908 28.4448 31.4908 27.6871C31.4908 26.9293 32.092 26.3151 32.8338 26.3151C33.5756 26.3151 34.1767 26.9293 34.1767 27.6871Z" fill="#1D2A30"/>
<path d="M39.8556 27.6871C39.8556 28.4448 39.2543 29.0591 38.5126 29.0591C37.7706 29.0591 37.1693 28.4448 37.1693 27.6871C37.1693 26.9293 37.7706 26.3151 38.5126 26.3151C39.2543 26.3151 39.8556 26.9293 39.8556 27.6871Z" fill="#1D2A30"/>
<path d="M133.374 34.1942H133.186V92.2458C133.186 94.1972 132.412 95.9633 131.16 97.2435C129.907 98.5234 128.179 99.3146 126.267 99.3146H24.1177C20.7574 99.315 17.9583 96.8627 17.3345 93.6179L17.3236 93.5603L17.2793 93.5149L17.146 93.651H17.3344V93.6357V93.6168L17.3309 93.5983C17.2466 93.1603 17.2025 92.7069 17.2025 92.2458V34.3866H133.374V34.1942H133.186H133.374V34.0016H16.8257V92.2458C16.8257 92.7317 16.872 93.2102 16.9611 93.6727L17.146 93.6357H16.9577V93.651V93.7309L17.0164 93.791L17.1497 93.6549L16.9649 93.6919C17.6226 97.1154 20.574 99.6992 24.1177 99.6996H126.267C130.297 99.6996 133.562 96.3601 133.562 92.2458V34.0016H133.374V34.1942" fill="#1D2A30"/>
<path d="M129.699 53.2796C127.762 53.2796 126.194 51.678 126.194 49.699C126.194 47.7242 127.762 46.1184 129.699 46.1184C131.636 46.1184 133.204 47.7242 133.204 49.699C133.204 51.678 131.636 53.2796 129.699 53.2796ZM133.264 43.1733C132.766 42.8885 132.235 42.6648 131.685 42.507L131.048 39.5927H128.334L127.701 42.507C127.147 42.6613 126.616 42.8885 126.119 43.1733L123.669 41.5717L121.751 43.5314L123.292 46.0339C123.009 46.5459 122.791 47.0887 122.64 47.6509L119.787 48.2977V51.07L122.64 51.7205C122.791 52.2902 123.009 52.8371 123.292 53.3491L121.725 55.8669L123.643 57.8267L126.107 56.225C126.605 56.5137 127.136 56.7371 127.69 56.8948L128.323 59.8057H131.037L131.673 56.8948C132.224 56.7371 132.755 56.5098 133.252 56.225L133.377 56.3057V43.1L133.264 43.1733" fill="#1D2A30"/>
<path d="M63.5381 50.6085C59.4567 50.6085 56.1481 47.2283 56.1481 43.0585C56.1481 38.889 59.4567 35.5088 63.5381 35.5088C67.6192 35.5088 70.9282 38.889 70.9282 43.0585C70.9282 47.2283 67.6192 50.6085 63.5381 50.6085V50.6085ZM84.378 45.9808V40.1365L78.3637 38.7735C78.0357 37.5875 77.5759 36.4403 76.988 35.3625L77.7153 34.1919H49.3272L50.0282 35.3315C49.4365 36.4057 48.9766 37.5491 48.6562 38.7386L42.6419 40.1057V45.9501L48.6562 47.3207C48.9766 48.5182 49.4365 49.6732 50.0282 50.7551L46.7229 56.0645L50.7705 60.1952L55.9632 56.8191C57.0185 57.4232 58.1377 57.8968 59.3023 58.2319L60.6364 64.3688H66.3569L67.7022 58.2319C68.8631 57.8968 69.9785 57.4194 71.03 56.8191L76.2268 60.1952L80.2703 56.0645L76.988 50.7551C77.5718 49.677 78.0357 48.5374 78.3637 47.3515L84.378 45.9808Z" fill="#1D2A30"/>
<path d="M34.383 78.8707C32.2125 76.4066 28.4967 76.2063 26.0848 78.424C23.6729 80.6416 23.477 84.438 25.6477 86.9021C27.8183 89.3658 31.534 89.5623 33.9458 87.3446C36.358 85.1273 36.5537 81.3345 34.383 78.8707V78.8707ZM46.4349 86.1126L46.6758 81.4772L41.973 80.122C41.7543 79.1709 41.4301 78.2432 41.0082 77.365L43.8495 73.2881L40.8046 69.8345L36.5462 72.2948C35.7321 71.7751 34.8654 71.3475 33.9534 71.0282L33.1394 66.1L28.6022 65.8535L27.2907 70.6739C26.3561 70.8854 25.4516 71.2166 24.5926 71.6519L20.6055 68.7487L17.2212 71.8595L19.6332 76.2139C19.113 77.0422 18.6985 77.9276 18.3896 78.8592L17.014 79.0902V85.3695L18.0127 85.6585C18.2238 86.6169 18.548 87.5446 18.9774 88.4228L17.014 91.2296L17.146 93.6358V93.6511L17.1497 93.655L19.1734 95.9494L23.4393 93.4895C24.2533 94.0246 25.1277 94.4556 26.0397 94.7715L26.816 99.5032V99.5074L26.8536 99.7035L31.3908 99.95L31.5115 99.5074V99.5032L32.7024 95.1296C33.6445 94.9142 34.5491 94.5869 35.4158 94.1516L39.395 97.051L42.7792 93.9436L40.3748 89.5854C40.8876 88.7578 41.302 87.8724 41.6037 86.9443L46.4349 86.1126" fill="#1D2A30"/>
<path d="M74.9071 81.2399C72.5458 81.8964 70.1131 80.4724 69.4725 78.0648C68.8299 75.6524 70.2238 73.1666 72.5803 72.5126C74.9416 71.856 77.3743 73.2801 78.0149 75.6876C78.6575 78.1001 77.2636 80.5855 74.9071 81.2399ZM82.7208 79.1859C82.8974 78.4683 82.9886 77.7308 82.9965 76.9905L86.2583 75.2384L85.3568 71.8571L81.6751 72.033C81.3027 71.3988 80.8569 70.8107 80.3523 70.2865L81.4431 66.6881L78.4699 64.9478L75.9825 67.7208C75.2822 67.5456 74.5638 67.4538 73.8405 67.4419L72.1184 64.1067L68.8135 65.0253L68.9881 68.792C68.3674 69.1727 67.7921 69.6279 67.2752 70.1423L63.7516 69.031L62.0462 72.0641L64.7748 74.5987C64.5985 75.3159 64.5087 76.0499 64.5056 76.7881L61.2376 78.5461L62.1388 81.9274L65.8256 81.7491C66.1932 82.3854 66.6353 82.9724 67.1436 83.498L66.0474 87.078L69.0205 88.8182L71.4953 86.069C72.1977 86.249 72.9161 86.3408 73.6421 86.3454L75.3594 89.6827L78.664 88.7641L78.5191 85.5468L78.4945 84.9957C79.1221 84.6177 79.7015 84.1636 80.2242 83.6436L83.745 84.7619L85.2 82.1634L85.4487 81.724L82.7208 79.1859" fill="#1D2A30"/>
<path d="M107.803 84.9248C105.131 86.8766 101.415 86.249 99.5045 83.5193C97.5904 80.7934 98.2081 76.9975 100.877 75.0454C103.548 73.0891 107.264 73.7208 109.175 76.4464C111.089 79.1764 110.471 82.9727 107.803 84.9248V84.9248ZM120.544 85.1325L121.298 80.4929L116.7 78.6026C116.595 77.6131 116.372 76.6429 116.041 75.7075L119.35 71.9422L116.67 68.1152L112.106 70.0938C111.349 69.4739 110.524 68.9504 109.642 68.5309L109.374 63.4718L104.829 62.7057L102.968 67.3836C102.003 67.4992 101.057 67.7264 100.145 68.0611L96.4484 64.6808L92.7062 67.4182L94.6473 72.0769C94.112 72.7621 93.6484 73.4936 93.2641 74.2712C93.2111 74.3791 93.1585 74.4869 93.1096 74.5948L88.1615 74.8761L87.4076 79.5115L88.154 79.8193L92.0052 81.4056C92.1111 82.3874 92.3294 83.3574 92.6648 84.2893L89.3559 88.066L92.0356 91.8896L96.599 89.9026C97.353 90.5301 98.1818 91.0579 99.0601 91.4774L99.3163 96.5134L103.858 97.2795L105.715 92.6361C106.683 92.5286 107.633 92.3011 108.545 91.9587L112.235 95.3428L115.981 92.6019L114.04 87.939C114.658 87.1652 115.182 86.3143 115.596 85.4096L120.544 85.1325" fill="#1D2A30"/>
<path d="M58.9696 110.457H23.2432C20.7696 110.457 18.7646 108.408 18.7646 105.881V55.3444C18.7646 52.8171 20.7696 50.7687 23.2432 50.7687H58.9696C61.4429 50.7687 63.4483 52.8171 63.4483 55.3444V105.881C63.4483 108.408 61.4429 110.457 58.9696 110.457" fill="#73CD91"/>
<path d="M58.9696 110.456V110.264H23.2432C22.0579 110.264 20.9865 109.774 20.2095 108.98C19.4329 108.186 18.9531 107.092 18.953 105.881V55.3444C18.9531 54.1332 19.4329 53.0387 20.2095 52.245C20.9865 51.4514 22.0579 50.9613 23.2432 50.9613H58.9696C60.155 50.9613 61.2263 51.4514 62.0032 52.245C62.7801 53.0387 63.2597 54.1332 63.2597 55.3444V105.881C63.2597 107.092 62.7801 108.186 62.0032 108.98C61.2263 109.774 60.155 110.264 58.9696 110.264V110.456V110.649C61.5471 110.649 63.6365 108.515 63.6365 105.881V55.3444C63.6365 52.7106 61.5471 50.5764 58.9696 50.5764H23.2432C20.6655 50.5764 18.5763 52.7106 18.5761 55.3444V105.881C18.5763 108.515 20.6655 110.649 23.2432 110.649H58.9696V110.456Z" fill="#1D2A30"/>
<path d="M58.9696 110.457V110.264H23.2432C22.0579 110.264 20.9865 109.774 20.2095 108.98C19.4329 108.186 18.9531 107.092 18.953 105.881V55.3444C18.9531 54.1333 19.4329 53.0388 20.2095 52.2451C20.9865 51.4514 22.0579 50.9614 23.2432 50.9614H58.9696C60.155 50.9614 61.2263 51.4514 62.0032 52.2451C62.7801 53.0388 63.2597 54.1333 63.2597 55.3444V105.881C63.2597 107.092 62.7801 108.186 62.0032 108.98C61.2263 109.774 60.155 110.264 58.9696 110.264V110.457" fill="#4EBE7B"/>
<path d="M58.9696 110.457V110.264C60.155 110.264 61.2263 109.774 62.0032 108.98C62.78 108.186 63.2597 107.092 63.2597 105.881V55.3444C63.2597 54.1333 62.78 53.0388 62.0032 52.2451C61.2263 51.4514 60.155 50.9614 58.9696 50.9614H23.2432C22.0579 50.9614 20.9865 51.4514 20.2095 52.2451C19.4329 53.0388 18.9531 54.1333 18.953 55.3444V105.881C18.9531 107.092 19.4329 108.186 20.2095 108.98C20.9865 109.774 22.0579 110.264 23.2432 110.264H58.9696V110.457H23.2432C20.7696 110.457 18.7646 108.408 18.7646 105.881V55.3444C18.7646 52.8171 20.7696 50.7687 23.2432 50.7687H58.9696C61.4429 50.7687 63.4483 52.8171 63.4483 55.3444V105.881C63.4483 108.408 61.4429 110.457 58.9696 110.457" fill="#182124"/>
<path d="M67.6079 59.8528V110.389C67.6079 112.919 65.6029 114.967 63.1271 114.967H27.4017C24.9296 114.967 22.9247 112.919 22.9247 110.389V59.8528C22.9247 57.3269 24.9296 55.2789 27.4017 55.2789H63.1271C65.6029 55.2789 67.6079 57.3269 67.6079 59.8528Z" fill="white"/>
<path d="M67.6079 59.8528H67.4193V110.389C67.4193 111.601 66.9393 112.696 66.1625 113.49C65.3856 114.284 64.3136 114.774 63.1271 114.774H27.4017C26.2171 114.774 25.1461 114.284 24.3694 113.49C23.5929 112.696 23.1132 111.601 23.1131 110.389V59.8528C23.1132 58.6424 23.5928 57.5482 24.3694 56.7545C25.146 55.9615 26.2171 55.4711 27.4017 55.4711H63.1271C64.3136 55.4711 65.3856 55.9615 66.1628 56.7549C66.9397 57.5482 67.4193 58.6424 67.4193 59.8528H67.6079H67.7961C67.7961 57.2205 65.7071 55.0862 63.1271 55.0862H27.4017C24.8254 55.0862 22.7363 57.2205 22.7362 59.8528V110.389C22.7363 113.025 24.8254 115.159 27.4017 115.159H63.1271C65.7071 115.159 67.7961 113.025 67.7961 110.389V59.8528H67.6079Z" fill="#1D2A30"/>
<path d="M67.6079 59.8528V62.5591H22.9247V59.8528C22.9247 57.3269 24.9296 55.2788 27.4017 55.2788H63.1271C65.6029 55.2788 67.6079 57.3269 67.6079 59.8528Z" fill="#73CD91"/>
<path d="M67.6079 59.8527H67.4193V62.3664H23.1131V59.8527C23.1132 58.6423 23.5928 57.5481 24.3694 56.7545C25.146 55.9615 26.2171 55.4711 27.4017 55.4711H63.1271C64.3136 55.4711 65.3856 55.9615 66.1628 56.7548C66.9397 57.5481 67.4193 58.6423 67.4193 59.8527H67.6079H67.7961C67.7961 57.2204 65.7071 55.0861 63.1271 55.0861H27.4017C24.8254 55.0861 22.7363 57.2204 22.7362 59.8527V62.7517H67.7961V59.8527H67.6079" fill="#1D2A30"/>
<path d="M38.1198 67.5776H27.1268V65.694H38.1198V67.5776Z" fill="#73CD91"/>
<path d="M38.1198 84.4666H27.1268V82.5829H38.1198V84.4666Z" fill="#73CD91"/>
<path d="M38.1198 99.7816H27.1268V97.8976H38.1198V99.7816Z" fill="#73CD91"/>
<path d="M58.3485 71.7397H27.1268V70.358H58.3485V71.7397Z" fill="#1D2A30"/>
<path d="M52.7188 74.349H27.1268V73.0025H52.7188V74.349Z" fill="#1D2A30"/>
<path d="M56.0702 76.9486H27.1268V75.6024H56.0702V76.9486Z" fill="#1D2A30"/>
<path d="M56.0702 79.5457H27.1268V78.1995H56.0702V79.5457" fill="#1D2A30"/>
<path d="M58.3485 87.0546H27.1268V85.6731H58.3485V87.0546Z" fill="#1D2A30"/>
<path d="M52.7188 89.6642H27.1268V88.3177H52.7188V89.6642Z" fill="#1D2A30"/>
<path d="M56.0702 92.2637H27.1268V90.9171H56.0702V92.2637Z" fill="#1D2A30"/>
<path d="M58.3485 103.873H27.1268V102.491H58.3485V103.873Z" fill="#1D2A30"/>
<path d="M52.7188 106.482H27.1268V105.136H52.7188V106.482Z" fill="#1D2A30"/>
<path d="M56.0702 109.082H27.1268V107.735H56.0702V109.082Z" fill="#1D2A30"/>
<path d="M117.964 20.2376V40.6625C117.964 43.677 115.575 46.118 112.625 46.118H66.5776C63.6304 46.118 61.2373 43.677 61.2373 40.6625V20.2376C61.2373 17.2231 63.6304 14.7779 66.5776 14.7779H112.625C115.575 14.7779 117.964 17.2231 117.964 20.2376" fill="white"/>
<path d="M117.964 20.2376H117.776V40.6624C117.776 42.1171 117.2 43.4316 116.268 44.3844C115.335 45.3369 114.049 45.9253 112.625 45.9253H66.5776C65.1554 45.9253 63.8685 45.3369 62.9355 44.3844C62.0025 43.4316 61.4258 42.1171 61.4258 40.6624V20.2376C61.4258 18.7829 62.0025 17.4674 62.9355 16.5135C63.8688 15.56 65.1554 14.9705 66.5776 14.9705H112.625C114.049 14.9705 115.335 15.56 116.268 16.5132C117.2 17.467 117.776 18.7825 117.776 20.2376H117.964H118.153C118.153 17.1166 115.68 14.5855 112.625 14.5855H66.5776C63.5262 14.5858 61.049 17.1163 61.049 20.2376V40.6624C61.049 43.7834 63.5262 46.3103 66.5776 46.3103H112.625C115.68 46.3103 118.153 43.783 118.153 40.6624V20.2376H117.964" fill="#1D1B19"/>
<path d="M117.964 20.2375V20.7031H61.2373V20.2375C61.2373 17.223 63.6304 14.7778 66.5776 14.7778H112.625C115.575 14.7778 117.964 17.223 117.964 20.2375" fill="#73CD91"/>
<path d="M117.964 20.2376H117.776V20.5109H61.4258V20.2376C61.4258 18.7829 62.0025 17.4674 62.9355 16.5135C63.8688 15.56 65.1554 14.9705 66.5776 14.9705H112.625C114.049 14.9705 115.335 15.56 116.268 16.5132C117.2 17.4671 117.776 18.7825 117.776 20.2376H117.964H118.153C118.153 17.1167 115.68 14.5855 112.625 14.5855H66.5776C63.5262 14.5859 61.049 17.1163 61.049 20.2376V20.8959H118.153V20.2376H117.964Z" fill="#1D2A30"/>
<path d="M69.5712 18.7166C69.2518 19.0429 68.7339 19.0429 68.4142 18.7166C68.0947 18.3902 68.0947 17.8611 68.4142 17.5351C68.7339 17.2088 69.2518 17.2088 69.5712 17.5351C69.8903 17.8611 69.8903 18.3902 69.5712 18.7166Z" fill="#1D2A30"/>
<path d="M73.3698 18.7166C73.0507 19.0429 72.5328 19.0429 72.2134 18.7166C71.894 18.3902 71.894 17.8611 72.2134 17.5351C72.5328 17.2088 73.0507 17.2088 73.3698 17.5351C73.6892 17.8611 73.6892 18.3902 73.3698 18.7166Z" fill="#1D2A30"/>
<path d="M77.1687 18.7166C76.8496 19.0429 76.3313 19.0429 76.0123 18.7166C75.6928 18.3902 75.6928 17.8611 76.0123 17.5351C76.3313 17.2088 76.8496 17.2088 77.1687 17.5351C77.4884 17.8611 77.4884 18.3902 77.1687 18.7166Z" fill="#1D2A30"/>
<path d="M80.3827 40.6421H78.8754C78.7712 40.6421 78.6869 40.7283 78.6869 40.8348C78.6869 40.9409 78.7712 41.0271 78.8754 41.0271H80.3827C80.4869 41.0271 80.5713 40.9409 80.5713 40.8348C80.5713 40.7283 80.4869 40.6421 80.3827 40.6421ZM77.3678 40.6421H75.8606C75.7564 40.6421 75.672 40.7283 75.672 40.8348C75.672 40.9409 75.7564 41.0271 75.8606 41.0271H77.3678C77.472 41.0271 77.5564 40.9409 77.5564 40.8348C77.5564 40.7283 77.472 40.6421 77.3678 40.6421ZM74.353 40.6421H72.8457C72.7415 40.6421 72.6572 40.7283 72.6572 40.8348C72.6572 40.9409 72.7415 41.0271 72.8457 41.0271H74.353C74.4572 41.0271 74.5416 40.9409 74.5416 40.8348C74.5416 40.7283 74.4572 40.6421 74.353 40.6421ZM71.3385 40.6421H69.8309C69.7267 40.6421 69.6426 40.7283 69.6426 40.8348C69.6426 40.9409 69.7267 41.0271 69.8309 41.0271H71.3385C71.4423 41.0271 71.5267 40.9409 71.5267 40.8348C71.5267 40.7283 71.4423 40.6421 71.3385 40.6421ZM68.3236 40.6421H66.816C66.7122 40.6421 66.6278 40.7283 66.6278 40.8348C66.6278 40.9409 66.7122 41.0271 66.816 41.0271H68.3236C68.4275 41.0271 68.5119 40.9409 68.5119 40.8348C68.5119 40.7283 68.4275 40.6421 68.3236 40.6421ZM65.3088 40.6421H65.043V39.7587C65.043 39.6523 64.9586 39.5661 64.8547 39.5661C64.7506 39.5661 64.6662 39.6523 64.6662 39.7587V40.8348C64.6662 40.8854 64.6863 40.935 64.7215 40.9709C64.7564 41.0069 64.8049 41.0271 64.8547 41.0271H65.3088C65.4126 41.0271 65.497 40.9409 65.497 40.8348C65.497 40.7283 65.4126 40.6421 65.3088 40.6421ZM65.043 38.2185V36.6786C65.043 36.5722 64.9586 36.486 64.8547 36.486C64.7506 36.486 64.6662 36.5722 64.6662 36.6786V38.2185C64.6662 38.325 64.7506 38.4112 64.8547 38.4112C64.9586 38.4112 65.043 38.325 65.043 38.2185ZM65.043 35.1384V33.5985C65.043 33.492 64.9586 33.4058 64.8547 33.4058C64.7506 33.4058 64.6662 33.492 64.6662 33.5985V35.1384C64.6662 35.2448 64.7506 35.331 64.8547 35.331C64.9586 35.331 65.043 35.2448 65.043 35.1384ZM65.043 32.0583V30.5184C65.043 30.4123 64.9586 30.3257 64.8547 30.3257C64.7506 30.3257 64.6662 30.4123 64.6662 30.5184V32.0583C64.6662 32.1647 64.7506 32.2509 64.8547 32.2509C64.9586 32.2509 65.043 32.1647 65.043 32.0583ZM65.043 28.9785V27.4382C65.043 27.3321 64.9586 27.2459 64.8547 27.2459C64.7506 27.2459 64.6662 27.3321 64.6662 27.4382V28.9785C64.6662 29.0846 64.7506 29.1708 64.8547 29.1708C64.9586 29.1708 65.043 29.0846 65.043 28.9785ZM65.043 25.8983V24.4593H64.8547V24.6516H64.9535C65.0577 24.6516 65.1421 24.5654 65.1421 24.4593C65.1421 24.3529 65.0577 24.2667 64.9535 24.2667H64.8547C64.8049 24.2667 64.7564 24.2873 64.7215 24.3232C64.6863 24.3592 64.6662 24.4084 64.6662 24.4593V25.8983C64.6662 26.0045 64.7506 26.0907 64.8547 26.0907C64.9586 26.0907 65.043 26.0045 65.043 25.8983ZM66.4607 24.6516H67.9683C68.0722 24.6516 68.1566 24.5654 68.1566 24.4593C68.1566 24.3529 68.0722 24.2667 67.9683 24.2667H66.4607C66.3569 24.2667 66.2725 24.3529 66.2725 24.4593C66.2725 24.5654 66.3569 24.6516 66.4607 24.6516ZM69.4756 24.6516H70.9832C71.087 24.6516 71.1714 24.5654 71.1714 24.4593C71.1714 24.3529 71.087 24.2667 70.9832 24.2667H69.4756C69.3717 24.2667 69.2873 24.3529 69.2873 24.4593C69.2873 24.5654 69.3717 24.6516 69.4756 24.6516V24.6516ZM72.4904 24.6516H73.998C74.1019 24.6516 74.1863 24.5654 74.1863 24.4593C74.1863 24.3529 74.1019 24.2667 73.998 24.2667H72.4904C72.3862 24.2667 72.3022 24.3529 72.3022 24.4593C72.3022 24.5654 72.3862 24.6516 72.4904 24.6516ZM75.5053 24.6516H77.0125C77.1167 24.6516 77.2011 24.5654 77.2011 24.4593C77.2011 24.3529 77.1167 24.2667 77.0125 24.2667H75.5053C75.4011 24.2667 75.3167 24.3529 75.3167 24.4593C75.3167 24.5654 75.4011 24.6516 75.5053 24.6516ZM78.5201 24.6516H80.0274C80.1316 24.6516 80.216 24.5654 80.216 24.4593C80.216 24.3529 80.1316 24.2667 80.0274 24.2667H78.5201C78.4159 24.2667 78.3316 24.3529 78.3316 24.4593C78.3316 24.5654 78.4159 24.6516 78.5201 24.6516ZM81.535 24.6516H83.0423C83.1465 24.6516 83.2308 24.5654 83.2308 24.4593C83.2308 24.3529 83.1465 24.2667 83.0423 24.2667H81.535C81.4308 24.2667 81.3464 24.3529 81.3464 24.4593C81.3464 24.5654 81.4308 24.6516 81.535 24.6516ZM83.209 25.6362V27.1765C83.209 27.2829 83.2933 27.3688 83.3975 27.3688C83.5017 27.3688 83.5858 27.2829 83.5858 27.1765V25.6362C83.5858 25.5301 83.5017 25.4439 83.3975 25.4439C83.2933 25.4439 83.209 25.5301 83.209 25.6362V25.6362ZM83.209 28.7164V30.2563C83.209 30.3627 83.2933 30.4489 83.3975 30.4489C83.5017 30.4489 83.5858 30.3627 83.5858 30.2563V28.7164C83.5858 28.6103 83.5017 28.524 83.3975 28.524C83.2933 28.524 83.209 28.6103 83.209 28.7164ZM83.209 31.7965V33.3364C83.209 33.4428 83.2933 33.529 83.3975 33.529C83.5017 33.529 83.5858 33.4428 83.5858 33.3364V31.7965C83.5858 31.69 83.5017 31.6038 83.3975 31.6038C83.2933 31.6038 83.209 31.69 83.209 31.7965ZM83.209 34.8766V36.4165C83.209 36.523 83.2933 36.6092 83.3975 36.6092C83.5017 36.6092 83.5858 36.523 83.5858 36.4165V34.8766C83.5858 34.7702 83.5017 34.684 83.3975 34.684C83.2933 34.684 83.209 34.7702 83.209 34.8766ZM83.209 37.9567V39.4966C83.209 39.6031 83.2933 39.6893 83.3975 39.6893C83.5017 39.6893 83.5858 39.6031 83.5858 39.4966V37.9567C83.5858 37.8503 83.5017 37.7641 83.3975 37.7641C83.2933 37.7641 83.209 37.8503 83.209 37.9567V37.9567ZM83.3975 40.6421H81.89C81.7861 40.6421 81.7017 40.7283 81.7017 40.8348C81.7017 40.9409 81.7861 41.0271 81.89 41.0271H83.3975C83.5017 41.0271 83.5858 40.9409 83.5858 40.8348C83.5858 40.7283 83.5017 40.6421 83.3975 40.6421Z" fill="#1D2A30"/>
<path d="M107.599 25.6094H86.2583V24.4593H107.599V25.6094Z" fill="#1D2A30"/>
<path d="M102.628 27.9943H86.2583V26.8442H102.628V27.9943Z" fill="#1D2A30"/>
<path d="M110.634 30.3792H86.2583V29.2155H110.634V30.3792Z" fill="#1D2A30"/>
<path d="M107.015 32.6959H86.2583V31.5323H107.015V32.6959Z" fill="#1D2A30"/>
<path d="M91.0097 138.965C91.0097 138.965 81.1022 141.868 79.7193 142.369C78.4607 142.823 75.0502 144.043 72.4915 143.666C72.2387 143.628 71.9941 143.574 71.76 143.504C69.1674 142.715 68.0028 141.98 67.6639 140.313C67.3209 138.642 68.6137 137.421 69.8572 136.636C71.1007 135.85 77.8465 135.03 77.8465 135.03L79.4743 135.519H79.4781L91.0097 138.965" fill="#73CD91"/>
<path d="M72.4915 143.666C72.2387 143.628 71.9941 143.574 71.76 143.504C69.1674 142.715 68.0028 141.98 67.6639 140.313C67.3209 138.642 68.6137 137.421 69.8572 136.636C71.1007 135.85 77.8465 135.03 77.8465 135.03L79.4743 135.519C78.0009 136.212 72.5065 136.597 71.3081 137.302C70.1096 138.006 69.5292 139.335 70.2378 141.129C70.6146 142.084 71.6244 143.008 72.4915 143.666Z" fill="white"/>
<path d="M89.4717 139.191C89.471 139.192 87.6095 139.684 85.3783 140.335C83.1458 140.986 80.548 141.793 79.0555 142.43C77.6548 143.03 75.6122 143.471 73.6697 143.471C72.6367 143.471 71.6312 143.346 70.7659 143.061C69.9002 142.776 69.178 142.332 68.6916 141.701C68.0893 140.919 67.8515 140.19 67.8511 139.544C67.8515 138.826 68.1446 138.197 68.6082 137.697C69.0714 137.198 69.7052 136.836 70.3618 136.674C72.0374 136.258 75.1725 135.637 77.4129 135.637C77.8352 135.637 78.225 135.659 78.5649 135.708C78.6677 135.723 78.763 135.649 78.7774 135.544C78.7917 135.438 78.7197 135.341 78.6168 135.326C78.2537 135.275 77.8478 135.252 77.4129 135.252C75.11 135.254 71.9705 135.88 70.2729 136.3C69.547 136.48 68.8538 136.874 68.3349 137.432C67.8166 137.988 67.474 138.716 67.4743 139.544C67.474 140.29 67.7524 141.106 68.3957 141.939C68.9426 142.648 69.7356 143.126 70.6504 143.427C71.566 143.729 72.6069 143.855 73.6697 143.855C75.6682 143.855 77.7426 143.408 79.201 142.786C80.6587 142.162 83.2561 141.354 85.4818 140.705C86.5948 140.381 87.6163 140.095 88.3593 139.891C89.1024 139.687 89.5653 139.564 89.5663 139.564C89.6671 139.537 89.7275 139.432 89.7016 139.329C89.6753 139.226 89.5724 139.165 89.472 139.191" fill="#1D2A30"/>
<path d="M72.7313 143.359L72.7033 143.343C72.5591 143.258 71.883 142.843 71.252 142.192C70.6187 141.539 70.0427 140.658 70.0447 139.649C70.0447 139.29 70.1154 138.912 70.2849 138.511C70.4892 138.027 70.9302 137.672 71.551 137.399C72.4792 136.989 73.7797 136.786 75.0827 136.579C76.387 136.37 77.6937 136.158 78.6708 135.692C78.7651 135.646 78.8054 135.532 78.7613 135.435C78.7169 135.339 78.6049 135.298 78.5106 135.343C77.3111 135.922 75.4288 136.109 73.7285 136.413C72.8775 136.567 72.0695 136.752 71.402 137.045C70.7369 137.337 70.1985 137.746 69.9388 138.358C69.7502 138.804 69.6676 139.238 69.6676 139.649C69.6676 140.269 69.8541 140.834 70.1271 141.328C70.9497 142.807 72.5376 143.687 72.5499 143.697C72.6414 143.748 72.7559 143.714 72.8057 143.62C72.856 143.527 72.8225 143.41 72.7313 143.359" fill="#1D2A30"/>
<path d="M121.184 144.136C121.082 145.171 120.724 146.165 119.699 146.781C119.017 147.193 118.045 147.439 116.655 147.424C113.18 147.378 106.649 144.841 106.649 144.841L100.533 141.387L103.713 136.243L104.584 134.834L106.833 135.35C106.833 135.35 108.695 136.428 110.568 137.286C112.441 138.145 116.986 138.326 118.588 139.65C120.189 140.971 121.357 142.411 121.184 144.136" fill="#73CD91"/>
<path d="M121.184 144.136C121.082 145.171 120.724 146.165 119.699 146.781C119.891 145.976 120.05 144.864 119.526 143.662C118.847 142.095 116.62 140.713 113.696 140.482C110.775 140.251 108.533 138.853 107.361 138.23C106.446 137.744 104.516 136.686 103.713 136.243L104.584 134.834L106.833 135.35C106.833 135.35 108.695 136.428 110.568 137.286C112.441 138.145 116.986 138.326 118.588 139.65C120.189 140.971 121.357 142.411 121.184 144.136" fill="white"/>
<path d="M101.794 142.522C106.168 145.082 111.17 146.926 116.181 147.542C116.517 147.584 116.871 147.615 117.225 147.615C117.644 147.615 118.064 147.571 118.455 147.446C118.846 147.321 119.209 147.111 119.497 146.781C119.897 146.32 120.068 145.708 120.068 145.112C120.068 145.025 120.065 144.937 120.057 144.851C119.986 143.999 119.6 143.241 119.051 142.619C118.501 141.997 117.788 141.507 117.041 141.179C115.556 140.528 113.945 140.378 112.423 140.028C110.909 139.681 109.438 139.131 108.061 138.398C106.966 137.816 105.883 137.086 104.618 136.811C104.338 136.75 104.048 136.72 103.756 136.72C103.236 136.72 102.712 136.819 102.246 137.033C101.78 137.247 101.371 137.579 101.094 138.042C101.04 138.132 101.068 138.251 101.157 138.306C101.245 138.362 101.362 138.333 101.416 138.243C101.648 137.855 101.992 137.573 102.401 137.384C102.81 137.195 103.283 137.104 103.756 137.104C104.021 137.104 104.286 137.133 104.54 137.188C105.713 137.44 106.771 138.142 107.887 138.739C109.292 139.488 110.794 140.049 112.341 140.404C113.895 140.758 115.482 140.912 116.893 141.532C117.594 141.84 118.265 142.303 118.771 142.877C119.278 143.452 119.619 144.132 119.682 144.884C119.689 144.96 119.692 145.036 119.692 145.112C119.692 145.635 119.539 146.154 119.215 146.525C118.979 146.795 118.683 146.969 118.343 147.079C118.002 147.188 117.619 147.23 117.225 147.23C116.892 147.23 116.552 147.2 116.226 147.16C111.274 146.551 106.316 144.725 101.982 142.188C101.891 142.135 101.776 142.167 101.724 142.259C101.673 142.352 101.704 142.469 101.794 142.522" fill="#1D2A30"/>
<path d="M119.034 147.26C120.203 146.645 121.17 145.521 121.372 144.164C121.397 143.991 121.409 143.818 121.409 143.645C121.407 142.223 120.587 140.881 119.491 140.021C118.265 139.061 116.752 138.621 115.278 138.307C113.804 137.995 112.317 137.786 110.951 137.24C110.052 136.881 109.145 136.366 108.22 135.935C107.296 135.506 106.351 135.158 105.369 135.157C105.034 135.157 104.695 135.198 104.353 135.291C104.252 135.318 104.193 135.423 104.219 135.526C104.246 135.629 104.349 135.69 104.45 135.663C104.758 135.579 105.064 135.542 105.369 135.542C106.261 135.541 107.158 135.863 108.064 136.286C108.97 136.707 109.882 137.226 110.813 137.598C112.236 138.165 113.745 138.374 115.202 138.684C116.658 138.993 118.113 139.425 119.262 140.326C120.284 141.125 121.035 142.38 121.032 143.645C121.032 143.799 121.022 143.953 120.999 144.107C120.825 145.308 119.944 146.35 118.862 146.917C118.77 146.965 118.733 147.082 118.78 147.176C118.828 147.271 118.941 147.308 119.034 147.26" fill="#1D2A30"/>
<path d="M106.848 113.065C106.49 113.254 107.877 109.327 107.218 108.438C106.558 107.544 104.584 107.633 104.584 107.633L104.754 106.559C104.776 106.439 105.925 100.418 105.925 100.418L106.314 99.9446C106.314 99.9446 110.338 106.994 111.058 109.477C111.058 109.477 106.672 113.065 106.848 113.065V113.065ZM80.8309 107.875C80.0698 108.426 80.4766 110.563 80.4766 110.563L79.1802 109.397L82.4328 101.227L83.8195 107.498C83.8195 107.498 81.5924 107.329 80.8309 107.875V107.875ZM108.79 88.2862L98.4411 84.263L98.313 84.2128C98.313 84.2128 98.3505 83.9318 98.3809 83.5238C98.4452 82.6806 98.4786 81.3061 98.0909 80.8402C97.5142 80.1512 95.8785 80.7285 94.2845 79.9816C92.6905 79.2347 89.7395 80.5707 89.7395 80.5707C89.7395 80.5707 87.6105 80.17 86.6724 81.741C86.1938 83.0076 86.3594 84.8944 86.3594 84.8944C86.3594 84.8944 86.2918 84.9213 86.1637 84.9677C84.9311 85.4371 78.2229 88.0168 76.8024 89.0527C75.2347 90.1884 73.5013 101.835 72.9434 105.254C72.3856 108.676 71.3948 111.757 71.8998 112.935C72.4009 114.109 79.6099 119.78 83.7556 121.243C87.9009 122.71 102.609 122.279 102.609 122.279C102.609 122.279 102.85 122.213 103.276 122.075C105.763 121.258 114.589 117.897 119.27 109.97C119.27 109.97 114.736 94.7777 108.79 88.2862" fill="#73CD91"/>
<path d="M89.251 62.8044L83.9103 68.5975C83.9103 68.5975 83.1738 69.2627 83.4662 70.9433C83.759 72.6238 84.4409 74.0677 84.9553 74.1794C85.4705 74.2918 86.1924 74.2928 86.1924 74.2928C86.1924 74.2928 87.3368 76.8267 88.1475 77.8228C88.1475 77.8228 88.43 81.734 88.2794 82.8198C88.2794 82.8198 90.1983 84.5325 92.0055 84.7502C93.813 84.968 96.6055 82.1385 96.6055 82.1385L97.2976 78.6752C97.2976 78.6752 98.9361 76.1343 99.0478 75.4579C99.1598 74.7815 99.9087 74.9549 100.277 74.6213C100.645 74.2879 101.497 72.7952 101.637 71.3851C101.778 69.9751 101.788 68.3552 100.185 68.831C98.7953 68.4495 99.6651 65.4489 99.6651 65.4489L97.2238 63.2483L89.251 62.8044" fill="white"/>
<path d="M98.3785 83.5574C98.3792 83.5466 98.3803 83.535 98.3809 83.5239C98.4452 82.6806 98.4786 81.3062 98.0909 80.8402C98.4851 81.3118 98.4438 82.7169 98.3785 83.5574" fill="#8E989B"/>
<path d="M93.4441 89.8262L92.2836 86.1803L91.6465 89.8262C90.365 89.2566 86.4575 85.7953 86.4575 85.7953C86.4575 85.7953 86.3253 85.4721 86.1637 84.9678C86.2918 84.9214 86.3594 84.8945 86.3594 84.8945C86.3594 84.8945 86.3318 84.5786 86.3318 84.1186C86.3318 83.4544 86.3895 82.4894 86.6724 81.7411C86.6802 81.7278 86.6881 81.7149 86.6963 81.702C86.6973 81.7002 86.6983 81.6985 86.6994 81.6971C86.7045 81.6884 86.71 81.6803 86.7154 81.6719C87.124 81.0371 87.7338 80.7432 88.2989 80.6151C88.331 81.5142 88.3392 82.3892 88.2794 82.8199C88.2794 82.8199 90.1983 84.5325 92.0055 84.7503C92.0725 84.7584 92.1408 84.7622 92.2105 84.7622C94.0163 84.7622 96.6055 82.1386 96.6055 82.1386L96.9424 80.4542C97.45 80.4898 97.8572 80.5614 98.0909 80.8402C98.4786 81.3062 98.4452 82.6806 98.3809 83.5239L98.1661 84.8945L97.2778 86.1283C95.8358 87.8123 93.4441 89.8262 93.4441 89.8262" fill="#BDE7C5"/>
<path d="M92.2105 84.7622C92.1408 84.7622 92.0725 84.7584 92.0055 84.7503C90.1983 84.5325 88.2794 82.8199 88.2794 82.8199C88.3392 82.3892 88.331 81.5142 88.2989 80.6151C88.605 80.5457 88.8981 80.5251 89.1393 80.5251C89.4969 80.5251 89.7395 80.5708 89.7395 80.5708C89.7395 80.5708 91.5419 79.7548 93.0902 79.7548C93.523 79.7548 93.9364 79.8186 94.2845 79.9816C95.2329 80.4259 96.1962 80.4015 96.9423 80.4542L96.6055 82.1386C96.6055 82.1386 94.0163 84.7622 92.2105 84.7622Z" fill="white"/>
<path d="M103.276 122.075L100.917 119.572L101.697 110.109L103.605 93.4438C103.805 91.6931 102.932 90.0014 101.411 89.17C99.2237 87.9736 96.6363 87.0194 96.6363 87.0194L97.2778 86.1283C97.6628 85.6784 97.9802 85.2523 98.1661 84.8945C98.2679 84.698 98.3584 84.4865 98.4411 84.2631L108.79 88.2863C114.736 94.7778 119.27 109.97 119.27 109.97C114.589 117.897 105.763 121.259 103.276 122.075V122.075ZM106.788 112.973C106.788 113.037 106.8 113.072 106.826 113.072C106.833 113.072 106.84 113.07 106.848 113.066C106.845 113.066 106.843 113.065 106.843 113.062C106.841 112.927 111.058 109.477 111.058 109.477C110.338 106.994 106.314 99.9447 106.314 99.9447L105.925 100.418C105.925 100.418 105.773 101.215 105.579 102.235C105.555 102.36 105.53 102.489 105.505 102.62C105.175 104.353 104.767 106.488 104.754 106.559L104.584 107.633C104.584 107.633 104.638 107.631 104.731 107.631C105.202 107.631 106.667 107.692 107.218 108.438C107.348 108.613 107.399 108.907 107.399 109.265C107.398 110.504 106.789 112.506 106.788 112.973" fill="#4EBE7B"/>
<path d="M98.313 84.2128C98.3133 84.21 98.3485 83.9433 98.3785 83.5573C98.3488 83.9451 98.3133 84.2103 98.313 84.2128Z" fill="#4EBE7B"/>
<path d="M97.2778 86.1282L98.1661 84.8944C97.9802 85.2521 97.6628 85.6783 97.2778 86.1282Z" fill="#91C9A2"/>
<path d="M98.166 84.8944L98.3809 83.5238C98.3802 83.535 98.3792 83.5465 98.3785 83.5573C98.3485 83.9433 98.3133 84.21 98.3129 84.2128L98.4411 84.263C98.3584 84.4864 98.2679 84.6979 98.166 84.8944" fill="#91C9A2"/>
<path d="M81.8561 115.356C81.8561 115.356 77.2131 111.572 75.2989 111.572C73.3882 111.572 73.7275 110.944 75.2989 108.438C76.8701 105.927 78.5676 97.4809 78.5676 97.4809L78.0477 90.4108C79.5221 92.2588 81.5002 98.3133 82.4123 101.278L82.0314 102.235L81.878 102.62L79.1802 109.397L80.4766 110.563C80.4766 110.563 80.368 109.993 80.368 109.365C80.368 108.778 80.463 108.142 80.8309 107.876C81.301 107.538 82.3296 107.473 83.0481 107.473C83.4932 107.473 83.8195 107.498 83.8195 107.498L82.5271 101.654C82.7693 102.45 82.9111 102.943 82.9111 102.943L84.5205 108.438L81.4978 112.199L81.8561 115.356" fill="#4EBE7B"/>
<path d="M82.5271 101.654C82.4909 101.535 82.4526 101.41 82.4123 101.278L82.4328 101.227L82.5271 101.654Z" fill="#CECDCC"/>
<path d="M87.9603 77.8424C87.9603 77.8428 87.9682 77.923 87.9805 78.0654C88.0174 78.4923 88.0911 79.4689 88.0911 80.4182C88.0915 81.0499 88.0573 81.6726 87.9637 82.0963C87.9408 82.2003 88.0047 82.3033 88.1065 82.3263C88.208 82.3497 88.3088 82.2844 88.3313 82.1808C88.4359 81.7023 88.4676 81.0649 88.468 80.4182C88.468 79.1265 88.3354 77.8068 88.3351 77.8033C88.3245 77.6976 88.2319 77.6204 88.1284 77.6312C88.0249 77.6421 87.9494 77.7367 87.9603 77.8424" fill="#1D2A30"/>
<path d="M97.0896 81.7397L97.0892 81.7072C97.0889 81.488 97.1043 80.1907 97.4066 78.9583C97.4319 78.855 97.3704 78.7506 97.2693 78.7248C97.1685 78.699 97.066 78.7618 97.0411 78.8648C96.7258 80.1537 96.7128 81.4709 96.7124 81.7072L96.7128 81.7442C96.7138 81.8507 96.7992 81.9358 96.9034 81.9344C97.0076 81.933 97.0906 81.8458 97.0896 81.7397Z" fill="#1D2A30"/>
<path d="M97.5303 65.133L97.5477 65.1554C97.6355 65.2709 98.0427 65.8199 98.4247 66.5288C98.808 67.2363 99.1595 68.1078 99.1571 68.8365C99.1571 68.8763 99.1561 68.9158 99.154 68.9548C99.0768 70.4211 98.9651 72.1327 98.9651 73.852C98.9651 74.1242 98.9679 74.3968 98.974 74.6687L98.9743 74.7064C98.9761 75.1542 98.7923 75.7646 98.4814 76.4177C98.0161 77.3984 97.2724 78.4804 96.501 79.3425C96.1156 79.7735 95.7231 80.1498 95.3582 80.4318C94.9944 80.7141 94.6555 80.8991 94.3983 80.9564C93.7475 81.1043 93.1394 81.2049 92.5873 81.2045C91.7773 81.2024 91.1002 80.9968 90.5239 80.4108C89.5062 79.3718 88.4734 77.9062 87.1237 76.0212C86.6919 75.4205 86.4271 74.5403 86.2792 73.6436C86.1299 72.7466 86.0933 71.8346 86.0937 71.1649C86.0937 70.8525 86.1015 70.5925 86.1094 70.4113C86.1172 70.2298 86.1251 70.1297 86.1248 70.1293C86.133 70.0232 86.0554 69.9307 85.9516 69.9223C85.848 69.914 85.7572 69.9932 85.7493 70.0993C85.749 70.1031 85.7169 70.5265 85.7169 71.1649C85.7169 71.8489 85.7534 72.7794 85.9075 73.7078C86.0629 74.6366 86.3314 75.5646 86.8196 76.2487C88.1687 78.1321 89.2055 79.6077 90.2574 80.6831C90.9103 81.3528 91.7165 81.5919 92.5873 81.5898C93.1838 81.5895 93.8161 81.4827 94.4799 81.3323C94.9397 81.2251 95.4474 80.8841 95.9797 80.4091C96.775 79.6953 97.6092 78.6692 98.2518 77.6253C98.5726 77.1031 98.8456 76.5768 99.0396 76.0805C99.2333 75.5838 99.3505 75.1182 99.3512 74.7064L99.3508 74.6596C99.3447 74.3912 99.3419 74.1218 99.3419 73.852C99.3419 72.1495 99.4526 70.4455 99.5302 68.9758C99.5329 68.9294 99.5339 68.8833 99.5339 68.8365C99.5312 67.9312 99.0984 66.9584 98.6754 66.1983C98.2508 65.4395 97.8289 64.8982 97.8251 64.8933C97.7602 64.8099 97.6417 64.7962 97.5604 64.8625C97.4791 64.9285 97.4654 65.0496 97.5303 65.133" fill="#1D2A30"/>
<path d="M93.2695 71.6567C93.1746 72.204 93.1267 72.76 93.1267 73.3156C93.1267 73.4001 93.1278 73.4846 93.1302 73.5687C93.1459 74.1058 93.2159 74.725 93.634 75.1658C93.7454 75.281 93.8646 75.3721 93.9507 75.46C94.0385 75.5494 94.0843 75.623 94.0942 75.7005L94.0963 75.7323C94.0963 75.7937 94.0724 75.8621 94.0218 75.9333C93.9719 76.0035 93.8974 76.0715 93.8189 76.1228H93.8185C93.6392 76.2436 93.3884 76.328 93.1643 76.5235C93.0857 76.5933 93.0775 76.7151 93.1459 76.795C93.2142 76.8753 93.3331 76.8837 93.4117 76.8139C93.5579 76.6802 93.7874 76.5971 94.0218 76.4471C94.1342 76.3734 94.2418 76.2781 94.3265 76.1598C94.4102 76.0422 94.4727 75.8967 94.4731 75.7323L94.4676 75.6492C94.4403 75.4464 94.3269 75.2991 94.2162 75.1871C94.1038 75.0737 93.9856 74.9829 93.9029 74.8964C93.6009 74.5871 93.5182 74.0713 93.5066 73.5585C93.5046 73.4776 93.5035 73.3966 93.5035 73.3156C93.5035 72.7823 93.5493 72.249 93.6405 71.7241C93.659 71.6194 93.5907 71.5196 93.4882 71.5011C93.3857 71.4822 93.288 71.552 93.2695 71.6567" fill="#1D2A30"/>
<path d="M90.4829 76.9168C90.4863 76.9363 90.543 77.3004 90.8388 77.7052C91.133 78.1104 91.6751 78.5478 92.5965 78.6926C92.6993 78.709 92.7957 78.6371 92.8117 78.5321C92.8278 78.427 92.7574 78.3286 92.6546 78.3122C91.8224 78.1778 91.3861 77.8071 91.1405 77.4749C91.0185 77.308 90.9465 77.1492 90.9051 77.0341C90.8846 76.9765 90.8716 76.93 90.8641 76.899L90.8566 76.8648L90.8552 76.8578L90.8528 76.8582L90.8552 76.8578L90.8528 76.8582L90.8552 76.8578C90.8392 76.7527 90.7428 76.6805 90.64 76.6969C90.5372 76.7133 90.4668 76.8117 90.4829 76.9168" fill="#1D2A30"/>
<path d="M90.8515 72.709C90.8515 73.095 90.6882 73.4077 90.4866 73.4077C90.2851 73.4077 90.1218 73.095 90.1218 72.709C90.1218 72.323 90.2851 72.0099 90.4866 72.0099C90.6882 72.0099 90.8515 72.323 90.8515 72.709Z" fill="#1D2A30"/>
<path d="M96.0818 72.8768C96.0818 73.2629 95.9182 73.5759 95.7166 73.5759C95.5154 73.5759 95.3517 73.2629 95.3517 72.8768C95.3517 72.4908 95.5154 72.1781 95.7166 72.1781C95.9182 72.1781 96.0818 72.4908 96.0818 72.8768Z" fill="#1D2A30"/>
<path d="M95.293 71.4568L95.2277 71.3901L95.2923 71.4575L95.293 71.4568L95.2277 71.3901L95.2923 71.4575C95.2988 71.4508 95.4614 71.2906 95.7077 71.1402C95.9547 70.988 96.2806 70.8523 96.6096 70.8537C96.8006 70.8544 96.9946 70.8948 97.2027 71.0069C97.4104 71.1196 97.6348 71.3074 97.8658 71.618C97.9915 71.7873 98.2279 71.8205 98.3936 71.692C98.5593 71.5636 98.5917 71.3221 98.466 71.1524C98.1818 70.7692 97.8743 70.4987 97.5556 70.3266C97.2375 70.1539 96.9112 70.083 96.6096 70.0837C96.0667 70.0855 95.6117 70.298 95.2902 70.4984C94.9681 70.7008 94.7744 70.8983 94.76 70.9123C94.6128 71.0627 94.6128 71.3067 94.76 71.4568C94.9073 71.6072 95.1457 71.6072 95.293 71.4568" fill="#1D2A30"/>
<path d="M91.7103 70.9618C91.6922 70.9415 91.5477 70.7786 91.2809 70.6138C91.0155 70.4494 90.6212 70.2836 90.1259 70.2836C89.6309 70.2826 89.0491 70.4533 88.4311 70.9042C88.2613 71.0274 88.2216 71.2679 88.3422 71.441C88.4628 71.6145 88.6982 71.655 88.8677 71.5317C89.3835 71.1586 89.7972 71.0546 90.1259 71.0536C90.4542 71.0536 90.7118 71.1625 90.8918 71.2731C90.981 71.3279 91.0496 71.3831 91.0937 71.4225L91.1405 71.4668L91.1494 71.4759L91.1497 71.4766L91.3147 71.3223L91.1477 71.4742L91.1497 71.4766L91.3147 71.3223L91.1477 71.4742C91.2864 71.633 91.5245 71.6469 91.6799 71.5052C91.8354 71.3639 91.8487 71.1206 91.7103 70.9618" fill="#1D2A30"/>
<path d="M88.2794 79.4507C88.2794 79.4507 89.321 82.3839 91.6471 83.2157C93.9736 84.0477 97.0623 79.7303 97.0623 79.7303L96.9007 79.1687C96.9007 79.1687 94.8769 81.8555 92.6256 81.3972C90.3739 80.9393 88.1475 77.8229 88.1475 77.8229L88.2794 79.4507" fill="#1D2A30"/>
<path d="M86.1295 73.998L86.1196 74.0015C86.066 74.02 85.8002 74.101 85.5105 74.1003C85.3274 74.1006 85.1381 74.0681 84.9834 73.9823C84.8286 73.895 84.6998 73.7617 84.6154 73.5139C84.4815 73.1143 84.241 72.5028 84.0333 71.8344C83.8256 71.1671 83.6538 70.4435 83.6548 69.8495C83.6544 69.6041 83.6835 69.3825 83.7453 69.1965C83.8078 69.0098 83.9004 68.86 84.033 68.7438C84.2045 68.5951 84.3456 68.5487 84.4744 68.5476C84.6233 68.5473 84.7767 68.6171 84.9294 68.7428C85.1579 68.9298 85.365 69.2345 85.5074 69.4907C85.5792 69.6188 85.6355 69.7347 85.6738 69.8177C85.6926 69.8593 85.7073 69.8928 85.7169 69.9155L85.7305 69.9486C85.7698 70.0471 85.8795 70.0949 85.9758 70.0551C86.0725 70.0153 86.1189 69.9029 86.08 69.8045C86.0769 69.7971 85.9235 69.4076 85.6564 69.0073C85.5225 68.8073 85.3602 68.6035 85.1661 68.4433C84.9728 68.2838 84.7401 68.1634 84.4744 68.1627C84.2458 68.162 84.0084 68.2569 83.7877 68.4513C83.5971 68.6181 83.4676 68.8342 83.3887 69.0726C83.3094 69.3117 83.278 69.5741 83.2776 69.8495C83.2787 70.5161 83.4618 71.2651 83.6739 71.9506C83.8868 72.6347 84.1314 73.2563 84.2588 73.6381C84.3678 73.9694 84.5724 74.1945 84.804 74.3208C85.036 74.4482 85.2867 74.4849 85.5105 74.4852C85.916 74.4845 86.2436 74.3645 86.2549 74.361C86.353 74.3257 86.4045 74.2158 86.37 74.1156C86.3352 74.0151 86.2276 73.9627 86.1295 73.998" fill="#1D2A30"/>
<path d="M99.1226 74.9703C99.1311 74.972 99.2777 75.0017 99.4909 75.0017C99.7126 75.0014 100.009 74.9703 100.296 74.8289C100.582 74.689 100.857 74.4258 100.996 74.0046C101.123 73.6227 101.368 73.0011 101.58 72.317C101.792 71.6315 101.976 70.8825 101.977 70.2159C101.976 69.9405 101.945 69.6781 101.866 69.439C101.787 69.2003 101.657 68.9846 101.467 68.8177C101.246 68.6233 101.008 68.5284 100.78 68.5291C100.514 68.5294 100.281 68.6502 100.088 68.8093C99.7977 69.0505 99.5763 69.3877 99.4195 69.6662C99.264 69.9447 99.1766 70.1653 99.1745 70.1705C99.1356 70.2693 99.182 70.3813 99.2787 70.4211C99.3751 70.4613 99.4851 70.4135 99.524 70.315L99.5298 70.3007C99.5609 70.2246 99.7191 69.8585 99.9555 69.5234C100.073 69.3559 100.21 69.1971 100.353 69.0865C100.497 68.9748 100.64 68.9141 100.78 68.9141C100.909 68.9151 101.05 68.9615 101.221 69.1102C101.354 69.2264 101.446 69.3762 101.509 69.5629C101.571 69.7489 101.6 69.9705 101.599 70.2159C101.6 70.8099 101.429 71.5335 101.221 72.2008C101.014 72.8692 100.773 73.4807 100.639 73.8803C100.529 74.2049 100.344 74.3752 100.131 74.4824C99.9196 74.5878 99.6767 74.6171 99.4909 74.6167C99.4017 74.6167 99.3262 74.6105 99.2736 74.6042L99.2142 74.5958L99.1998 74.5934L99.1967 74.5927C99.0949 74.5717 98.9955 74.6394 98.975 74.7434C98.9545 74.8478 99.0205 74.9494 99.1226 74.9703" fill="#1D2A30"/>
<path d="M85.9054 72.709C86.2894 72.6912 86.9194 72.3087 87.1219 71.9746C87.3242 71.6403 87.4099 71.2473 87.4755 70.8606C87.6012 70.1192 87.6658 69.3671 87.6685 68.6146C87.6696 68.3207 87.6617 68.0209 87.7454 67.7396C87.8332 67.4468 88.0146 67.1934 88.2093 66.9606C88.6934 66.3812 89.2759 65.8915 89.7364 65.2922C90.1962 64.693 90.5341 63.9338 90.4101 63.1831C90.4101 63.1831 93.5548 66.1198 98.0878 65.2116C100.528 64.7226 102.871 62.5346 102.585 59.7847C102.484 58.806 101.78 58.1024 100.866 57.8699C99.6593 57.5635 98.5756 58.2207 97.4824 58.6416C95.4897 59.4095 93.5401 58.0912 91.5272 57.8699C89.8054 57.6808 87.6921 57.8989 86.7957 59.6478C86.7957 59.6478 83.7029 60.0189 82.3487 62.6138C80.9938 65.2088 83.569 68.8013 83.569 68.8013C83.569 68.8013 84.6052 67.5194 85.9372 70.1144L85.9054 72.709Z" fill="#1D2A30"/>
<path d="M97.8726 64.3495C97.8726 64.3495 97.0729 68.6069 99.1599 70.6686C99.1599 70.6686 99.6163 69.3887 100.08 69.0763C100.08 69.0763 101.241 66.8269 99.714 64.3495C98.1872 61.8718 97.8726 64.3495 97.8726 64.3495" fill="#1D2A30"/>
<path d="M85.5539 66.2971C85.5494 66.2971 85.5453 66.2968 85.5409 66.2964C85.437 66.2894 85.3588 66.1977 85.3656 66.0915C85.4497 64.842 86.1142 63.6847 87.0451 62.8366C87.9767 61.9891 89.1809 61.4443 90.3773 61.4433C90.4914 61.4433 90.6055 61.4485 90.7193 61.4586C92.7714 61.6464 94.7464 62.3476 96.6977 62.3476C96.7012 62.3476 96.7046 62.3476 96.708 62.3476C97.5535 62.3472 98.3939 62.2184 99.2432 61.8656C100.302 61.4255 101.227 60.5518 101.513 59.4542C101.536 59.3683 101.612 59.3118 101.695 59.3118C101.711 59.3118 101.728 59.3139 101.744 59.3184C101.845 59.346 101.904 59.4514 101.877 59.5543C101.546 60.8031 100.529 61.7452 99.3853 62.2219C98.4851 62.5968 97.5918 62.7326 96.7097 62.7326C96.709 62.7326 96.7087 62.7326 96.708 62.7326C94.6664 62.7298 92.6799 62.0198 90.6861 61.8422C90.5837 61.8328 90.4808 61.8282 90.3773 61.8282C90.3763 61.8282 90.3749 61.8282 90.3739 61.8282C89.2926 61.8282 88.1656 62.3312 87.2958 63.1242C86.4237 63.9175 85.8156 64.9942 85.7418 66.1177C85.7349 66.2193 85.6523 66.2971 85.5539 66.2971" fill="#45555C"/>
<path d="M83.7545 65.6414C83.7532 65.6414 83.7518 65.6414 83.7501 65.6414C83.6462 65.6389 83.5636 65.551 83.566 65.4445C83.6141 63.4055 84.9202 61.473 86.7694 60.7048C86.7926 60.6954 86.8165 60.6905 86.8401 60.6905C86.9146 60.6905 86.985 60.7362 87.0147 60.8109C87.054 60.9093 87.0072 61.0217 86.9108 61.0615C85.2078 61.7637 83.9821 63.5776 83.9428 65.4532C83.9404 65.5583 83.8567 65.6414 83.7545 65.6414" fill="#45555C"/>
<path d="M87.3399 81.8713C87.3508 81.881 89.2687 84.0478 91.9242 85.0753C91.9628 85.09 92.0038 85.0917 92.0434 85.0798C92.0509 85.0774 92.9279 84.8177 94.0307 84.2443C95.1334 83.6698 96.4651 82.784 97.3759 81.5107C97.4374 81.4249 97.4189 81.3044 97.3349 81.242C97.2508 81.1791 97.133 81.198 97.0715 81.2839C96.2171 82.481 94.9326 83.3441 93.8598 83.9012C93.3238 84.1797 92.8415 84.3828 92.4944 84.5158C92.3205 84.5821 92.1808 84.631 92.0848 84.6631C92.0366 84.6791 91.9997 84.691 91.9748 84.699L91.9385 84.7102L91.9908 84.8952L92.0574 84.7151C90.7832 84.2237 89.6695 83.4464 88.8776 82.792C88.4813 82.4649 88.1656 82.1686 87.9494 81.955C87.8411 81.8482 87.7581 81.7617 87.702 81.7027L87.6392 81.635L87.619 81.6126C87.549 81.5338 87.4298 81.5278 87.3525 81.5994C87.2757 81.6709 87.2699 81.7924 87.3399 81.8713" fill="#1D2A30"/>
<path d="M92.809 72.709H92.6204C92.6204 73.5223 92.2983 74.257 91.777 74.7899C91.255 75.3229 90.5362 75.6516 89.7402 75.6516C88.9442 75.6516 88.2251 75.3229 87.7034 74.7899C87.1817 74.257 86.8599 73.5223 86.8596 72.709C86.8599 71.8958 87.1817 71.1615 87.7034 70.6282C88.2251 70.0952 88.9442 69.7664 89.7402 69.7664C90.5362 69.7664 91.255 70.0952 91.777 70.6282C92.2983 71.1611 92.6204 71.8958 92.6204 72.709H92.809H92.9972C92.9972 70.8711 91.5392 69.3815 89.7402 69.3815C87.9412 69.3815 86.4831 70.8711 86.4828 72.709C86.4831 74.547 87.9412 76.0366 89.7402 76.0366C91.5392 76.0366 92.9972 74.547 92.9972 72.709H92.809Z" fill="#1D2A30"/>
<path d="M99.6651 72.709H99.4765C99.4765 73.5223 99.1544 74.2566 98.6331 74.7899C98.1111 75.3229 97.3923 75.6516 96.5963 75.6516C95.8003 75.6516 95.0815 75.3229 94.5595 74.7899C94.0382 74.257 93.716 73.5223 93.716 72.709C93.716 71.8958 94.0382 71.1611 94.5595 70.6282C95.0815 70.0952 95.8003 69.7664 96.5963 69.7664C97.3923 69.7664 98.1111 70.0952 98.6331 70.6282C99.1544 71.1615 99.4765 71.8958 99.4765 72.709H99.6651H99.8537C99.8533 70.8711 98.395 69.3815 96.5963 69.3815C94.7973 69.3815 93.3392 70.8711 93.3392 72.709C93.3392 74.547 94.7973 76.0366 96.5963 76.0366C98.395 76.0366 99.8533 74.547 99.8537 72.709H99.6651Z" fill="#1D2A30"/>
<path d="M88.1103 80.3837C88.0969 80.3864 87.8462 80.4395 87.522 80.6224C87.1981 80.8053 86.7995 81.1215 86.5074 81.6468C86.3635 81.9085 86.2856 82.2548 86.2354 82.6443C86.1862 83.0331 86.1695 83.4641 86.1695 83.8812C86.1695 84.8868 86.2682 85.8106 86.2686 85.8145C86.2733 85.8588 86.2921 85.8993 86.3232 85.9307C86.3256 85.9331 87.0297 86.6448 88.0348 87.5079C89.0409 88.3714 90.3448 89.386 91.5645 89.9975C91.6174 90.024 91.6796 90.0237 91.7325 89.9961C91.7851 89.9689 91.8224 89.9179 91.8326 89.8582L92.3912 86.649L93.263 89.8757C93.2794 89.9361 93.3238 89.9849 93.3816 90.0059C93.439 90.0268 93.5035 90.0177 93.5537 89.9818C93.5572 89.979 94.4857 89.3082 95.5461 88.3508C96.6065 87.391 97.7995 86.1551 98.3369 84.9758L98.3526 84.9196C98.3529 84.9154 98.5025 83.7423 98.5025 82.6883C98.5008 82.1588 98.4698 81.6667 98.341 81.3267C98.1725 80.8856 97.8863 80.6374 97.6304 80.5142C97.3742 80.3896 97.1518 80.3798 97.078 80.3795L97.0527 80.3802C96.9485 80.3858 96.8685 80.4761 96.874 80.5823C96.8795 80.6884 96.968 80.77 97.0718 80.7648L97.0704 80.7383L97.0711 80.7648H97.0718L97.0704 80.7383L97.0711 80.7648H97.078C97.1155 80.7644 97.2843 80.7714 97.4678 80.8615C97.6516 80.9529 97.8538 81.1173 97.9905 81.4677C98.0847 81.7044 98.1274 82.1815 98.1257 82.6883C98.1257 83.1975 98.0892 83.7447 98.0523 84.1632C98.0338 84.3723 98.0157 84.5496 98.0017 84.6742C97.9881 84.7991 97.9788 84.87 97.9788 84.8703L98.1657 84.8951L97.9949 84.8142C97.5088 85.893 96.3411 87.1219 95.2967 88.0622C94.7747 88.5337 94.2835 88.9358 93.9234 89.2195C93.7434 89.3612 93.5961 89.4736 93.494 89.5504C93.3918 89.6268 93.3361 89.6673 93.3361 89.6673L93.4448 89.8247L93.6265 89.7734L92.5333 85.7269C92.5097 85.6399 92.4308 85.5817 92.3427 85.5858C92.2545 85.59 92.1814 85.6557 92.1661 85.7443L91.4616 89.7909L91.6471 89.8247L91.7301 89.6516C90.5618 89.067 89.2701 88.0664 88.2773 87.2133C87.7806 86.7868 87.3577 86.397 87.0594 86.1143C86.9101 85.9729 86.7919 85.8581 86.7117 85.7792C86.631 85.7 86.5883 85.657 86.5883 85.657L86.4558 85.7939L86.643 85.7729C86.643 85.7729 86.6372 85.7174 86.628 85.6169C86.601 85.3154 86.5463 84.6166 86.5463 83.8812C86.5463 83.4753 86.563 83.0579 86.6092 82.6935C86.6543 82.3298 86.7332 82.0178 86.835 81.837C87.0861 81.3857 87.4257 81.1173 87.7044 80.9592C87.8435 80.8807 87.9668 80.8304 88.0539 80.8C88.0976 80.785 88.1318 80.7749 88.1547 80.7686L88.1796 80.7623L88.1851 80.761C88.2869 80.74 88.3528 80.6384 88.3323 80.5341C88.3115 80.4301 88.2121 80.3627 88.1103 80.3837" fill="#1D2A30"/>
<path d="M83.9407 107.606C83.9404 107.603 83.6664 105.725 83.2093 103.461C82.7508 101.196 82.1151 98.5525 81.3703 96.9867C81.3249 96.8911 81.2122 96.8513 81.1186 96.8977C81.025 96.9445 80.986 97.0597 81.0314 97.1553C81.7458 98.6505 82.3867 101.288 82.8404 103.539C83.0679 104.665 83.2496 105.697 83.375 106.446C83.4375 106.821 83.4857 107.126 83.5185 107.336C83.5513 107.546 83.568 107.662 83.568 107.662C83.5834 107.768 83.6794 107.84 83.7822 107.825C83.885 107.809 83.9561 107.711 83.9407 107.606" fill="#1D2A30"/>
<path d="M77.8943 90.5228C77.8943 90.5232 77.9793 90.6446 78.1221 90.8589C78.5502 91.5011 79.4917 92.9681 80.1456 94.3719C80.1903 94.4678 80.3027 94.5087 80.397 94.463C80.491 94.4172 80.5306 94.3024 80.4859 94.2061C79.5925 92.2906 78.2038 90.304 78.2011 90.2991C78.1406 90.2126 78.0227 90.1923 77.938 90.2541C77.8533 90.3159 77.8338 90.4363 77.8943 90.5228" fill="#1D2A30"/>
<path d="M107.031 96.0611C107.415 94.5728 107.825 93.2675 108.224 92.4344C108.269 92.3391 108.231 92.2236 108.137 92.1768C108.044 92.1304 107.931 92.1698 107.885 92.2655C107.465 93.1446 107.055 94.4619 106.667 95.963C106.64 96.0656 106.7 96.171 106.801 96.1979C106.901 96.2251 107.005 96.1637 107.031 96.0611" fill="#1D2A30"/>
<path d="M104.769 107.664C104.77 107.663 104.819 107.343 104.907 106.796C105.174 105.152 105.795 101.467 106.499 98.2945C106.522 98.1908 106.458 98.0879 106.357 98.0641C106.255 98.0407 106.154 98.1057 106.131 98.2093C105.188 102.458 104.398 107.602 104.397 107.604C104.381 107.709 104.451 107.808 104.554 107.824C104.657 107.841 104.753 107.769 104.769 107.664" fill="#1D2A30"/>
<path d="M106.075 100.532C106.802 99.5394 107.861 98.7998 109.03 98.4676C109.13 98.4393 109.189 98.3332 109.161 98.2306C109.133 98.1283 109.029 98.0683 108.929 98.0969C107.678 98.4529 106.552 99.2392 105.773 100.301C105.711 100.386 105.728 100.507 105.811 100.57C105.894 100.634 106.013 100.617 106.075 100.532" fill="#1D2A30"/>
<path d="M98.2443 84.3915C98.2456 84.3918 104.613 86.9903 108.729 88.4687L108.791 88.2869L108.662 88.4272L108.674 88.4391C108.95 88.7141 113.845 93.753 119.089 110.031L119.268 109.97L119.106 109.872C119.106 109.872 119.088 109.903 119.05 109.965C118.482 110.897 113.579 118.52 104.8 121.059C104.7 121.088 104.642 121.195 104.67 121.297C104.698 121.399 104.802 121.459 104.903 121.43C114.434 118.663 119.418 110.085 119.43 110.069C119.458 110.021 119.464 109.963 119.447 109.91C114.019 93.0615 108.948 88.1735 108.92 88.1469L108.854 88.1054C106.803 87.369 104.184 86.3505 102.08 85.5167C101.028 85.1 100.103 84.7293 99.4427 84.4627C98.7817 84.196 98.3854 84.0344 98.3843 84.0337C98.2877 83.9943 98.178 84.0424 98.1394 84.1412C98.1008 84.24 98.1476 84.352 98.2443 84.3915Z" fill="#1D2A30"/>
<path d="M106.613 113.519L111.178 109.625L111.057 109.477L111.171 109.63L111.184 109.621C111.321 109.516 112.576 108.626 114.12 108.628C114.684 108.629 115.287 108.745 115.9 109.057C115.992 109.105 116.106 109.066 116.152 108.971C116.199 108.876 116.161 108.76 116.068 108.713C115.4 108.371 114.735 108.243 114.12 108.243C112.323 108.247 110.959 109.314 110.943 109.324L110.936 109.329L106.372 113.223C106.292 113.291 106.281 113.413 106.348 113.494C106.414 113.576 106.533 113.587 106.613 113.519Z" fill="#1D2A30"/>
<path d="M106.159 100.054C106.159 100.054 106.217 100.141 106.322 100.303C106.688 100.871 107.619 102.345 108.562 104.095C109.506 105.843 110.46 107.871 110.875 109.525C110.901 109.628 111.003 109.69 111.104 109.664C111.205 109.637 111.266 109.532 111.24 109.429C110.747 107.471 109.556 105.082 108.488 103.172C107.419 101.264 106.473 99.84 106.471 99.8375C106.413 99.7496 106.295 99.7265 106.209 99.7862C106.123 99.8459 106.101 99.9656 106.159 100.054" fill="#1D2A30"/>
<path d="M80.6478 110.639L79.312 109.338C79.2847 109.311 79.2516 109.294 79.2143 109.287C79.2054 109.286 78.9974 109.249 78.6442 109.249C77.8782 109.249 76.4232 109.422 74.8483 110.501C74.7616 110.56 74.7387 110.68 74.7964 110.768C74.8545 110.856 74.9717 110.88 75.0581 110.821C76.5578 109.793 77.9319 109.635 78.6442 109.634C78.8081 109.634 78.9366 109.643 79.023 109.651C79.0664 109.655 79.0992 109.659 79.1204 109.662L79.1436 109.666L79.1494 109.667L79.1819 109.477L79.0517 109.616L80.3878 110.918C80.463 110.991 80.5822 110.988 80.6539 110.911C80.726 110.834 80.7229 110.712 80.6478 110.639" fill="#1D2A30"/>
<path d="M79.3623 109.533C79.3623 109.533 79.3879 109.447 79.436 109.29C79.6055 108.739 80.052 107.321 80.6341 105.729C81.2156 104.137 81.9347 102.37 82.6405 101.131C82.6928 101.039 82.6624 100.921 82.5725 100.867C82.4827 100.814 82.3672 100.845 82.3149 100.937C81.4851 102.396 80.6604 104.511 80.0387 106.268C79.4179 108.024 79.0022 109.419 79.0015 109.421C78.9714 109.523 79.0275 109.63 79.1269 109.661C79.2266 109.692 79.3318 109.635 79.3623 109.533Z" fill="#1D2A30"/>
<path d="M86.2918 84.7147C86.2908 84.7151 83.9998 85.5932 81.5944 86.6001C80.3919 87.1038 79.1607 87.6392 78.1707 88.1145C77.6756 88.3522 77.2408 88.5749 76.8978 88.7724C76.5537 88.9724 76.3061 89.1372 76.1602 89.2998C76.0697 89.4077 76.0078 89.5511 75.9279 89.7616C75.6402 90.5389 75.2457 92.1873 74.8043 94.2786C74.1436 97.4125 73.3869 101.523 72.787 105.05C72.4874 106.813 72.2267 108.43 72.0368 109.706C71.8472 110.985 71.7283 111.913 71.7112 112.329L71.7105 112.371C71.7119 112.683 71.8407 113.002 72.0508 113.339C72.4208 113.929 73.0562 114.582 73.8525 115.271C76.2398 117.332 80.0793 119.685 82.3897 120.933C82.4816 120.983 82.5957 120.947 82.6443 120.853C82.6928 120.759 82.6579 120.642 82.5657 120.593C80.821 119.651 78.1799 118.061 75.9836 116.46C74.8852 115.66 73.8976 114.856 73.1921 114.135C72.8396 113.774 72.5574 113.434 72.3685 113.132C72.1779 112.83 72.086 112.566 72.0873 112.371L72.0877 112.345C72.0979 112.081 72.1608 111.527 72.2639 110.776C72.6261 108.144 73.4853 103.037 74.3513 98.4819C74.7845 96.2042 75.2194 94.0633 75.5945 92.4393C75.782 91.6275 75.9545 90.9444 76.1035 90.4408C76.178 90.1891 76.2463 89.9822 76.3064 89.8289C76.3645 89.6771 76.4226 89.5745 76.4407 89.5571C76.5192 89.4642 76.7543 89.2956 77.0829 89.1079C78.2407 88.4402 80.5839 87.427 82.6275 86.5872C83.6503 86.167 84.5997 85.7887 85.2932 85.5157C85.9867 85.2428 86.423 85.0756 86.4244 85.0752C86.5217 85.0379 86.5709 84.9269 86.5344 84.8274C86.4978 84.728 86.3892 84.6774 86.2918 84.7147" fill="#1D2A30"/>
<path d="M119.517 81.7417H109.081C107.848 81.7417 106.849 80.7212 106.849 79.4619V73.2063C106.849 71.9474 107.848 70.9269 109.081 70.9269H119.517C120.75 70.9269 121.749 71.9474 121.749 73.2063V79.4619C121.749 80.7212 120.75 81.7417 119.517 81.7417" fill="white"/>
<path d="M119.517 81.7418V81.5495H109.081C108.516 81.5495 108.006 81.316 107.636 80.938C107.266 80.5596 107.037 80.0389 107.037 79.462V73.2064C107.037 72.6295 107.266 72.1091 107.636 71.7308C108.006 71.3528 108.516 71.1196 109.081 71.1196H119.517C120.082 71.1196 120.592 71.3528 120.962 71.7308C121.332 72.1091 121.561 72.6295 121.561 73.2064V79.462C121.561 80.0389 121.332 80.5596 120.962 80.938C120.592 81.316 120.082 81.5495 119.517 81.5495V81.7418V81.9344C120.854 81.9344 121.937 80.8273 121.937 79.462V73.2064C121.937 71.841 120.854 70.7347 119.517 70.7343H109.081C107.744 70.7347 106.661 71.841 106.661 73.2064V79.462C106.661 80.8273 107.744 81.9344 109.081 81.9344H119.517V81.7418" fill="#1D2A30"/>
<path d="M111.556 74.0164L108.691 75.854C108.641 75.8861 108.609 75.9409 108.603 76.0013C108.599 76.0613 108.622 76.121 108.666 76.1612L111.325 78.5705C111.403 78.641 111.522 78.6336 111.591 78.5541C111.66 78.4745 111.653 78.353 111.575 78.2825L109.105 76.0435L111.757 74.3428C111.845 74.2862 111.871 74.1672 111.816 74.0771C111.761 73.9871 111.644 73.9599 111.556 74.0164" fill="#1D2A30"/>
<path d="M117 78.7479L119.574 76.5061C119.62 76.467 119.644 76.408 119.64 76.3476C119.637 76.2873 119.605 76.2318 119.555 76.1986L116.583 74.2078C116.496 74.1495 116.38 74.1743 116.322 74.2633C116.265 74.3523 116.29 74.4716 116.376 74.5299L119.138 76.3798L116.755 78.455C116.676 78.5238 116.666 78.6453 116.734 78.7262C116.801 78.8072 116.92 78.817 117 78.7479" fill="#1D2A30"/>
<path d="M113.229 80.0392L115.344 73.2636C115.375 73.1624 115.321 73.0538 115.222 73.0217C115.123 72.9893 115.016 73.0455 114.985 73.1467L112.87 79.9223C112.838 80.0235 112.893 80.1317 112.992 80.1641C113.091 80.1966 113.197 80.1404 113.229 80.0392" fill="#1D2A30"/>
<path d="M93.2074 91.5293C93.2074 91.8696 92.9378 92.145 92.6047 92.145C92.272 92.145 92.0024 91.8696 92.0024 91.5293C92.0024 91.1897 92.272 90.9144 92.6047 90.9144C92.9378 90.9144 93.2074 91.1897 93.2074 91.5293Z" fill="#1D2A30"/>
<path d="M103.806 124.415H82.9606C82.6911 124.415 82.4721 124.191 82.4721 123.915C82.4721 123.639 82.6911 123.416 82.9606 123.416H103.806C104.076 123.416 104.294 123.639 104.294 123.915C104.294 124.191 104.076 124.415 103.806 124.415Z" fill="#1D2A30"/>
<path d="M104.536 122.76L107.329 109.357C107.514 108.47 106.852 107.634 105.964 107.634H81.6088C80.7291 107.634 80.0687 108.455 80.2392 109.337L82.7437 122.293C82.8704 122.949 83.4266 123.427 84.0811 123.442L103.138 123.888C103.809 123.904 104.396 123.43 104.536 122.76" fill="white"/>
<path d="M104.536 122.76L104.72 122.8L107.513 109.397C107.537 109.283 107.548 109.169 107.548 109.057C107.548 108.185 106.857 107.442 105.964 107.441H81.6088C80.7171 107.442 80.024 108.184 80.0236 109.057C80.0236 109.161 80.0335 109.267 80.0544 109.374L82.5588 122.33C82.7027 123.075 83.334 123.617 84.0767 123.635L103.134 124.081L103.171 124.081C103.917 124.081 104.564 123.548 104.72 122.8L104.536 122.76L104.351 122.719C104.232 123.29 103.739 123.696 103.171 123.696L103.143 123.696L84.0852 123.25C83.5192 123.237 83.0381 122.823 82.9285 122.255L80.424 109.299C80.4083 109.218 80.4005 109.137 80.4005 109.057C80.4005 108.726 80.5323 108.418 80.7499 108.193C80.9679 107.968 81.2678 107.827 81.6088 107.827H105.964C106.305 107.827 106.605 107.968 106.823 108.193C107.04 108.419 107.172 108.726 107.172 109.057C107.172 109.142 107.163 109.229 107.145 109.317L104.351 122.719L104.536 122.76" fill="#1D2A30"/>
<path d="M95.6476 115.358C95.6476 116.455 94.7768 117.344 93.7031 117.344C92.6293 117.344 91.7589 116.455 91.7589 115.358C91.7589 114.26 92.6293 113.371 93.7031 113.371C94.7768 113.371 95.6476 114.26 95.6476 115.358" fill="#1D2A30"/>
<path d="M99.469 109.099H102.363C102.467 109.099 102.551 109.012 102.551 108.906C102.551 108.8 102.467 108.714 102.363 108.714H99.469C99.3648 108.714 99.2805 108.8 99.2805 108.906C99.2805 109.012 99.3648 109.099 99.469 109.099Z" fill="#1D2A30"/>
<path d="M85.6506 109.099H96.6345C96.7387 109.099 96.8231 109.012 96.8231 108.906C96.8231 108.8 96.7387 108.714 96.6345 108.714H85.6506C85.5464 108.714 85.462 108.8 85.462 108.906C85.462 109.012 85.5464 109.099 85.6506 109.099Z" fill="#1D2A30"/>
<path d="M104.584 136.977L102.363 142.931C102.363 142.931 96.7012 141.473 89.4467 139.954C81.8612 138.366 73.9386 136.31 69.8292 128.945C69.328 128.046 68.9946 126.985 69.2293 125.98C69.8223 123.435 73.062 122.745 75.1971 122.49C76.5377 122.33 77.8905 122.277 79.2389 122.258C79.9266 122.248 82.1943 121.88 82.7437 122.293C82.7437 122.293 84.1669 123.363 85.3797 123.889C86.5921 124.415 104.294 123.416 104.294 123.416C104.294 123.416 104.821 122.281 104.851 121.244C107.634 119.799 114.078 118.576 116.8 119.116C121.082 119.967 123.579 122.518 123.103 125.191C122.628 127.865 113.18 135.033 104.584 136.977" fill="#1D2A30"/>
<path d="M104.632 136.791C104.631 136.791 104.55 136.769 104.396 136.724C103.315 136.407 98.7232 134.96 94.9039 132.322C92.9101 130.947 91.1053 129.461 89.1403 128.314C87.1763 127.166 85.0462 126.359 82.4266 126.36C81.907 126.36 81.3683 126.392 80.808 126.459C80.7045 126.471 80.6304 126.566 80.6423 126.672C80.6546 126.778 80.7479 126.853 80.8514 126.841C81.3976 126.776 81.9217 126.745 82.4266 126.745C84.969 126.746 87.0229 127.522 88.9534 128.648C90.8833 129.774 92.6829 131.253 94.6927 132.641C99.1284 135.701 104.525 137.16 104.535 137.163C104.636 137.191 104.739 137.13 104.766 137.027C104.792 136.924 104.732 136.819 104.632 136.791Z" fill="white"/>
<path d="M93.8383 131.95C96.668 131.117 98.7273 129.257 100.951 127.5C103.309 125.635 105.799 123.832 108.468 122.452C108.561 122.404 108.598 122.289 108.551 122.194C108.504 122.099 108.391 122.061 108.298 122.109C105.595 123.506 103.087 125.323 100.72 127.195C98.4838 128.966 96.463 130.779 93.7341 131.58C93.634 131.61 93.5763 131.716 93.605 131.819C93.6337 131.921 93.7382 131.98 93.8383 131.95" fill="white"/>
<path d="M92.809 73.3976H93.6241C93.7283 73.3976 93.8127 73.3114 93.8127 73.2049C93.8127 73.0988 93.7283 73.0126 93.6241 73.0126H92.809C92.7048 73.0126 92.6204 73.0988 92.6204 73.2049C92.6204 73.3114 92.7048 73.3976 92.809 73.3976Z" fill="#1D2A30"/>
</svg>
