<svg width="303" height="300" viewBox="0 0 303 300" fill="none" xmlns="http://www.w3.org/2000/svg">
<path d="M34.646 78.0078H267.984" stroke="#D5CBC6" stroke-width="2.62376" stroke-miterlimit="10"/>
<path d="M264.937 252.665H37.6935C36.0104 252.665 34.646 250.818 34.646 248.542V61.4332C34.646 59.1563 36.0104 57.3101 37.6935 57.3101H264.937C266.62 57.3101 267.984 59.1563 267.984 61.4332V248.542C267.984 250.818 266.62 252.665 264.937 252.665Z" stroke="#D5CBC6" stroke-width="2.62376" stroke-miterlimit="10"/>
<path d="M50.0243 67.8706C50.0243 69.4653 49.0683 70.7583 47.8898 70.7583C46.7109 70.7583 45.7554 69.4653 45.7554 67.8706C45.7554 66.2754 46.7109 64.9824 47.8898 64.9824C49.0683 64.9824 50.0243 66.2754 50.0243 67.8706Z" fill="#F79395"/>
<path d="M58.319 67.8706C58.319 69.4653 57.3635 70.7583 56.1845 70.7583C55.0056 70.7583 54.0505 69.4653 54.0505 67.8706C54.0505 66.2754 55.0056 64.9824 56.1845 64.9824C57.3635 64.9824 58.319 66.2754 58.319 67.8706Z" fill="#D5C23E"/>
<path d="M66.6144 67.8706C66.6144 69.4653 65.6584 70.7583 64.4799 70.7583C63.301 70.7583 62.3455 69.4653 62.3455 67.8706C62.3455 66.2754 63.301 64.9824 64.4799 64.9824C65.6584 64.9824 66.6144 66.2754 66.6144 67.8706Z" fill="#30867A"/>
<path d="M298.297 147.723H243.458C241.912 147.723 240.659 146.027 240.659 143.935V75.3055C240.659 73.2133 241.912 71.5175 243.458 71.5175H298.297C299.843 71.5175 301.097 73.2133 301.097 75.3055V143.935C301.097 146.027 299.843 147.723 298.297 147.723Z" fill="#E7E5E4"/>
<path d="M298.297 147.723H243.458C241.912 147.723 240.659 146.027 240.659 143.935V75.3055C240.659 73.2133 241.912 71.5175 243.458 71.5175H298.297C299.843 71.5175 301.097 73.2133 301.097 75.3055V143.935C301.097 146.027 299.843 147.723 298.297 147.723V147.723Z" stroke="#D5CBC6" stroke-width="2.62376" stroke-miterlimit="10"/>
<path d="M256.716 127.899H285.218C286.772 127.899 288.032 126.194 288.032 124.091V92.4826C288.032 90.3803 286.772 88.6756 285.218 88.6756H256.716C255.162 88.6756 253.902 90.3803 253.902 92.4826V124.091C253.902 126.194 255.162 127.899 256.716 127.899Z" fill="#AF61B7"/>
<path d="M278.753 114.809H263.002V100.516H278.753V104.089V114.809Z" stroke="white" stroke-width="2.19547" stroke-miterlimit="10" stroke-linecap="round" stroke-linejoin="round"/>
<path d="M263.002 100.516L270.878 108.914L278.753 100.516" stroke="white" stroke-width="2.19547" stroke-miterlimit="10" stroke-linecap="round" stroke-linejoin="round"/>
<path d="M56.9687 205.19H4.66945C3.19499 205.19 2 203.573 2 201.578V139.876C2 137.882 3.19499 136.264 4.66945 136.264H56.9687C58.4429 136.264 59.6386 137.882 59.6386 139.876V201.578C59.6386 203.573 58.4429 205.19 56.9687 205.19Z" fill="#E7E5E4"/>
<path d="M56.9687 205.19H4.66945C3.19499 205.19 2 203.573 2 201.578V139.876C2 137.882 3.19499 136.264 4.66945 136.264H56.9687C58.4429 136.264 59.6386 137.882 59.6386 139.876V201.578C59.6386 203.573 58.4429 205.19 56.9687 205.19V205.19Z" stroke="#D5CBC6" stroke-width="2.62376" stroke-miterlimit="10"/>
<path d="M44.2455 191.911H17.1212C15.4078 191.911 14.0188 190.032 14.0188 187.713V152.267C14.0188 149.948 15.4078 148.069 17.1212 148.069H44.2455C45.9589 148.069 47.3481 149.948 47.3481 152.267V187.713C47.3481 190.032 45.9589 191.911 44.2455 191.911Z" fill="#F79395"/>
<path d="M39.3701 169.654H35.3194C35.2974 168.007 35.139 166.358 34.8377 164.711H38.2772C38.8982 166.186 39.2851 167.864 39.3701 169.654ZM38.2772 176.089H34.7288C35.0493 174.441 35.2432 172.794 35.3026 171.145H39.3701C39.2851 172.936 38.8987 174.615 38.2772 176.089ZM33.2419 181.456C33.7041 180.164 34.0924 178.872 34.4036 177.58H37.5286C36.4441 179.414 34.954 180.789 33.2419 181.456ZM30.8869 181.904C30.5094 181.904 30.1374 181.87 29.7734 181.806C29.2538 180.397 28.8113 178.989 28.4553 177.58H33.3181C32.962 178.989 32.5195 180.397 32.0009 181.806C31.6359 181.87 31.2645 181.904 30.8869 181.904ZM24.2452 177.58H27.3703C27.6815 178.872 28.0698 180.164 28.5314 181.456C26.8198 180.789 25.3292 179.414 24.2452 177.58ZM23.4966 176.089C22.8752 174.615 22.4883 172.936 22.4036 171.145H26.4712C26.5306 172.793 26.724 174.441 27.045 176.089H23.4966ZM23.4966 164.711H26.9362C26.6348 166.358 26.4764 168.007 26.4544 169.654H22.4036C22.4883 167.864 22.8752 166.186 23.4966 164.711ZM28.416 159.39C27.9375 160.666 27.5497 161.944 27.2483 163.22H24.2452C25.3049 161.427 26.7525 160.073 28.416 159.39ZM30.8869 158.896C31.3402 158.896 31.7845 158.945 32.2182 159.036C32.7957 160.431 33.248 161.825 33.5844 163.22H28.1894C28.5258 161.825 28.9781 160.431 29.5557 159.036C29.9893 158.945 30.4341 158.896 30.8869 158.896ZM34.3101 171.145C34.2269 172.793 34.0064 174.441 33.6625 176.089H28.1109C27.7674 174.441 27.5469 172.794 27.4637 171.145H34.3101ZM27.4268 169.654C27.4282 168.007 27.5717 166.358 27.873 164.711H33.9008C34.2022 166.358 34.3456 168.007 34.347 169.654H27.4268ZM37.5286 163.22H34.5255C34.2241 161.944 33.8363 160.666 33.3578 159.39C35.0213 160.073 36.4689 161.427 37.5286 163.22ZM24.2237 161.383C20.5641 166.335 20.5641 174.464 24.2237 179.417C27.8833 184.369 33.8905 184.369 37.5501 179.417C41.2098 174.464 41.2098 166.335 37.5501 161.383C33.8905 156.431 27.8833 156.431 24.2237 161.383Z" fill="white"/>
<path d="M53.8516 39.2827H6.47152C5.49283 39.2827 4.69922 38.2091 4.69922 36.8844C4.69922 35.5604 5.49283 34.4862 6.47152 34.4862H53.8516C54.8305 34.4862 55.6239 35.5604 55.6239 36.8844C55.6239 38.2091 54.8305 39.2827 53.8516 39.2827Z" fill="#AF61B7"/>
<path d="M300.228 195.89H277.231C276.253 195.89 275.459 194.817 275.459 193.492C275.459 192.168 276.253 191.094 277.231 191.094H300.228C301.207 191.094 302 192.168 302 193.492C302 194.817 301.207 195.89 300.228 195.89Z" fill="#62CBCF"/>
<path d="M284.121 223.633H281.312C280.573 223.633 279.974 222.823 279.974 221.824V218.254C279.974 217.255 280.573 216.446 281.312 216.446H284.121C284.86 216.446 285.459 217.255 285.459 218.254V221.824C285.459 222.823 284.86 223.633 284.121 223.633Z" fill="#AF61B7"/>
<path d="M17.7576 240.249H14.9474C14.2091 240.249 13.6106 239.438 13.6106 238.44V234.87C13.6106 233.871 14.2091 233.061 14.9474 233.061H17.7576C18.4959 233.061 19.0946 233.871 19.0946 234.87V238.44C19.0946 239.438 18.4959 240.249 17.7576 240.249Z" fill="#F79395"/>
<path d="M232.829 36.8057H186.063C185.286 36.8057 184.655 35.9533 184.655 34.9012V19.4507C184.655 18.3992 185.286 17.5468 186.063 17.5468H232.829C233.606 17.5468 234.236 18.3992 234.236 19.4507V34.9012C234.236 35.9533 233.606 36.8057 232.829 36.8057Z" fill="#F79395"/>
<path d="M191.409 24.4087H224.668" stroke="white" stroke-width="1.57375" stroke-miterlimit="10"/>
<path d="M191.409 29.0278H204.956" stroke="white" stroke-width="1.57375" stroke-miterlimit="10"/>
<path d="M190.056 34.6265V42.1323L197.032 34.6265H190.056Z" fill="#F79395"/>
<path d="M117.931 37.9512H95.2929C93.0939 37.9512 91.3118 35.539 91.3118 32.5641V4.08461C91.3118 1.82861 92.6631 3.05176e-05 94.3298 3.05176e-05H117.931C119.598 3.05176e-05 120.949 1.82861 120.949 4.08461V33.8666C120.949 36.1226 119.598 37.9512 117.931 37.9512Z" fill="#62CBCF"/>
<path d="M112.354 23.9025C112.233 24.0656 112.113 24.2288 111.992 24.3919C111.781 24.6366 111.601 24.9224 111.389 25.2076C111.088 25.6154 110.756 25.8196 110.304 25.8196C110.244 25.8196 110.214 25.8196 110.154 25.8196C109.25 25.7381 108.406 25.2487 107.803 24.8408C106.086 23.6989 104.579 22.1087 103.313 20.0696C102.289 18.3972 101.596 16.807 101.113 15.1352C100.812 14.1565 100.691 13.3819 100.752 12.6067C100.782 12.1584 100.902 11.7506 101.174 11.4243L102.198 10.0377C102.289 9.9157 102.439 9.75255 102.62 9.75255C102.801 9.75255 102.921 9.8746 103.042 10.0377C103.223 10.2824 103.403 10.5271 103.584 10.7718C103.675 10.8945 103.765 11.057 103.886 11.1796L104.73 12.3216C104.82 12.4436 104.94 12.6883 104.94 12.8925C104.94 13.1372 104.82 13.3408 104.73 13.4628C104.639 13.5855 104.549 13.7082 104.458 13.8302C104.187 14.1975 103.946 14.5232 103.705 14.8494C103.705 14.8494 103.705 14.8494 103.675 14.8905C103.374 15.2984 103.434 15.6657 103.494 15.9098V15.9509C103.705 16.685 104.037 17.3369 104.488 18.1531C105.332 19.5802 106.236 20.681 107.231 21.5378C107.351 21.6598 107.502 21.7414 107.622 21.8229C107.743 21.9045 107.834 21.9456 107.924 22.0272L107.954 22.0676C108.255 22.2712 108.556 22.1897 108.798 21.864L109.853 20.4363C109.943 20.3143 110.094 20.1512 110.275 20.1512C110.426 20.1512 110.576 20.3143 110.666 20.4363L112.354 22.7201C112.625 23.0869 112.625 23.4947 112.354 23.9025ZM113.047 21.7825L111.36 19.4986C111.058 19.0497 110.666 18.805 110.275 18.805C109.883 18.805 109.491 19.0497 109.19 19.4582L108.225 20.7626C108.165 20.7221 108.105 20.681 108.044 20.6405C107.924 20.559 107.834 20.5179 107.743 20.4363C106.839 19.6618 106.025 18.6419 105.242 17.3368C104.88 16.7254 104.609 16.1551 104.458 15.6657C104.7 15.3799 104.91 15.0537 105.121 14.7685C105.212 14.6458 105.302 14.5232 105.393 14.4011C105.724 13.9528 105.905 13.4224 105.905 12.8925C105.905 12.362 105.724 11.8321 105.393 11.3832L104.549 10.242C104.458 10.1193 104.368 9.99725 104.277 9.83412C104.097 9.58942 103.886 9.30428 103.705 9.05895C103.403 8.65112 103.012 8.40706 102.62 8.40706C102.228 8.40706 101.867 8.61066 101.535 9.05895L100.48 10.4867C100.089 11.0165 99.8475 11.7101 99.7872 12.4847C99.727 13.7082 99.9681 14.8494 100.179 15.5841C100.661 17.4595 101.414 19.1313 102.53 20.9257C103.886 23.0869 105.483 24.8004 107.351 26.0232C108.044 26.4715 109.009 27.002 110.064 27.124C110.124 27.124 110.184 27.124 110.275 27.124C110.998 27.124 111.601 26.7573 112.082 26.0637C112.082 26.0637 112.082 26.0637 112.113 26.0232C112.264 25.7785 112.444 25.5338 112.655 25.2891C112.776 25.126 112.927 24.9224 113.047 24.7593C113.68 23.8621 113.68 22.6386 113.047 21.7825Z" fill="white"/>
<path d="M216.407 181.642L199.35 178.569L199.483 180.861L184.901 183.488C184.901 183.488 175.501 215.4 183.785 285.581H195.648L199.917 214.417H201.433L205.568 285.581H217.431C225.715 215.4 216.407 181.642 216.407 181.642Z" fill="#826467"/>
<path d="M194.494 214.417H206.87" stroke="#28262C" stroke-width="1.64441" stroke-miterlimit="10" stroke-linecap="round" stroke-linejoin="round"/>
<path d="M226.367 147.979C224.908 144.827 216.711 144.938 216.278 144.87C214.062 144.518 217.699 168.378 222.309 189.236C223.193 193.234 226.444 195.317 229.283 193.688C229.314 193.67 229.345 193.652 229.376 193.635C231.622 192.347 232.9 189.12 232.448 185.876C230.256 170.138 228.054 151.623 226.367 147.979Z" fill="#F79395"/>
<path d="M228.321 156.606L217.855 162.102L216.874 155.383L227.711 151.725L228.321 156.606Z" fill="#EC767F"/>
<path d="M230.297 170.048C230.297 170.048 225.339 179.058 225.576 178.643C225.812 178.229 229.463 164.084 229.463 164.084L230.297 170.048Z" fill="#EC767F"/>
<path d="M237.386 157.939L223.175 182.853C221.309 186.124 221.905 190.853 224.467 193.103C227.023 195.349 230.453 194.169 231.905 190.542L243.734 161.011L237.386 157.939Z" fill="#F79395"/>
<path d="M241.063 164.336C237.983 162.989 236.292 158.519 237.287 154.349C238.283 150.181 241.587 147.894 244.667 149.24C247.748 150.587 249.439 155.058 248.443 159.226C247.448 163.396 244.144 165.683 241.063 164.336Z" fill="#F79395"/>
<path d="M247.14 152.02C247.14 152.02 248.744 149.766 245.898 148.187C243.052 146.607 239.534 146.97 237.287 154.35L247.14 152.02Z" fill="#F79395"/>
<path d="M250.088 136.275L256.038 139.766C256.369 139.96 256.489 140.491 256.306 140.952L248.479 160.737C248.297 161.197 247.881 161.414 247.55 161.22L241.6 157.729C241.268 157.535 241.148 157.003 241.33 156.543L249.158 136.758C249.34 136.297 249.757 136.081 250.088 136.275Z" fill="#3B3261"/>
<path d="M249.52 135.925L255.469 139.416C255.801 139.61 255.921 140.141 255.738 140.602L247.911 160.386C247.729 160.847 247.313 161.063 246.981 160.869L241.032 157.378C240.7 157.184 240.58 156.654 240.763 156.192L248.59 136.408C248.772 135.947 249.188 135.731 249.52 135.925Z" fill="#2D2446"/>
<path d="M248.848 137.938L254.076 141.005L247.697 157.129L242.469 154.063L248.848 137.938Z" fill="#DFDCDA"/>
<path d="M254.076 141.005L242.469 154.062L248.848 137.938L254.076 141.005Z" fill="white"/>
<path d="M244.189 147.53C244.189 147.53 245.514 147.879 246.71 148.796C247.237 149.2 247.506 150.022 247.361 150.818C247.227 151.543 246.778 152.082 246.231 152.175L243.138 152.703C243.138 152.703 241.523 156.468 239.415 156.89L241.349 150.281L244.189 147.53Z" fill="#F79395"/>
<path d="M204.685 116.604C204.343 116.601 226.621 120.776 230.297 155.145L218.737 157.542L216.407 183.488H184.157L177.755 135.549C177.755 135.549 184.9 121.693 198.166 116.604H204.685Z" fill="#62CBCF"/>
<path d="M218.737 157.542L219.74 142.535" stroke="#28262C" stroke-width="1.64441" stroke-miterlimit="10" stroke-linecap="round" stroke-linejoin="round"/>
<path d="M206.802 117.096V105.157H196.463V117.236C195.934 117.45 195.053 117.881 193.686 118.76L201.749 125.26L209.993 118.76C209.993 118.76 208.684 117.73 206.802 117.096Z" fill="#F79395"/>
<path d="M196.367 106.616C196.367 106.616 198.224 113.288 203.181 112.712C207.736 112.183 207.011 102.937 207.011 102.937L196.367 106.616Z" fill="#28262C"/>
<path d="M191.858 97.7434C190.238 99.7326 186.614 92.1882 188.18 90.07C189.746 87.9525 190.941 91.2752 190.941 91.2752L191.64 93.5274L192.167 96.5769L192.292 97.3761L191.858 97.7434Z" fill="#EC767F"/>
<path d="M188.937 92.7427C188.937 92.7427 190.163 91.996 191.253 94.4019" stroke="#28262C" stroke-width="1.32378" stroke-miterlimit="10" stroke-linecap="round" stroke-linejoin="round"/>
<path d="M211.022 97.5146C212.513 99.6821 216.595 92.5796 215.167 90.2901C213.74 88 212.341 91.1747 212.341 91.1747L211.504 93.3384L210.788 96.3171L210.613 97.0986L211.022 97.5146Z" fill="#EC767F"/>
<path d="M214.246 92.8659C214.246 92.8659 213.071 91.9813 211.834 94.2544" stroke="#28262C" stroke-width="1.32378" stroke-miterlimit="10" stroke-linecap="round" stroke-linejoin="round"/>
<path d="M189.016 82.8742C189.016 92.8605 194.643 97.5957 201.584 97.5957C208.525 97.5957 214.151 92.8605 214.151 82.8742C214.151 72.8872 208.525 66.0933 201.584 66.0933C194.643 66.0933 189.016 72.8872 189.016 82.8742Z" fill="#28262C"/>
<path d="M190.724 83.5682C190.724 89.6988 191.364 94.9892 192.003 98.7443C192.629 102.42 194.389 104.989 196.877 107.057L197.33 107.434C199.963 109.622 203.363 109.673 206.036 107.564C208.732 105.438 210.619 102.634 211.2 98.6893C212.256 91.5148 212.372 83.5682 212.372 83.5682C212.372 83.5682 213.377 68.0923 201.703 68.3926C190.028 68.6936 190.724 83.5682 190.724 83.5682Z" fill="#F79395"/>
<path d="M200.84 92.4005V94.5421C200.84 94.6685 200.857 94.7905 200.891 94.9018C201.02 95.3394 201.394 95.5493 201.731 95.4279L202.457 95.1674" stroke="#28262C" stroke-width="1.64217" stroke-miterlimit="10" stroke-linecap="round" stroke-linejoin="round"/>
<path d="M198.983 84.0961L193.181 85.936C193.181 85.936 193.445 83.938 195.818 83.2115C198.192 82.4857 198.983 84.0961 198.983 84.0961Z" fill="#28262C"/>
<path d="M204.133 84.0961L209.735 85.936C209.735 85.936 209.48 83.938 207.188 83.2115C204.897 82.4857 204.133 84.0961 204.133 84.0961Z" fill="#28262C"/>
<path d="M197.757 89.8634C197.757 90.5924 197.319 91.1836 196.779 91.1836C196.238 91.1836 195.801 90.5924 195.801 89.8634C195.801 89.1337 196.238 88.5425 196.779 88.5425C197.319 88.5425 197.757 89.1337 197.757 89.8634Z" fill="#28262C"/>
<path d="M207.034 89.8634C207.034 90.5924 206.595 91.1836 206.055 91.1836C205.515 91.1836 205.076 90.5924 205.076 89.8634C205.076 89.1337 205.515 88.5425 206.055 88.5425C206.595 88.5425 207.034 89.1337 207.034 89.8634Z" fill="#28262C"/>
<path d="M197.757 97.9204H205.303C205.303 97.9204 201.959 103.426 197.757 97.9204Z" fill="white"/>
<path d="M200.528 90.3758C200.528 93.4854 198.665 96.0063 196.367 96.0063C194.069 96.0063 192.206 93.4854 192.206 90.3758C192.206 87.2662 194.069 84.7453 196.367 84.7453C198.665 84.7453 200.528 87.2662 200.528 90.3758Z" stroke="#AF61B7" stroke-width="1.78973" stroke-miterlimit="10"/>
<path d="M210.75 90.3758C210.75 93.4854 208.887 96.0063 206.589 96.0063C204.291 96.0063 202.428 93.4854 202.428 90.3758C202.428 87.2662 204.291 84.7453 206.589 84.7453C208.887 84.7453 210.75 87.2662 210.75 90.3758Z" stroke="#AF61B7" stroke-width="1.78973" stroke-miterlimit="10"/>
<path d="M200.528 90.376C200.528 90.376 201.513 89.131 202.428 90.376" stroke="#AF61B7" stroke-width="1.78973" stroke-miterlimit="10"/>
<path d="M192.206 90.376L190.896 90.3311" stroke="#AF61B7" stroke-width="1.78973" stroke-miterlimit="10"/>
<path d="M210.75 90.376L212.068 90.3311" stroke="#AF61B7" stroke-width="1.78973" stroke-miterlimit="10"/>
<path d="M212.221 88.6992C212.221 88.6992 207.554 80.1608 208.631 71.5105C208.631 71.5105 212.095 73.8695 212.997 79.9585C213.9 86.048 212.221 88.6992 212.221 88.6992Z" fill="#28262C"/>
<path d="M190.716 89.2778C190.716 89.2778 196.139 79.5798 195.062 70.9295C195.062 70.9295 191.301 73.8696 190.399 79.9585C189.497 86.0481 190.716 89.2778 190.716 89.2778Z" fill="#28262C"/>
<path d="M211.83 74.9171C211.83 74.9171 205.837 83.7956 189.439 82.2756C189.439 82.2756 191.95 69.2473 199.897 67.8595C199.897 67.8595 209.072 66.3768 211.83 74.9171Z" fill="#28262C"/>
<path d="M219.239 64.5377C219.239 70.3889 215.733 75.1323 211.409 75.1323C207.085 75.1323 203.58 70.3889 203.58 64.5377C203.58 58.6872 207.085 53.9437 211.409 53.9437C215.733 53.9437 219.239 58.6872 219.239 64.5377Z" fill="#28262C"/>
<path d="M115.833 181.618L101.25 178.99L101.383 176.699L84.3273 179.772C84.3273 179.772 75.0188 213.529 83.303 283.71H95.1655L99.3003 212.547H100.817L105.086 283.71H116.948C125.233 213.529 115.833 181.618 115.833 181.618Z" fill="#28262C"/>
<path d="M114.67 85.6091C112.696 82.4667 111.116 78.8019 109.773 73.6583C108.331 68.1365 103.61 70.3811 103.61 70.3811C103.61 70.3811 99.6761 63.5328 93.7563 65.9184C87.8365 68.3034 85.7796 74.0035 85.659 80.7803C85.538 87.5578 81.5989 88.6176 78.5654 96.4573C73.2101 110.298 82.2265 121.956 98.6387 118.722L98.6607 118.506C100.277 119.17 102.258 119.461 104.676 119.266C124.393 117.682 122.49 98.0582 114.67 85.6091Z" fill="#28262C"/>
<path d="M108.215 95.873C109.835 97.8616 113.458 90.3177 111.892 88.1996C110.327 86.0814 109.132 89.4047 109.132 89.4047L108.433 91.6563L107.906 94.7064L107.781 95.505L108.215 95.873Z" fill="#EC767F"/>
<path d="M111.136 90.8715C111.136 90.8715 109.909 90.1254 108.819 92.5312" stroke="#28262C" stroke-width="1.32378" stroke-miterlimit="10" stroke-linecap="round" stroke-linejoin="round"/>
<path d="M89.0502 95.6445C87.5596 97.812 83.4775 90.7095 84.9055 88.42C86.3335 86.1299 87.7311 89.3039 87.7311 89.3039L88.5684 91.4682L89.2847 94.447L89.4595 95.2285L89.0502 95.6445Z" fill="#EC767F"/>
<path d="M85.8267 90.9958C85.8267 90.9958 87.0023 90.1112 88.2387 92.3843" stroke="#28262C" stroke-width="1.32378" stroke-miterlimit="10" stroke-linecap="round" stroke-linejoin="round"/>
<path d="M111.057 81.0029C111.057 90.9893 105.43 95.7251 98.489 95.7251C91.5482 95.7251 85.9214 90.9893 85.9214 81.0029C85.9214 71.0166 91.5482 64.2227 98.489 64.2227C105.43 64.2227 111.057 71.0166 111.057 81.0029Z" fill="#28262C"/>
<path d="M103.61 121.403H93.271V103.287H103.61V121.403Z" fill="#F79395"/>
<path d="M91.7625 102.157C91.7625 102.157 94.6404 109.929 98.1808 111.143C99.1266 111.467 100.137 111.356 101.049 110.919C102.382 110.279 104.071 107.591 104.359 104.616L104.492 102.917C104.492 102.917 98.1916 107.558 91.7625 102.157Z" fill="#28262C"/>
<path d="M109.348 81.6979C109.348 87.8285 108.709 93.1189 108.069 96.8734C107.444 100.55 105.684 103.118 103.195 105.187L102.743 105.563C100.11 107.751 96.7093 107.802 94.0366 105.694C91.3409 103.567 89.4536 100.763 88.8728 96.819C87.8163 89.6445 87.7009 81.6979 87.7009 81.6979C87.7009 81.6979 86.6958 66.2214 98.3705 66.5223C110.045 66.8227 109.348 81.6979 109.348 81.6979Z" fill="#F79395"/>
<path d="M97.7092 91.3678V92.64C97.7092 92.7664 97.7275 92.8878 97.7602 92.9991C97.8901 93.4354 98.2634 93.644 98.6008 93.5233L99.3269 93.264" stroke="#28262C" stroke-width="1.63968" stroke-miterlimit="10" stroke-linecap="round" stroke-linejoin="round"/>
<path d="M100.142 82.9791L106.353 84.9683C106.353 84.9683 106.071 82.8084 103.53 82.0231C100.989 81.2384 100.142 82.9791 100.142 82.9791Z" fill="#28262C"/>
<path d="M96.8809 82.9791L90.5896 84.9683C90.5896 84.9683 90.8756 82.8084 93.4493 82.0231C96.023 81.2384 96.8809 82.9791 96.8809 82.9791Z" fill="#28262C"/>
<path d="M94.6271 88.1958C94.6271 88.9223 94.1888 89.5122 93.6486 89.5122C93.108 89.5122 92.6697 88.9223 92.6697 88.1958C92.6697 87.4687 93.108 86.8787 93.6486 86.8787C94.1888 86.8787 94.6271 87.4687 94.6271 88.1958Z" fill="#28262C"/>
<path d="M103.903 88.1958C103.903 88.9223 103.465 89.5122 102.925 89.5122C102.384 89.5122 101.946 88.9223 101.946 88.1958C101.946 87.4687 102.384 86.8787 102.925 86.8787C103.465 86.8787 103.903 87.4687 103.903 88.1958Z" fill="#28262C"/>
<path d="M93.981 95.7249H102.569C102.569 95.7249 101.963 98.918 98.0686 98.918C95.1029 98.918 93.981 95.7249 93.981 95.7249Z" fill="white"/>
<path d="M87.8508 86.8286C87.8508 86.8286 92.5188 78.2896 91.4423 69.6392C91.4423 69.6392 87.9775 71.9983 87.0752 78.0879C86.1734 84.1768 87.8508 86.8286 87.8508 86.8286Z" fill="#28262C"/>
<path d="M109.356 86.5444C109.356 86.5444 103.934 77.7095 105.011 69.0592C105.011 69.0592 108.772 71.9987 109.674 78.0882C110.576 84.1772 109.356 86.5444 109.356 86.5444Z" fill="#28262C"/>
<path d="M88.2424 73.0467C88.2424 73.0467 93.5987 82.7877 109.996 81.2677C109.996 81.2677 108.123 67.3763 100.176 65.9891C100.176 65.9891 91.0002 64.5064 88.2424 73.0467Z" fill="#28262C"/>
<path d="M73.295 224.468C73.0563 224.975 86.943 142.71 82.8203 143.954C82.4441 144.066 75.2235 144.974 74.1501 147.927C71.0396 156.486 68.8083 223.843 68.8083 223.843L73.295 224.468Z" fill="#F79395"/>
<path d="M68.8082 223.843C68.8082 223.843 66.57 237.896 75.0313 239.432C75.5887 239.534 76.1275 239.088 76.3111 238.369L76.3354 238.273C76.5378 237.48 76.2438 236.628 75.677 236.285C74.2977 235.451 72.1581 233.342 73.2192 228.553C73.2192 228.553 74.4425 228.35 75.1173 231.437C75.2911 232.231 75.9499 232.63 76.4966 232.258C76.8695 232.003 77.0798 231.46 77.027 230.899C76.8242 228.737 76.0205 223.532 72.9365 222.135L68.8082 223.843Z" fill="#F79395"/>
<path d="M71.6553 167.693C71.6553 167.693 79.6563 182.94 79.6988 182.645C79.7409 182.351 82.4963 161.238 82.4963 161.238L72.7879 155.548L71.6553 167.693Z" fill="#EC767F"/>
<path d="M93.8865 118.42C94.2276 118.418 74.1127 118.905 70.4363 153.275L81.9965 155.672L84.3272 181.618H116.577L122.979 133.678C122.979 133.678 118.427 123.292 105.161 118.203L93.8865 118.42Z" fill="#30867A"/>
<path d="M84.0547 122.575C84.0547 122.575 86.8971 127.682 98.5446 127.682C110.084 127.682 113.035 122.308 113.035 122.308C113.035 122.308 106.233 117.165 98.339 115.501C98.339 115.501 91.2903 117.2 84.0547 122.575Z" fill="#F79395"/>
<path d="M123.631 231.457L123.659 300H148.718L150.644 231.457H123.631Z" fill="#315384"/>
<path d="M178.04 231.457L178.013 300H152.954L151.028 231.457H178.04Z" fill="#315384"/>
<path d="M164.355 255.27H138.445V231.457H164.355V255.27Z" fill="#315384"/>
<path d="M193.871 171.64C195.425 194.866 193.786 211.79 194.239 254.527L179.283 255.375L177.054 175.377L193.871 171.64Z" fill="#F79395"/>
<path d="M178.899 189.765C178.899 189.765 188.161 188.617 194.493 182.965L194.326 177.991L178.894 180.835L178.899 189.765Z" fill="#EC767F"/>
<path d="M164.04 118.164C164.04 118.164 193.459 128.175 198.789 178.705C198.789 178.705 184.391 187.151 169.962 183.518L173.208 166.618L164.04 118.164Z" fill="#AF61B7"/>
<path d="M76.1659 139.175L98.0704 174.179L91.3674 199.723C91.3674 199.723 74.7187 168.401 67.2378 144.191L76.1659 139.175Z" fill="#F79395"/>
<path d="M76.8858 140.438C76.8858 140.438 69.1942 146.318 67.2377 144.191C63.8187 140.474 60.9932 126.867 60.9932 126.867C60.9932 126.867 75.377 119.529 75.242 119.816C75.1065 120.103 76.8858 140.438 76.8858 140.438Z" fill="#F79395"/>
<path d="M76.886 140.438C76.7501 139.39 79.7382 128.086 80.7629 123.847C81.0097 122.825 80.4891 121.704 79.6686 121.492C79.135 121.353 78.2892 121.442 77.8897 122.479L74.2815 130.822L76.886 140.438Z" fill="#F79395"/>
<path d="M76.6225 128.218L74.1455 111.542C73.9983 110.433 73.1745 109.668 72.3526 109.878C71.641 110.06 71.1718 110.918 71.2555 111.883L72.3353 124.3L76.6225 128.218Z" fill="#F79395"/>
<path d="M71.6964 122.067L68.3325 110.159C68.0545 109.117 67.1873 108.539 66.4219 108.886C65.7579 109.187 65.385 110.092 65.5425 111.022L68.0386 124.782L71.6964 122.067Z" fill="#F79395"/>
<path d="M68.0816 125.579L63.8258 113.878C63.4351 112.792 62.4632 112.288 61.6656 112.758C60.9161 113.199 60.5843 114.348 60.9054 115.391L64.2982 126.438L68.0816 125.579Z" fill="#F79395"/>
<path d="M60.9933 126.867L57.6538 119.699C57.3776 118.856 57.6328 117.91 58.2379 117.537C58.8168 117.179 59.5322 117.46 59.9065 118.193L64.2983 126.437L60.9933 126.867Z" fill="#F79395"/>
<path d="M75.949 126.965C75.949 126.965 70.9339 126.253 70.4189 135.297" stroke="#28262C" stroke-width="2.04231" stroke-miterlimit="10" stroke-linecap="round" stroke-linejoin="round"/>
<path d="M86.925 187.775C86.925 187.775 91.0445 207.069 99.2544 204.503C107.464 201.939 120.259 178.212 120.259 178.212L117.396 137.698L94.3532 176.074L86.925 187.775Z" fill="#F79395"/>
<path d="M101.5 164.154C101.5 164.154 109.28 180.032 115.916 185.631L120.26 178.211L103.503 160.671L101.5 164.154Z" fill="#EC767F"/>
<path d="M135.537 117.289C135.537 117.289 112.696 124.255 100.525 160.174C100.525 160.174 107.879 175.168 119.668 181.833L127.561 168.747L135.537 117.289Z" fill="#AF61B7"/>
<path d="M135.537 117.178C126.614 123.37 121.006 131.583 121.006 131.583L122.766 236.581H178.991L178.809 132.125C178.809 132.125 171.722 122.74 164.04 118.165C157.516 114.279 141.879 112.776 135.537 117.178Z" fill="#AF61B7"/>
<path d="M162.141 168.34C157.823 168.34 154.321 163.603 154.321 157.758V147.176H169.962V157.758C169.962 163.603 166.46 168.34 162.141 168.34V168.34Z" stroke="#28262C" stroke-width="1.86241" stroke-miterlimit="10" stroke-linecap="round" stroke-linejoin="round"/>
<path d="M178.899 183.909L179.629 149.561" stroke="#28262C" stroke-width="1.86241" stroke-miterlimit="10" stroke-linecap="round" stroke-linejoin="round"/>
<path d="M121.87 178.184L120.655 148.41" stroke="#28262C" stroke-width="1.86241" stroke-miterlimit="10" stroke-linecap="round" stroke-linejoin="round"/>
<path d="M136.195 78.8271L133.852 63.1369C133.72 61.8591 133.353 59.887 133.802 58.0337C134.544 54.9678 137.273 49.0799 141.936 51.7754L142.944 57.9876C142.944 57.9876 138.101 59.3103 136.159 67.8829L136.195 78.8271Z" fill="#28262C"/>
<path d="M141.592 55.0141C141.508 57.076 140.163 66.0962 135.435 69.3828C135.435 69.3828 131.294 57.3656 141.592 55.0141Z" fill="#28262C"/>
<path d="M158.177 114.288V87.6457H140.027V114.288L134.624 117.621C134.624 117.621 135.891 128.663 149.293 128.908C162.694 129.153 164.04 118.164 164.04 118.164L158.177 114.288Z" fill="#F79395"/>
<path d="M141.936 51.7754C141.936 51.7754 145.267 39.8846 155.539 46.2062C161.757 50.0322 163.498 55.1625 164.238 58.7969C164.484 60.0052 164.583 61.9071 164.516 63.0364L162.031 78.8271L152.331 56.9804L142.944 57.9876L141.936 51.7754Z" fill="#28262C"/>
<path d="M162.031 78.8271C162.031 78.8271 163.255 76.1937 165.779 77.4886C168.302 78.7842 167.161 87.0779 163.375 88.135C163.375 88.135 162.018 88.5359 160.954 87.2783C160.954 87.2783 161.884 81.1521 162.031 78.8271Z" fill="#EC767F"/>
<path d="M165.278 80.4152C165.278 80.4152 163.164 79.4604 161.663 83.6733" stroke="#28262C" stroke-width="1.86241" stroke-miterlimit="10" stroke-linecap="round" stroke-linejoin="round"/>
<path d="M136.195 78.8271C136.195 78.8271 134.972 76.1937 132.448 77.4886C129.924 78.7842 131.065 87.0779 134.851 88.135C134.851 88.135 136.209 88.5359 137.273 87.2783C137.273 87.2783 136.342 81.1521 136.195 78.8271Z" fill="#EC767F"/>
<path d="M132.948 80.4152C132.948 80.4152 135.062 79.4604 136.563 83.6733" stroke="#28262C" stroke-width="1.86241" stroke-miterlimit="10" stroke-linecap="round" stroke-linejoin="round"/>
<path d="M162.283 70.9567C162.285 75.9569 161.922 86.4181 159.651 92.6265C157.518 98.4562 153.99 101.593 149.365 101.78C144.74 101.967 141.295 99.5551 138.534 91.9891C135.773 84.4232 135.905 71.0497 135.905 71.0497C135.905 71.0497 135.905 53.1882 148.951 53.1882C162.691 53.1882 162.283 70.9567 162.283 70.9567Z" fill="#F79395"/>
<path d="M140.163 95.7178C140.163 95.7178 141.683 106.154 148.395 107.353C156.12 108.733 158.177 95.9833 158.177 95.9833C158.177 95.9833 154.764 101.771 149.365 101.78C143.345 101.79 140.163 95.7178 140.163 95.7178Z" fill="#28262C"/>
<path d="M148.164 78.3722V82.5061C148.164 82.6838 148.189 82.8538 148.235 83.0094C148.416 83.6221 148.937 83.9155 149.408 83.746L150.42 83.3812" stroke="#28262C" stroke-width="1.86241" stroke-miterlimit="10" stroke-linecap="round" stroke-linejoin="round"/>
<path d="M144.311 76.3981C144.311 77.2858 143.779 78.0054 143.124 78.0054C142.468 78.0054 141.936 77.2858 141.936 76.3981C141.936 75.511 142.468 74.7908 143.124 74.7908C143.779 74.7908 144.311 75.511 144.311 76.3981Z" fill="#28262C"/>
<path d="M155.447 76.3981C155.447 77.2858 154.914 78.0054 154.259 78.0054C153.603 78.0054 153.071 77.2858 153.071 76.3981C153.071 75.511 153.603 74.7908 154.259 74.7908C154.914 74.7908 155.447 75.511 155.447 76.3981Z" fill="#28262C"/>
<path d="M151.219 68.4028L159.204 71.1943C159.204 71.1943 158.841 68.1631 155.574 67.0623C152.307 65.9609 151.219 68.4028 151.219 68.4028Z" fill="#28262C"/>
<path d="M146.257 68.4028L138.272 71.1943C138.272 71.1943 138.635 68.1631 141.901 67.0623C145.168 65.9609 146.257 68.4028 146.257 68.4028Z" fill="#28262C"/>
<path d="M144.668 86.671C144.668 86.671 145.846 87.8926 148.944 87.8926C151.761 87.8926 153.521 86.671 153.521 86.671" stroke="#28262C" stroke-width="1.86241" stroke-miterlimit="10" stroke-linecap="round" stroke-linejoin="round"/>
<path d="M147.851 76.867C147.851 80.6385 145.591 83.6963 142.804 83.6963C140.017 83.6963 137.757 80.6385 137.757 76.867C137.757 73.096 140.017 70.0383 142.804 70.0383C145.591 70.0383 147.851 73.096 147.851 76.867Z" stroke="white" stroke-width="2.60191" stroke-miterlimit="10"/>
<path d="M160.248 76.867C160.248 80.6385 157.989 83.6963 155.202 83.6963C152.414 83.6963 150.155 80.6385 150.155 76.867C150.155 73.096 152.414 70.0383 155.202 70.0383C157.989 70.0383 160.248 73.096 160.248 76.867Z" stroke="white" stroke-width="2.60191" stroke-miterlimit="10"/>
<path d="M147.851 76.8672C147.851 76.8672 149.046 75.3579 150.155 76.8672" stroke="white" stroke-width="2.60191" stroke-miterlimit="10"/>
<path d="M137.757 76.8672L136.065 76.8097" stroke="white" stroke-width="2.60191" stroke-miterlimit="10"/>
<path d="M160.248 76.8672L162.137 76.8261" stroke="white" stroke-width="2.60191" stroke-miterlimit="10"/>
<path d="M140.163 55.4224C140.163 55.4224 142.587 64.7392 153.522 64.4534C160.954 64.2593 162.729 71.5356 162.729 71.5356C162.729 71.5356 161.436 55.2688 161.096 55.4224C160.756 55.5755 149.788 51.4624 149.788 51.4624L140.163 55.4224Z" fill="#28262C"/>
</svg>
