<svg width="150" height="150" viewBox="0 0 150 150" fill="none" xmlns="http://www.w3.org/2000/svg">
<path d="M93.2601 26.1776C86.0236 10.7472 68.5177 -0.10846 48.1031 0.000817592C22.0596 0.139978 0.646415 18.3653 0.0146101 40.9538C-0.297072 52.0983 4.39706 62.288 12.284 69.9527C18.5713 76.0628 21.7266 84.1104 21.4085 92.2968C21.3663 93.3849 21.3599 94.4809 21.391 95.5839C22.223 125.291 51.4742 150.018 85.7254 150C121.227 149.982 150 125.007 150 94.202C150 71.6217 134.54 52.1762 112.302 43.3945C103.635 39.9717 96.849 33.8299 93.2601 26.1776V26.1776Z" fill="url(#paint0_linear)"/>
<path opacity="0.1" d="M142.195 22.4778H122.309V18.0803C122.309 15.6528 120.038 13.6829 117.24 13.6829H32.7601C29.962 13.6829 27.6914 15.6531 27.6914 18.0803V22.4778H7.80393C5.00589 22.4778 2.73531 24.448 2.73531 26.8752V119.005C2.73531 121.433 5.00622 123.403 7.80393 123.403H27.6908V127.8C27.6908 130.228 29.9617 132.198 32.7594 132.198H117.239C120.037 132.198 122.308 130.227 122.308 127.8V123.403H142.195C144.993 123.403 147.263 121.432 147.263 119.005V26.8752C147.264 24.4477 144.993 22.4778 142.195 22.4778V22.4778Z" fill="#2626BC"/>
<path d="M142.195 28.6301H110.144V129.555H142.195C144.993 129.555 147.264 127.585 147.264 125.158V33.0279C147.264 30.6 144.993 28.6301 142.195 28.6301Z" fill="white"/>
<path d="M134.474 95.5103H110.144V129.555H134.474C135.034 129.555 135.487 129.161 135.487 128.676V96.3897C135.487 95.904 135.034 95.5103 134.474 95.5103Z" fill="#FFA8CF"/>
<path d="M134.474 53.7751H110.144V87.8199H134.474C135.034 87.8199 135.487 87.4261 135.487 86.9404V54.6546C135.487 54.1689 135.034 53.7751 134.474 53.7751Z" fill="#97FFD2"/>
<path d="M142.195 28.6301H110.144V42.7527H147.264V33.0276C147.264 30.5989 144.995 28.6301 142.195 28.6301V28.6301Z" fill="#02FFB3"/>
<path d="M38.8424 28.6301H7.80393C5.00589 28.6301 2.73531 30.6003 2.73531 33.0276V125.157C2.73531 127.585 5.00623 129.555 7.80393 129.555H38.8421V28.6301H38.8424Z" fill="white"/>
<path d="M38.8424 117.128V78.4296H12.8226C12.2627 78.4296 11.8089 78.8233 11.8089 79.3091V116.249C11.8089 116.735 12.2627 117.128 12.8226 117.128H38.8424Z" fill="#FFA8CF"/>
<path d="M38.8424 70.8472V58.5341H12.8226C12.2627 58.5341 11.8089 58.9278 11.8089 59.4135V69.9678C11.8089 70.4535 12.2627 70.8472 12.8226 70.8472H38.8424Z" fill="#9FB0FE"/>
<path d="M38.8425 28.6301H7.8043C5.0049 28.6301 2.73567 30.5989 2.73567 33.0276V42.7527H38.8425V28.6301Z" fill="#FF7EB8"/>
<path d="M122.309 24.2323V133.953C122.309 136.38 120.038 138.35 117.24 138.35H32.7601C29.962 138.35 27.6915 136.38 27.6915 133.953V24.2323C27.6915 21.8048 29.9624 19.8348 32.7601 19.8348H117.24C120.038 19.8348 122.309 21.8048 122.309 24.2323Z" fill="white"/>
<path d="M27.6911 42.7828H122.309V82.3612H27.6911V42.7828Z" fill="#FFA8CF"/>
<path d="M122.309 42.7828V73.6541C118.396 75.0671 114.101 75.844 109.6 75.844C91.2708 75.844 76.4124 62.9502 76.4124 47.0485C76.4124 45.6003 76.5374 44.1753 76.7741 42.7828H122.309Z" fill="#FF7EB8"/>
<path d="M122.309 33.9574V24.2323C122.309 21.8036 120.039 19.8348 117.24 19.8348H32.7601C29.9607 19.8348 27.6915 21.8036 27.6915 24.2323V33.9574H122.309Z" fill="#6583FE"/>
<path d="M142.195 27.1653H123.997V24.2324C123.997 21.0001 120.966 18.3701 117.24 18.3701H32.7601C29.0341 18.3701 26.003 21.0001 26.003 24.2324V27.1653H7.80427C4.07827 27.1653 1.04689 29.795 1.04689 33.0276V125.157C1.04689 128.389 4.07827 131.019 7.80427 131.019H18.391C19.3233 131.019 20.0794 130.364 20.0794 129.554C20.0794 128.745 19.3233 128.09 18.391 128.09H7.80427C5.94026 128.09 4.42372 126.774 4.42372 125.157V44.2176H26.0024V133.952C26.0024 137.184 29.0337 139.814 32.7594 139.814H117.239C120.965 139.814 123.996 137.184 123.996 133.952V131.019H142.195C145.921 131.019 148.952 128.389 148.952 125.157V33.0276C148.952 29.795 145.921 27.1653 142.195 27.1653V27.1653ZM142.195 30.095C144.059 30.095 145.576 31.4107 145.576 33.0279V41.2879H123.997V30.095H142.195ZM32.7601 21.2998H117.24C119.104 21.2998 120.62 22.6152 120.62 24.2324V32.4927H29.3795V24.2324C29.3795 22.6152 30.8961 21.2998 32.7601 21.2998V21.2998ZM4.42372 41.2879V33.0279C4.42372 31.4107 5.94026 30.095 7.80427 30.095H26.0027V41.2879H4.42372ZM142.195 128.09H123.997V50.8211C123.997 50.0119 123.241 49.3562 122.309 49.3562C121.376 49.3562 120.62 50.0119 120.62 50.8211V133.952C120.62 135.569 119.104 136.885 117.24 136.885H32.7601C30.8961 136.885 29.3799 135.569 29.3799 133.952V35.4224H120.62V42.7527C120.62 43.5619 121.376 44.2176 122.309 44.2176H145.576V125.157C145.576 126.774 144.059 128.09 142.195 128.09Z" fill="#2626BC"/>
<path d="M15.6041 34.2053C14.6717 34.2053 13.9156 34.861 13.9156 35.6702V35.7126C13.9156 36.5218 14.6717 37.1775 15.6041 37.1775C16.5364 37.1775 17.2925 36.5218 17.2925 35.7126V35.6702C17.2925 34.861 16.5367 34.2053 15.6041 34.2053Z" fill="#2626BC"/>
<path d="M22.1345 34.2053C21.2022 34.2053 20.4461 34.861 20.4461 35.6702V35.7126C20.4461 36.5218 21.2022 37.1775 22.1345 37.1775C23.0669 37.1775 23.823 36.5218 23.823 35.7126V35.6702C23.823 34.861 23.0669 34.2053 22.1345 34.2053Z" fill="#2626BC"/>
<path d="M40.5598 28.3822C41.4922 28.3822 42.2483 27.7266 42.2483 26.9174V26.8746C42.2483 26.0655 41.4922 25.4098 40.5598 25.4098C39.6275 25.4098 38.8714 26.0655 38.8714 26.8746V26.9174C38.8714 27.7266 39.6275 28.3822 40.5598 28.3822Z" fill="#2626BC"/>
<path d="M47.09 28.3822C48.0224 28.3822 48.7784 27.7266 48.7784 26.9174V26.8746C48.7784 26.0655 48.0224 25.4098 47.09 25.4098C46.1577 25.4098 45.4016 26.0655 45.4016 26.8746V26.9174C45.4016 27.7266 46.1577 28.3822 47.09 28.3822Z" fill="#2626BC"/>
<path d="M53.6205 28.3822C54.5528 28.3822 55.3089 27.7266 55.3089 26.9174V26.8746C55.3089 26.0655 54.5528 25.4098 53.6205 25.4098C52.6881 25.4098 51.9321 26.0655 51.9321 26.8746V26.9174C51.9321 27.7266 52.6878 28.3822 53.6205 28.3822Z" fill="#2626BC"/>
<path d="M110.793 58.1331C110.134 57.5612 109.065 57.5615 108.405 58.1328C107.746 58.7049 107.746 59.6325 108.405 60.2043L109.186 60.882L108.405 61.5596C107.746 62.1315 107.746 63.059 108.405 63.6312C108.735 63.9171 109.167 64.0601 109.599 64.0601C110.031 64.0601 110.464 63.9171 110.793 63.6309L112.768 61.9176C113.427 61.3457 113.427 60.4182 112.768 59.8463L110.793 58.1331Z" fill="#2626BC"/>
<path d="M41.5942 58.1327C40.935 57.5612 39.8656 57.5609 39.2064 58.133L37.232 59.8463C36.5725 60.4182 36.5725 61.3457 37.232 61.9176L39.2064 63.6309C39.5364 63.9171 39.9682 64.0601 40.4005 64.0601C40.8324 64.0601 41.2646 63.9171 41.5942 63.6312C42.2537 63.059 42.2537 62.1315 41.5942 61.5596L40.8135 60.882L41.5942 60.2043C42.2537 59.6324 42.2537 58.7049 41.5942 58.1327V58.1327Z" fill="#2626BC"/>
<path d="M69.2856 78.6428C70.3289 78.6428 71.1746 77.9091 71.1746 77.004C71.1746 76.0989 70.3289 75.3651 69.2856 75.3651C68.2423 75.3651 67.3966 76.0989 67.3966 77.004C67.3966 77.9091 68.2423 78.6428 69.2856 78.6428Z" fill="#4369FD"/>
<path d="M74.9999 78.6428C76.0431 78.6428 76.8889 77.9091 76.8889 77.004C76.8889 76.0989 76.0431 75.3651 74.9999 75.3651C73.9566 75.3651 73.1109 76.0989 73.1109 77.004C73.1109 77.9091 73.9566 78.6428 74.9999 78.6428Z" fill="#FF5BA8"/>
<path d="M80.7141 78.6428C81.7574 78.6428 82.6031 77.9091 82.6031 77.004C82.6031 76.0989 81.7574 75.3651 80.7141 75.3651C79.6709 75.3651 78.8251 76.0989 78.8251 77.004C78.8251 77.9091 79.6709 78.6428 80.7141 78.6428Z" fill="#FF5BA8"/>
<path d="M55.889 105.206H34.7129C34.153 105.206 33.6992 104.812 33.6992 104.327V91.2314C33.6992 90.7457 34.153 90.3519 34.7129 90.3519H55.889C56.4489 90.3519 56.9027 90.7457 56.9027 91.2314V104.327C56.9027 104.812 56.4489 105.206 55.889 105.206Z" fill="#6583FE"/>
<path d="M52.3694 105.206H44.2592V96.5858C44.2592 96.1 44.7131 95.7063 45.273 95.7063H51.3556C51.9155 95.7063 52.3694 96.1 52.3694 96.5858V105.206Z" fill="#9FB0FE"/>
<path d="M51.1709 112.695H39.4307C38.496 112.695 37.7382 112.037 37.7382 111.226C37.7382 110.415 38.4956 109.758 39.4307 109.758H51.1709C52.1056 109.758 52.8634 110.415 52.8634 111.226C52.8634 112.037 52.1056 112.695 51.1709 112.695Z" fill="#FF7EB8"/>
<path d="M56.0565 123.236H35.3913C34.4566 123.236 33.6989 122.579 33.6989 121.768C33.6989 120.957 34.4563 120.299 35.3913 120.299H56.0565C56.9912 120.299 57.749 120.957 57.749 121.768C57.749 122.579 56.9912 123.236 56.0565 123.236Z" fill="#B7C5FF"/>
<path d="M56.0565 128.953H35.3913C34.4566 128.953 33.6989 128.296 33.6989 127.485C33.6989 126.674 34.4563 126.016 35.3913 126.016H56.0565C56.9912 126.016 57.749 126.674 57.749 127.485C57.749 128.296 56.9912 128.953 56.0565 128.953Z" fill="#B7C5FF"/>
<path d="M85.1648 105.206H63.9887C63.4288 105.206 62.975 104.812 62.975 104.327V91.2314C62.975 90.7457 63.4288 90.3519 63.9887 90.3519H85.1648C85.7247 90.3519 86.1786 90.7457 86.1786 91.2314V104.327C86.1786 104.812 85.7247 105.206 85.1648 105.206Z" fill="#6583FE"/>
<path d="M81.6455 105.206H73.5354V96.5858C73.5354 96.1 73.9892 95.7063 74.5491 95.7063H80.6318C81.1917 95.7063 81.6455 96.1 81.6455 96.5858V105.206Z" fill="#9FB0FE"/>
<path d="M80.4467 112.695H68.7065C67.7718 112.695 67.014 112.037 67.014 111.226C67.014 110.415 67.7714 109.758 68.7065 109.758H80.4467C81.3814 109.758 82.1392 110.415 82.1392 111.226C82.1392 112.037 81.3817 112.695 80.4467 112.695Z" fill="#FF7EB8"/>
<path d="M85.3326 123.236H64.6674C63.7327 123.236 62.975 122.579 62.975 121.768C62.975 120.957 63.7324 120.299 64.6674 120.299H85.3326C86.2673 120.299 87.0251 120.957 87.0251 121.768C87.0251 122.579 86.2673 123.236 85.3326 123.236Z" fill="#B7C5FF"/>
<path d="M85.3326 128.953H64.6674C63.7327 128.953 62.975 128.296 62.975 127.485C62.975 126.674 63.7324 126.016 64.6674 126.016H85.3326C86.2673 126.016 87.0251 126.674 87.0251 127.485C87.0251 128.296 86.2673 128.953 85.3326 128.953Z" fill="#B7C5FF"/>
<path d="M114.441 105.206H93.2648C92.7049 105.206 92.2511 104.812 92.2511 104.327V91.2314C92.2511 90.7457 92.7049 90.3519 93.2648 90.3519H114.441C115.001 90.3519 115.455 90.7457 115.455 91.2314V104.327C115.455 104.812 115.001 105.206 114.441 105.206Z" fill="#6583FE"/>
<path d="M110.921 105.206H102.811V96.5858C102.811 96.1 103.265 95.7063 103.825 95.7063H109.908C110.468 95.7063 110.922 96.1 110.922 96.5858V105.206H110.921Z" fill="#9FB0FE"/>
<path d="M109.723 112.695H97.9826C97.0479 112.695 96.2901 112.037 96.2901 111.226C96.2901 110.415 97.0476 109.758 97.9826 109.758H109.723C110.658 109.758 111.415 110.415 111.415 111.226C111.415 112.037 110.658 112.695 109.723 112.695Z" fill="#FF7EB8"/>
<path d="M114.608 123.236H93.9432C93.0085 123.236 92.2507 122.579 92.2507 121.768C92.2507 120.957 93.0082 120.299 93.9432 120.299H114.608C115.543 120.299 116.301 120.957 116.301 121.768C116.301 122.579 115.543 123.236 114.608 123.236Z" fill="#B7C5FF"/>
<path d="M114.608 128.953H93.9432C93.0085 128.953 92.2507 128.296 92.2507 127.485C92.2507 126.674 93.0082 126.016 93.9432 126.016H114.608C115.543 126.016 116.301 126.674 116.301 127.485C116.301 128.296 115.543 128.953 114.608 128.953Z" fill="#B7C5FF"/>
<path d="M131.354 23.0576C130.906 23.0576 130.477 22.9035 130.16 22.6284L126.439 19.4002C126.122 19.1254 125.945 18.7531 125.945 18.3646C125.945 17.9761 126.123 17.6034 126.439 17.3289L130.16 14.101C130.819 13.5288 131.888 13.5288 132.548 14.101L136.268 17.3289C136.585 17.6037 136.762 17.9761 136.762 18.3646C136.762 18.7531 136.585 19.1257 136.268 19.4002L132.548 22.6284C132.231 22.9035 131.802 23.0576 131.354 23.0576V23.0576ZM130.021 18.3649L131.354 19.5212L132.687 18.3649L131.354 17.2088L130.021 18.3649Z" fill="#FF7EB8"/>
<path d="M17.4894 144.291C17.0416 144.291 16.6121 144.137 16.2953 143.862L12.5748 140.634C12.258 140.359 12.0804 139.987 12.0804 139.598C12.0804 139.21 12.2583 138.837 12.5748 138.563L16.2953 135.335C16.9548 134.762 18.0236 134.762 18.6831 135.335L22.4037 138.563C22.7204 138.837 22.8981 139.21 22.8981 139.598C22.8981 139.987 22.7201 140.359 22.4037 140.634L18.6834 143.862C18.367 144.137 17.9375 144.291 17.4894 144.291V144.291ZM16.1569 139.598L17.4897 140.755L18.8226 139.598L17.4897 138.442L16.1569 139.598Z" fill="#6583FE"/>
<path d="M115.455 14.8061C115.022 14.8061 114.591 14.6632 114.261 14.3769L110.54 11.149C110.223 10.8742 110.046 10.5018 110.046 10.1134C110.046 9.72489 110.224 9.35223 110.54 9.07772L114.261 5.84979C114.92 5.27762 115.989 5.27792 116.648 5.84979L120.369 9.07772C121.028 9.6496 121.028 10.5771 120.369 11.149L116.648 14.3769C116.319 14.6632 115.887 14.8061 115.455 14.8061ZM114.122 10.1134L115.455 11.2694L116.787 10.1134L115.455 8.95731L114.122 10.1134Z" fill="#6583FE"/>
<path d="M137.826 144.579C136.893 144.579 136.137 143.923 136.137 143.114C136.137 142.142 135.225 141.351 134.105 141.351C133.173 141.351 132.416 140.695 132.416 139.886C132.416 139.077 133.173 138.421 134.105 138.421C135.225 138.421 136.137 137.63 136.137 136.658C136.137 135.849 136.893 135.193 137.826 135.193C138.758 135.193 139.514 135.849 139.514 136.658C139.514 137.63 140.426 138.421 141.546 138.421C142.478 138.421 143.235 139.077 143.235 139.886C143.235 140.695 142.478 141.351 141.546 141.351C140.426 141.351 139.514 142.141 139.514 143.114C139.514 143.923 138.758 144.579 137.826 144.579Z" fill="#97FFD2"/>
<defs>
<linearGradient id="paint0_linear" x1="13.3406" y1="5.82885" x2="105.852" y2="155.582" gradientUnits="userSpaceOnUse">
<stop offset="0.0485" stop-color="#FFDBED"/>
<stop offset="0.9993" stop-color="#D2DEFF"/>
</linearGradient>
</defs>
</svg>
