<svg width="32" height="32" viewBox="0 0 32 32" fill="none" xmlns="http://www.w3.org/2000/svg">
<path d="M7.26411 31.9993V10.4081H0.404338V31.9993H7.26483H7.26411ZM3.83566 7.46075C6.22731 7.46075 7.71626 5.8028 7.71626 3.73084C7.6715 1.61167 6.22731 0 3.88114 0C1.53337 0 0 1.61167 0 3.73065C0 5.80262 1.48842 7.46056 3.79071 7.46056H3.83512L3.83566 7.46075ZM11.0611 31.9993H17.9203V19.9431C17.9203 19.2987 17.9651 18.6525 18.1463 18.1922C18.642 16.9024 19.7707 15.5672 21.6661 15.5672C24.1476 15.5672 25.1409 17.547 25.1409 20.4498V31.9993H32V19.6196C32 12.988 28.6163 9.90195 24.1032 9.90195C20.4031 9.90195 18.7781 12.0655 17.8752 13.5391H17.9209V10.4089H11.0615C11.151 12.4344 11.0609 32 11.0609 32L11.0611 31.9993Z" fill="#8257E5"/>
</svg>
